<?xml version="1.0" encoding="UTF-8"?>
<!DOCTYPE svg PUBLIC "-//W3C//DTD SVG 1.1//EN" "http://www.w3.org/Graphics/SVG/1.1/DTD/svg11.dtd">
<svg xmlns="http://www.w3.org/2000/svg" version="1.1" width="512px" height="512px" style="shape-rendering:geometricPrecision; text-rendering:geometricPrecision; image-rendering:optimizeQuality; fill-rule:evenodd; clip-rule:evenodd" xmlns:xlink="http://www.w3.org/1999/xlink">
<g><path style="opacity:0.986" fill="#000000" d="M 362.5,15.5 C 365.518,15.3354 368.518,15.502 371.5,16C 373.333,16.5 374.5,17.6667 375,19.5C 375.964,33.5941 375.631,47.5941 374,61.5C 357.622,67.7931 341.122,73.7931 324.5,79.5C 341.122,85.2069 357.622,91.2069 374,97.5C 375.631,111.406 375.964,125.406 375,139.5C 374.5,141.333 373.333,142.5 371.5,143C 368.5,143.667 365.5,143.667 362.5,143C 344.595,136.697 326.595,131.03 308.5,126C 318.251,136.67 324.418,149.17 327,163.5C 327.667,259.167 327.667,354.833 327,450.5C 321.556,472.589 308.056,487.089 286.5,494C 267.219,495.616 247.885,495.95 228.5,495C 204.333,489.5 189.5,474.667 184,450.5C 183.5,436.171 183.333,421.837 183.5,407.5C 152.832,407.667 122.165,407.5 91.5,407C 89.6667,406.5 88.5,405.333 88,403.5C 87.3333,400.5 87.3333,397.5 88,394.5C 98.3333,358.167 108.667,321.833 119,285.5C 119.333,223.833 119.667,162.167 120,100.5C 125.444,78.411 138.944,63.911 160.5,57C 181.449,55.7123 202.449,55.0456 223.5,55C 233.97,41.7278 247.637,36.7278 264.5,40C 268.644,41.2134 272.644,42.7134 276.5,44.5C 305.407,35.1981 334.074,25.5314 362.5,15.5 Z M 175.5,103.5 C 191.503,103.333 207.503,103.5 223.5,104C 224.376,105.586 225.376,107.086 226.5,108.5C 203.203,119.753 189.036,138.086 184,163.5C 183.5,186.164 183.333,208.831 183.5,231.5C 178.167,231.5 172.833,231.5 167.5,231.5C 167.333,191.499 167.5,151.499 168,111.5C 168.68,106.989 171.18,104.323 175.5,103.5 Z M 167.5,247.5 C 172.833,247.5 178.167,247.5 183.5,247.5C 183.667,277.835 183.5,308.168 183,338.5C 178,320.833 173,303.167 168,285.5C 167.5,272.838 167.333,260.171 167.5,247.5 Z"/></g>
<g><path style="opacity:1" fill="#979797" d="M 357.5,34.5 C 358.809,36.5706 359.475,39.0706 359.5,42C 359.475,44.755 359.141,47.4217 358.5,50C 337.865,56.934 317.198,63.7674 296.5,70.5C 293.706,66.9318 291.372,62.9318 289.5,58.5C 312.156,50.2825 334.823,42.2825 357.5,34.5 Z"/></g>
<g><path style="opacity:1" fill="#f25447" d="M 249.5,55.5 C 263.817,54.2383 273.65,60.2383 279,73.5C 280.75,87.8326 274.917,97.6659 261.5,103C 246.316,105.326 236.483,99.1597 232,84.5C 230.099,73.7983 233.599,65.2983 242.5,59C 244.925,57.7874 247.259,56.6207 249.5,55.5 Z"/></g>
<g><path style="opacity:1" fill="#b8b8b8" d="M 167.5,71.5 C 183.5,71.5 199.5,71.5 215.5,71.5C 215.392,76.8699 215.725,82.2032 216.5,87.5C 200.83,87.3334 185.163,87.5001 169.5,88C 162.143,90.6887 156.643,95.522 153,102.5C 151.516,145.44 151.016,188.44 151.5,231.5C 146.167,231.5 140.833,231.5 135.5,231.5C 135.333,188.832 135.5,146.165 136,103.5C 140.683,86.9848 151.183,76.3181 167.5,71.5 Z"/></g>
<g><path style="opacity:1" fill="#74797e" d="M 294.5,88.5 C 315.963,94.8205 337.296,101.654 358.5,109C 359.804,114.114 359.804,119.281 358.5,124.5C 335.317,116.884 312.317,108.884 289.5,100.5C 291.564,96.6331 293.231,92.6331 294.5,88.5 Z"/></g>
<g><path style="opacity:1" fill="#f45547" d="M 246.5,119.5 C 280.898,117.759 302.398,133.426 311,166.5C 311.5,180.163 311.667,193.829 311.5,207.5C 285.744,207.019 260.077,207.519 234.5,209C 233.299,209.903 232.465,211.069 232,212.5C 231.333,243.5 231.333,274.5 232,305.5C 232.273,307.329 233.107,308.829 234.5,310C 260.077,311.481 285.744,311.981 311.5,311.5C 311.5,356.833 311.5,402.167 311.5,447.5C 291.075,447.024 270.741,447.524 250.5,449C 247.152,452.419 246.652,456.252 249,460.5C 249.903,461.701 251.069,462.535 252.5,463C 269.177,463.167 285.843,463.667 302.5,464.5C 296.256,472.127 288.256,476.96 278.5,479C 263.5,479.667 248.5,479.667 233.5,479C 223.32,477.247 214.987,472.413 208.5,464.5C 215.218,463.881 221.885,463.048 228.5,462C 231.601,458.498 232.101,454.665 230,450.5C 228.829,449.107 227.329,448.273 225.5,448C 216.84,447.5 208.173,447.334 199.5,447.5C 199.333,353.833 199.5,260.166 200,166.5C 205.681,140.987 221.181,125.32 246.5,119.5 Z"/></g>
<g><path style="opacity:1" fill="#d8d9d8" d="M 247.5,223.5 C 268.833,223.5 290.167,223.5 311.5,223.5C 311.5,228.833 311.5,234.167 311.5,239.5C 290.167,239.5 268.833,239.5 247.5,239.5C 247.5,234.167 247.5,228.833 247.5,223.5 Z"/></g>
<g><path style="opacity:1" fill="#b8b9b8" d="M 135.5,247.5 C 140.833,247.5 146.167,247.5 151.5,247.5C 151.5,258.167 151.5,268.833 151.5,279.5C 146.167,279.5 140.833,279.5 135.5,279.5C 135.5,268.833 135.5,258.167 135.5,247.5 Z"/></g>
<g><path style="opacity:1" fill="#cccdcc" d="M 247.5,255.5 C 268.833,255.5 290.167,255.5 311.5,255.5C 311.5,268.833 311.5,282.167 311.5,295.5C 290.167,295.5 268.833,295.5 247.5,295.5C 247.5,282.167 247.5,268.833 247.5,255.5 Z"/></g>
<g><path style="opacity:1" fill="#767b80" d="M 133.5,295.5 C 140.422,295.188 147.256,295.521 154,296.5C 163.147,328.104 171.98,359.771 180.5,391.5C 155.833,391.5 131.167,391.5 106.5,391.5C 115.098,359.375 124.098,327.375 133.5,295.5 Z"/></g>
</svg>
