<?xml version="1.0" encoding="UTF-8"?>
<!DOCTYPE svg PUBLIC "-//W3C//DTD SVG 1.1//EN" "http://www.w3.org/Graphics/SVG/1.1/DTD/svg11.dtd">
<svg xmlns="http://www.w3.org/2000/svg" version="1.1" width="800px" height="798px" style="shape-rendering:geometricPrecision; text-rendering:geometricPrecision; image-rendering:optimizeQuality; fill-rule:evenodd; clip-rule:evenodd" xmlns:xlink="http://www.w3.org/1999/xlink">
<g><path style="opacity:0.988" fill="#bf5c51" d="M 374.5,-0.5 C 390.833,-0.5 407.167,-0.5 423.5,-0.5C 422.167,0.166667 420.833,0.833333 419.5,1.5C 405.699,0.853722 391.866,1.52039 378,3.5C 376.855,3.38093 375.688,3.0476 374.5,2.5C 375.263,1.73209 376.263,1.23209 377.5,1C 376.263,0.76791 375.263,0.26791 374.5,-0.5 Z"/></g>
<g><path style="opacity:1" fill="#b31f18" d="M 419.5,1.5 C 532.998,9.75204 627.332,56.0854 702.5,140.5C 789.521,249.746 815.688,372.413 781,508.5C 772.18,538.465 760.347,567.131 745.5,594.5C 713.103,653.564 668.103,700.564 610.5,735.5C 551.789,770.628 488.455,790.628 420.5,795.5C 405.9,795.463 391.234,795.13 376.5,794.5C 268.706,786.518 177.872,743.185 104,664.5C 21.6591,568.43 -10.3409,457.43 8,331.5C 21.3102,259.951 50.8102,196.284 96.5,140.5C 170.271,57.2822 262.938,11.2822 374.5,2.5C 375.688,3.0476 376.855,3.38093 378,3.5C 391.866,1.52039 405.699,0.853722 419.5,1.5 Z"/></g>
<g><path style="opacity:0.235" fill="#a70906" d="M 423.5,-0.5 C 425.167,-0.5 426.833,-0.5 428.5,-0.5C 534.225,10.2799 623.392,54.2799 696,131.5C 698.41,134.397 700.577,137.397 702.5,140.5C 627.332,56.0854 532.998,9.75204 419.5,1.5C 420.833,0.833333 422.167,0.166667 423.5,-0.5 Z"/></g>
<g><path style="opacity:0.235" fill="#a70906" d="M 370.5,-0.5 C 371.833,-0.5 373.167,-0.5 374.5,-0.5C 375.263,0.26791 376.263,0.76791 377.5,1C 376.263,1.23209 375.263,1.73209 374.5,2.5C 262.938,11.2822 170.271,57.2822 96.5,140.5C 152.137,74.8225 222.137,31.6558 306.5,11C 327.279,6.26973 348.279,2.9364 369.5,1C 370.056,0.617425 370.389,0.117425 370.5,-0.5 Z"/></g>
<g><path style="opacity:1" fill="#e9cece" d="M 406.5,135.5 C 407.5,136.167 408.5,136.833 409.5,137.5C 402.833,137.5 396.167,137.5 389.5,137.5C 390.263,136.732 391.263,136.232 392.5,136C 397.155,135.501 401.821,135.334 406.5,135.5 Z"/></g>
<g><path style="opacity:1" fill="#fefefe" d="M 389.5,137.5 C 396.167,137.5 402.833,137.5 409.5,137.5C 410.568,138.434 411.901,138.768 413.5,138.5C 421.6,145.599 430.267,151.933 439.5,157.5C 439.414,158.496 439.748,159.329 440.5,160C 442.405,161.421 444.405,162.588 446.5,163.5C 446.833,163.5 447.167,163.5 447.5,163.5C 448.911,165.914 450.911,167.581 453.5,168.5C 456.627,171.898 460.293,174.565 464.5,176.5C 466.15,179.061 468.484,180.727 471.5,181.5C 472.262,183.262 473.596,184.262 475.5,184.5C 475.414,185.496 475.748,186.329 476.5,187C 481.179,189.382 485.512,192.215 489.5,195.5C 491.647,197.737 493.98,199.737 496.5,201.5C 464.507,202.833 432.174,203.5 399.5,203.5C 367.167,203.333 334.833,203.167 302.5,203C 303.381,202.292 304.047,201.458 304.5,200.5C 304.833,199.833 305.167,199.167 305.5,198.5C 308.533,196.984 311.2,194.984 313.5,192.5C 316.289,190.395 319.289,188.561 322.5,187C 323.252,186.329 323.586,185.496 323.5,184.5C 328.482,181.193 333.482,177.859 338.5,174.5C 341.089,173.581 343.089,171.914 344.5,169.5C 347.45,167.885 350.116,165.885 352.5,163.5C 354.404,163.262 355.738,162.262 356.5,160.5C 359.108,158.897 361.441,156.897 363.5,154.5C 367.732,152.6 371.399,149.933 374.5,146.5C 376.027,146.573 377.027,145.906 377.5,144.5C 379.027,144.573 380.027,143.906 380.5,142.5C 383.262,140.404 386.262,138.738 389.5,137.5 Z"/></g>
<g><path style="opacity:1" fill="#b0534f" d="M 406.5,135.5 C 409.491,135.166 411.824,136.166 413.5,138.5C 411.901,138.768 410.568,138.434 409.5,137.5C 408.5,136.833 407.5,136.167 406.5,135.5 Z"/></g>
<g><path style="opacity:1" fill="#b66665" d="M 380.5,142.5 C 380.027,143.906 379.027,144.573 377.5,144.5C 377.973,143.094 378.973,142.427 380.5,142.5 Z"/></g>
<g><path style="opacity:1" fill="#b96765" d="M 377.5,144.5 C 377.027,145.906 376.027,146.573 374.5,146.5C 374.973,145.094 375.973,144.427 377.5,144.5 Z"/></g>
<g><path style="opacity:0.988" fill="#ac3e38" d="M 363.5,154.5 C 361.441,156.897 359.108,158.897 356.5,160.5C 357.581,157.121 359.915,155.121 363.5,154.5 Z"/></g>
<g><path style="opacity:1" fill="#b5605c" d="M 356.5,160.5 C 355.738,162.262 354.404,163.262 352.5,163.5C 352.694,161.088 354.027,160.088 356.5,160.5 Z"/></g>
<g><path style="opacity:1" fill="#b04c47" d="M 439.5,157.5 C 443.303,157.887 445.637,159.887 446.5,163.5C 444.405,162.588 442.405,161.421 440.5,160C 439.748,159.329 439.414,158.496 439.5,157.5 Z"/></g>
<g><path style="opacity:1" fill="#ae504d" d="M 447.5,163.5 C 450.089,164.419 452.089,166.086 453.5,168.5C 450.911,167.581 448.911,165.914 447.5,163.5 Z"/></g>
<g><path style="opacity:1" fill="#d6a3a2" d="M 342.5,169.5 C 343.167,169.5 343.833,169.5 344.5,169.5C 343.089,171.914 341.089,173.581 338.5,174.5C 339.833,172.833 341.167,171.167 342.5,169.5 Z"/></g>
<g><path style="opacity:0.988" fill="#aa352f" d="M 342.5,169.5 C 341.167,171.167 339.833,172.833 338.5,174.5C 333.482,177.859 328.482,181.193 323.5,184.5C 328.94,178.291 335.274,173.291 342.5,169.5 Z"/></g>
<g><path style="opacity:1" fill="#ab4a46" d="M 464.5,176.5 C 467.37,177.433 469.704,179.1 471.5,181.5C 468.484,180.727 466.15,179.061 464.5,176.5 Z"/></g>
<g><path style="opacity:1" fill="#ae4b46" d="M 475.5,184.5 C 477.258,184.877 478.925,185.544 480.5,186.5C 483.827,189.161 486.827,192.161 489.5,195.5C 485.512,192.215 481.179,189.382 476.5,187C 475.748,186.329 475.414,185.496 475.5,184.5 Z"/></g>
<g><path style="opacity:0.988" fill="#b2504a" d="M 313.5,192.5 C 311.2,194.984 308.533,196.984 305.5,198.5C 307.269,195.32 309.936,193.32 313.5,192.5 Z"/></g>
<g><path style="opacity:1" fill="#f7e7e7" d="M 304.5,200.5 C 304.047,201.458 303.381,202.292 302.5,203C 334.833,203.167 367.167,203.333 399.5,203.5C 432.174,203.5 464.507,202.833 496.5,201.5C 497.605,202.6 498.938,203.267 500.5,203.5C 433.167,204.833 365.833,204.833 298.5,203.5C 300.5,202.5 302.5,201.5 304.5,200.5 Z"/></g>
<g><path style="opacity:1" fill="#aa4645" d="M 298.5,203.5 C 365.833,204.833 433.167,204.833 500.5,203.5C 501.043,203.56 501.376,203.893 501.5,204.5C 433.5,205.833 365.5,205.833 297.5,204.5C 297.624,203.893 297.957,203.56 298.5,203.5 Z"/></g>
<g><path style="opacity:1" fill="#aa4645" d="M 557.5,343.5 C 557.833,342.5 558.5,341.833 559.5,341.5C 560.499,300.67 560.832,259.67 560.5,218.5C 453.167,218.5 345.833,218.5 238.5,218.5C 238.168,259.67 238.501,300.67 239.5,341.5C 240.5,341.833 241.167,342.5 241.5,343.5C 240.178,343.67 239.011,343.337 238,342.5C 237.5,300.835 237.333,259.168 237.5,217.5C 345.5,217.5 453.5,217.5 561.5,217.5C 561.833,259.172 561.5,300.839 560.5,342.5C 559.583,343.127 558.583,343.461 557.5,343.5 Z"/></g>
<g><path style="opacity:1" fill="#f2dddd" d="M 559.5,341.5 C 559.5,300.833 559.5,260.167 559.5,219.5C 452.833,219.5 346.167,219.5 239.5,219.5C 239.5,260.167 239.5,300.833 239.5,341.5C 238.501,300.67 238.168,259.67 238.5,218.5C 345.833,218.5 453.167,218.5 560.5,218.5C 560.832,259.67 560.499,300.67 559.5,341.5 Z"/></g>
<g><path style="opacity:1" fill="#fefdfd" d="M 559.5,341.5 C 558.5,341.833 557.833,342.5 557.5,343.5C 554.214,345.818 550.88,348.151 547.5,350.5C 545.122,351.692 543.122,353.359 541.5,355.5C 539.589,356.075 537.922,357.075 536.5,358.5C 533.883,359.786 531.55,361.453 529.5,363.5C 524.352,366.913 519.352,370.58 514.5,374.5C 510.975,375.759 507.975,377.759 505.5,380.5C 502.474,382.538 499.474,384.538 496.5,386.5C 493.879,388.118 491.546,390.118 489.5,392.5C 484.803,394.178 480.803,396.844 477.5,400.5C 473.975,401.759 470.975,403.759 468.5,406.5C 465.349,408.583 462.349,410.916 459.5,413.5C 453.777,416.687 448.443,420.354 443.5,424.5C 440.793,426.372 437.959,428.039 435,429.5C 431.801,428.402 428.967,426.736 426.5,424.5C 424.882,422.684 422.882,421.351 420.5,420.5C 418.046,418.94 415.38,417.94 412.5,417.5C 411.737,416.732 410.737,416.232 409.5,416C 398.775,414.501 388.442,415.835 378.5,420C 376.76,421.517 375.094,423.017 373.5,424.5C 370.014,425.999 367.18,428.333 365,431.5C 361.605,428.593 358.105,425.927 354.5,423.5C 353.089,421.086 351.089,419.419 348.5,418.5C 344.472,416.155 340.472,413.822 336.5,411.5C 333.905,407.874 330.572,405.208 326.5,403.5C 325.078,402.075 323.411,401.075 321.5,400.5C 320.421,398.457 318.754,397.124 316.5,396.5C 308.822,391.084 301.155,385.75 293.5,380.5C 286.72,374.726 279.387,369.726 271.5,365.5C 267.39,360.739 262.39,357.072 256.5,354.5C 254.025,351.759 251.025,349.759 247.5,348.5C 245.481,346.81 243.481,345.144 241.5,343.5C 241.167,342.5 240.5,341.833 239.5,341.5C 239.5,300.833 239.5,260.167 239.5,219.5C 346.167,219.5 452.833,219.5 559.5,219.5C 559.5,260.167 559.5,300.833 559.5,341.5 Z"/></g>
<g><path style="opacity:0.235" fill="#a70906" d="M 702.5,140.5 C 756.222,203.069 787.389,275.735 796,358.5C 802.851,432.57 790.518,503.237 759,570.5C 754.726,578.724 750.226,586.724 745.5,594.5C 760.347,567.131 772.18,538.465 781,508.5C 815.688,372.413 789.521,249.746 702.5,140.5 Z"/></g>
<g><path style="opacity:1" fill="#efd8d8" d="M 396.5,244.5 C 394.5,245.167 392.5,245.833 390.5,246.5C 386.133,246.987 381.799,247.653 377.5,248.5C 383.253,245.023 389.586,243.69 396.5,244.5 Z"/></g>
<g><path style="opacity:1" fill="#e6c7c6" d="M 419.5,244.5 C 423.182,244.335 426.848,244.501 430.5,245C 431.365,246.359 432.365,247.526 433.5,248.5C 430.574,247.539 427.574,246.873 424.5,246.5C 422.833,245.833 421.167,245.167 419.5,244.5 Z"/></g>
<g><path style="opacity:0.988" fill="#a9322c" d="M 396.5,244.5 C 404.167,244.5 411.833,244.5 419.5,244.5C 421.167,245.167 422.833,245.833 424.5,246.5C 413.167,246.5 401.833,246.5 390.5,246.5C 392.5,245.833 394.5,245.167 396.5,244.5 Z"/></g>
<g><path style="opacity:1" fill="#b2241c" d="M 390.5,246.5 C 401.833,246.5 413.167,246.5 424.5,246.5C 427.574,246.873 430.574,247.539 433.5,248.5C 434.93,249.537 436.597,250.204 438.5,250.5C 438.973,251.906 439.973,252.573 441.5,252.5C 442.833,252.833 444.167,253.167 445.5,253.5C 446.911,255.914 448.911,257.581 451.5,258.5C 452.167,258.5 452.5,258.833 452.5,259.5C 454.5,262.167 456.833,264.5 459.5,266.5C 462.418,268.877 464.418,271.877 465.5,275.5C 466.174,278.526 467.007,281.526 468,284.5C 468.671,285.252 469.504,285.586 470.5,285.5C 472.197,290.292 473.531,295.292 474.5,300.5C 475.321,312.447 473.988,324.114 470.5,335.5C 468.992,337.181 467.992,339.181 467.5,341.5C 464.742,343.379 463.075,346.046 462.5,349.5C 462.5,350.167 462.167,350.5 461.5,350.5C 459.5,351.833 457.833,353.5 456.5,355.5C 454.264,356.546 452.264,357.879 450.5,359.5C 446.748,359.951 443.415,361.284 440.5,363.5C 435.833,363.5 431.167,363.5 426.5,363.5C 423.167,360.833 420.167,357.833 417.5,354.5C 417.634,352.708 417.301,351.042 416.5,349.5C 416.663,347.143 416.497,344.81 416,342.5C 413.91,345.022 412.076,347.688 410.5,350.5C 408.5,351.833 406.833,353.5 405.5,355.5C 404.167,356.5 402.833,357.5 401.5,358.5C 399.181,358.992 397.181,359.992 395.5,361.5C 389.762,363.228 383.762,363.895 377.5,363.5C 376.22,362.069 374.553,361.402 372.5,361.5C 372.027,360.094 371.027,359.427 369.5,359.5C 367.833,357.167 365.833,355.167 363.5,353.5C 362.656,350.745 361.656,348.079 360.5,345.5C 359.314,331.257 361.981,317.924 368.5,305.5C 374.793,299.542 381.127,293.542 387.5,287.5C 389.426,285.707 391.759,284.707 394.5,284.5C 397.789,283.626 401.123,282.959 404.5,282.5C 412.201,282.309 419.868,282.642 427.5,283.5C 428.5,283.5 429.5,283.5 430.5,283.5C 430.5,283.833 430.5,284.167 430.5,284.5C 431.622,285.947 433.122,286.947 435,287.5C 434.242,297.862 432.576,308.196 430,318.5C 429.501,322.152 429.335,325.818 429.5,329.5C 429.45,333.188 429.116,336.855 428.5,340.5C 428.568,343.438 429.234,346.105 430.5,348.5C 431.385,351.658 433.552,353.325 437,353.5C 439.895,352.591 442.728,351.591 445.5,350.5C 448.652,349.221 450.652,346.888 451.5,343.5C 454.012,341.535 455.345,338.868 455.5,335.5C 457.899,331.952 459.399,327.952 460,323.5C 460.687,314.144 460.521,304.811 459.5,295.5C 459.655,292.284 458.655,289.617 456.5,287.5C 456.5,287.167 456.5,286.833 456.5,286.5C 455.921,283.669 454.588,281.336 452.5,279.5C 448.505,273.839 443.838,268.839 438.5,264.5C 437.131,260.813 434.465,259.147 430.5,259.5C 411.987,253.89 393.82,254.89 376,262.5C 373.178,265.147 370.011,267.147 366.5,268.5C 364.251,269.08 362.585,270.413 361.5,272.5C 360.167,274.5 358.5,276.167 356.5,277.5C 354.738,278.262 353.738,279.596 353.5,281.5C 351.413,282.585 350.08,284.251 349.5,286.5C 349.5,287.167 349.167,287.5 348.5,287.5C 344.038,292.204 341.704,297.87 341.5,304.5C 339.266,312.841 338.266,321.341 338.5,330C 338.299,336.083 338.966,341.916 340.5,347.5C 340.335,350.85 340.502,354.183 341,357.5C 341.72,359.056 342.887,360.056 344.5,360.5C 346.3,363.808 348.3,367.141 350.5,370.5C 352.833,374.833 356.167,378.167 360.5,380.5C 360.973,381.906 361.973,382.573 363.5,382.5C 363.973,383.906 364.973,384.573 366.5,384.5C 368.698,386.397 371.364,387.397 374.5,387.5C 376.102,389.074 378.102,389.741 380.5,389.5C 383.123,391.265 386.123,391.932 389.5,391.5C 399.484,392.709 409.151,391.709 418.5,388.5C 422.264,387.452 425.931,386.119 429.5,384.5C 431.121,386.23 432.455,388.23 433.5,390.5C 434.801,391.884 434.801,393.384 433.5,395C 415.936,402.961 397.603,405.461 378.5,402.5C 372.39,400.572 366.39,398.239 360.5,395.5C 357.291,393.735 354.291,391.735 351.5,389.5C 350.089,387.086 348.089,385.419 345.5,384.5C 343.833,383.5 342.5,382.167 341.5,380.5C 341.262,378.596 340.262,377.262 338.5,376.5C 336.11,373.434 334.11,370.1 332.5,366.5C 332.008,364.181 331.008,362.181 329.5,360.5C 327.383,354.371 325.717,348.038 324.5,341.5C 324.203,334.08 324.536,326.746 325.5,319.5C 327.454,314.608 328.454,309.274 328.5,303.5C 330.28,302.01 330.946,300.01 330.5,297.5C 332.851,291.871 335.518,286.537 338.5,281.5C 340.326,279.853 341.66,277.853 342.5,275.5C 345.805,271.859 349.138,268.192 352.5,264.5C 354.312,264.229 355.978,263.562 357.5,262.5C 359.215,260.118 361.215,258.118 363.5,256.5C 367.739,256.305 371.072,254.638 373.5,251.5C 374.833,250.5 376.167,249.5 377.5,248.5C 381.799,247.653 386.133,246.987 390.5,246.5 Z"/></g>
<g><path style="opacity:1" fill="#b46462" d="M 438.5,250.5 C 440.027,250.427 441.027,251.094 441.5,252.5C 439.973,252.573 438.973,251.906 438.5,250.5 Z"/></g>
<g><path style="opacity:0.988" fill="#b24941" d="M 373.5,251.5 C 371.072,254.638 367.739,256.305 363.5,256.5C 366.235,253.799 369.569,252.132 373.5,251.5 Z"/></g>
<g><path style="opacity:1" fill="#c98e8d" d="M 445.5,253.5 C 448.089,254.419 450.089,256.086 451.5,258.5C 448.911,257.581 446.911,255.914 445.5,253.5 Z"/></g>
<g><path style="opacity:0.988" fill="#b24b43" d="M 430.5,259.5 C 434.465,259.147 437.131,260.813 438.5,264.5C 435.489,263.331 432.822,261.664 430.5,259.5 Z"/></g>
<g><path style="opacity:1" fill="#bc7876" d="M 452.5,259.5 C 455.833,260.833 458.167,263.167 459.5,266.5C 456.833,264.5 454.5,262.167 452.5,259.5 Z"/></g>
<g><path style="opacity:1" fill="#e9cccc" d="M 223.5,331.5 C 223.167,330.833 222.833,330.167 222.5,329.5C 223.828,307.663 223.828,285.663 222.5,263.5C 220.925,264.456 219.258,265.123 217.5,265.5C 218.167,264.5 218.833,263.5 219.5,262.5C 221.044,262.297 222.378,261.63 223.5,260.5C 224.829,284.33 224.829,307.997 223.5,331.5 Z"/></g>
<g><path style="opacity:1" fill="#aa4645" d="M 223.5,331.5 C 224.829,307.997 224.829,284.33 223.5,260.5C 222.378,261.63 221.044,262.297 219.5,262.5C 220.687,260.025 222.687,259.025 225.5,259.5C 225.833,283.842 225.5,308.176 224.5,332.5C 223.893,332.376 223.56,332.043 223.5,331.5 Z"/></g>
<g><path style="opacity:1" fill="#aa4645" d="M 575.5,259.5 C 574.337,283.33 574.17,307.33 575,331.5C 575.717,330.956 576.217,330.289 576.5,329.5C 577.167,329.5 577.833,329.5 578.5,329.5C 577.599,331.727 575.933,332.727 573.5,332.5C 573.167,307.824 573.5,283.158 574.5,258.5C 575.107,258.624 575.44,258.957 575.5,259.5 Z"/></g>
<g><path style="opacity:1" fill="#e9cbcb" d="M 575.5,259.5 C 576.973,261.395 578.64,263.061 580.5,264.5C 579.07,264.579 577.736,264.246 576.5,263.5C 575.172,285.663 575.172,307.663 576.5,329.5C 576.217,330.289 575.717,330.956 575,331.5C 574.17,307.33 574.337,283.33 575.5,259.5 Z"/></g>
<g><path style="opacity:0.988" fill="#bc6661" d="M 363.5,256.5 C 361.215,258.118 359.215,260.118 357.5,262.5C 355.978,263.562 354.312,264.229 352.5,264.5C 355.321,260.68 358.988,258.013 363.5,256.5 Z"/></g>
<g><path style="opacity:1" fill="#fefcfc" d="M 222.5,329.5 C 221.833,329.5 221.167,329.5 220.5,329.5C 219.375,327.871 218.041,326.371 216.5,325C 212.104,323.098 208.104,320.598 204.5,317.5C 202.098,315.469 199.431,313.803 196.5,312.5C 192.896,309.025 188.896,306.025 184.5,303.5C 184.167,303.5 183.833,303.5 183.5,303.5C 181.494,300.827 179.161,298.494 176.5,296.5C 177.77,295.712 178.77,294.712 179.5,293.5C 186.872,287.822 194.205,282.155 201.5,276.5C 203.595,275.588 205.595,274.421 207.5,273C 208.252,272.329 208.586,271.496 208.5,270.5C 211.816,269.395 214.816,267.729 217.5,265.5C 219.258,265.123 220.925,264.456 222.5,263.5C 223.828,285.663 223.828,307.663 222.5,329.5 Z"/></g>
<g><path style="opacity:1" fill="#fefcfc" d="M 580.5,264.5 C 581.71,264.932 582.71,265.599 583.5,266.5C 583.973,267.906 584.973,268.573 586.5,268.5C 586.833,268.5 587.167,268.5 587.5,268.5C 590.236,271.901 593.569,274.568 597.5,276.5C 599.55,278.547 601.883,280.214 604.5,281.5C 606.296,283.9 608.63,285.567 611.5,286.5C 613.607,288.727 615.94,290.727 618.5,292.5C 619.262,294.262 620.596,295.262 622.5,295.5C 621.162,297.696 619.495,299.696 617.5,301.5C 616.5,302.167 615.5,302.833 614.5,303.5C 610.114,306.022 606.114,309.022 602.5,312.5C 597.053,314.877 592.386,318.21 588.5,322.5C 585.122,324.895 581.789,327.229 578.5,329.5C 577.833,329.5 577.167,329.5 576.5,329.5C 575.172,307.663 575.172,285.663 576.5,263.5C 577.736,264.246 579.07,264.579 580.5,264.5 Z"/></g>
<g><path style="opacity:1" fill="#bf7a79" d="M 583.5,266.5 C 585.027,266.427 586.027,267.094 586.5,268.5C 584.973,268.573 583.973,267.906 583.5,266.5 Z"/></g>
<g><path style="opacity:1" fill="#ad4742" d="M 219.5,262.5 C 218.833,263.5 218.167,264.5 217.5,265.5C 214.816,267.729 211.816,269.395 208.5,270.5C 211.373,266.772 215.039,264.106 219.5,262.5 Z"/></g>
<g><path style="opacity:1" fill="#c17e7d" d="M 366.5,268.5 C 365.415,270.587 363.749,271.92 361.5,272.5C 362.585,270.413 364.251,269.08 366.5,268.5 Z"/></g>
<g><path style="opacity:0.988" fill="#ad423d" d="M 587.5,268.5 C 591.697,270.025 595.031,272.692 597.5,276.5C 593.569,274.568 590.236,271.901 587.5,268.5 Z"/></g>
<g><path style="opacity:0.988" fill="#af4741" d="M 208.5,270.5 C 208.586,271.496 208.252,272.329 207.5,273C 205.595,274.421 203.595,275.588 201.5,276.5C 203.002,274.825 204.335,272.992 205.5,271C 206.448,270.517 207.448,270.351 208.5,270.5 Z"/></g>
<g><path style="opacity:1" fill="#bd7776" d="M 356.5,277.5 C 356.262,279.404 355.262,280.738 353.5,281.5C 353.738,279.596 354.738,278.262 356.5,277.5 Z"/></g>
<g><path style="opacity:1" fill="#c98c8b" d="M 342.5,275.5 C 341.66,277.853 340.326,279.853 338.5,281.5C 338.845,278.802 340.178,276.802 342.5,275.5 Z"/></g>
<g><path style="opacity:1" fill="#ac4d4b" d="M 597.5,276.5 C 600.674,277.01 603.008,278.677 604.5,281.5C 601.883,280.214 599.55,278.547 597.5,276.5 Z"/></g>
<g><path style="opacity:1" fill="#deb8b7" d="M 421.5,281.5 C 415.642,281.178 409.975,281.511 404.5,282.5C 401.123,282.959 397.789,283.626 394.5,284.5C 395.743,282.836 397.41,281.669 399.5,281C 407.012,280.178 414.345,280.345 421.5,281.5 Z"/></g>
<g><path style="opacity:1" fill="#a8413c" d="M 404.5,282.5 C 409.975,281.511 415.642,281.178 421.5,281.5C 424.01,281.054 426.01,281.72 427.5,283.5C 419.868,282.642 412.201,282.309 404.5,282.5 Z"/></g>
<g><path style="opacity:0.988" fill="#b1463e" d="M 465.5,275.5 C 467.756,278.46 469.422,281.793 470.5,285.5C 469.504,285.586 468.671,285.252 468,284.5C 467.007,281.526 466.174,278.526 465.5,275.5 Z"/></g>
<g><path style="opacity:1" fill="#aa4a47" d="M 604.5,281.5 C 607.37,282.433 609.704,284.1 611.5,286.5C 608.63,285.567 606.296,283.9 604.5,281.5 Z"/></g>
<g><path style="opacity:1" fill="#be7775" d="M 452.5,279.5 C 454.588,281.336 455.921,283.669 456.5,286.5C 454.412,284.664 453.079,282.331 452.5,279.5 Z"/></g>
<g><path style="opacity:1" fill="#b25d5b" d="M 353.5,281.5 C 352.92,283.749 351.587,285.415 349.5,286.5C 350.08,284.251 351.413,282.585 353.5,281.5 Z"/></g>
<g><path style="opacity:1" fill="#c37e7c" d="M 430.5,284.5 C 430.5,284.167 430.5,283.833 430.5,283.5C 432.937,283.756 435.271,284.423 437.5,285.5C 438.788,287.299 438.788,288.965 437.5,290.5C 437.128,286.45 434.795,284.45 430.5,284.5 Z"/></g>
<g><path style="opacity:0.988" fill="#ad3b34" d="M 348.5,287.5 C 346.372,292.345 344.705,297.345 343.5,302.5C 342.833,303.167 342.167,303.833 341.5,304.5C 341.704,297.87 344.038,292.204 348.5,287.5 Z"/></g>
<g><path style="opacity:1" fill="#ad4d4b" d="M 456.5,287.5 C 458.655,289.617 459.655,292.284 459.5,295.5C 459.167,295.5 458.833,295.5 458.5,295.5C 458.037,292.779 457.371,290.112 456.5,287.5 Z"/></g>
<g><path style="opacity:1" fill="#bc7675" d="M 618.5,292.5 C 620.404,292.738 621.738,293.738 622.5,295.5C 620.596,295.262 619.262,294.262 618.5,292.5 Z"/></g>
<g><path style="opacity:1" fill="#c58483" d="M 380.5,291.5 C 378.833,293.833 376.833,295.833 374.5,297.5C 375.5,294.5 377.5,292.5 380.5,291.5 Z"/></g>
<g><path style="opacity:0.988" fill="#ad3b34" d="M 387.5,287.5 C 381.127,293.542 374.793,299.542 368.5,305.5C 369.11,304.609 369.443,303.609 369.5,302.5C 371.395,301.027 373.061,299.36 374.5,297.5C 376.833,295.833 378.833,293.833 380.5,291.5C 382.336,289.412 384.669,288.079 387.5,287.5 Z"/></g>
<g><path style="opacity:0.988" fill="#ad3932" d="M 430.5,284.5 C 434.795,284.45 437.128,286.45 437.5,290.5C 435.284,301.763 433.284,313.097 431.5,324.5C 430.833,326.167 430.167,327.833 429.5,329.5C 429.335,325.818 429.501,322.152 430,318.5C 432.576,308.196 434.242,297.862 435,287.5C 433.122,286.947 431.622,285.947 430.5,284.5 Z"/></g>
<g><path style="opacity:1" fill="#fdfafa" d="M 417.5,295.5 C 418.209,296.404 419.209,296.737 420.5,296.5C 420.5,298.167 420.5,299.833 420.5,301.5C 418.31,310.031 416.644,318.697 415.5,327.5C 413.992,329.181 412.992,331.181 412.5,333.5C 411.094,333.973 410.427,334.973 410.5,336.5C 409.094,336.973 408.427,337.973 408.5,339.5C 406.738,340.262 405.738,341.596 405.5,343.5C 404.833,343.5 404.5,343.833 404.5,344.5C 402.251,345.08 400.585,346.413 399.5,348.5C 384.927,355.046 376.593,350.379 374.5,334.5C 374.55,330.914 375.217,327.58 376.5,324.5C 377.738,322.786 378.405,320.786 378.5,318.5C 379.379,313.624 381.713,309.624 385.5,306.5C 389.612,303.033 393.946,300.033 398.5,297.5C 399.949,295.836 401.949,295.002 404.5,295C 409.02,294.186 413.354,294.353 417.5,295.5 Z"/></g>
<g><path style="opacity:1" fill="#b55f5c" d="M 179.5,293.5 C 178.77,294.712 177.77,295.712 176.5,296.5C 179.161,298.494 181.494,300.827 183.5,303.5C 180.565,302.078 177.732,300.412 175,298.5C 174.168,294.857 175.668,293.19 179.5,293.5 Z"/></g>
<g><path style="opacity:1" fill="#b86a69" d="M 417.5,295.5 C 418.833,295.5 420.167,295.5 421.5,295.5C 421.795,297.735 421.461,299.735 420.5,301.5C 420.5,299.833 420.5,298.167 420.5,296.5C 419.209,296.737 418.209,296.404 417.5,295.5 Z"/></g>
<g><path style="opacity:1" fill="#b76462" d="M 622.5,295.5 C 624.465,295.948 624.798,296.948 623.5,298.5C 621.466,299.559 619.466,300.559 617.5,301.5C 619.495,299.696 621.162,297.696 622.5,295.5 Z"/></g>
<g><path style="opacity:1" fill="#b55d59" d="M 330.5,297.5 C 330.946,300.01 330.28,302.01 328.5,303.5C 328.595,301.214 329.262,299.214 330.5,297.5 Z"/></g>
<g><path style="opacity:1" fill="#f1dbdb" d="M 458.5,295.5 C 458.833,295.5 459.167,295.5 459.5,295.5C 460.521,304.811 460.687,314.144 460,323.5C 459.399,327.952 457.899,331.952 455.5,335.5C 458.243,322.365 459.243,309.032 458.5,295.5 Z"/></g>
<g><path style="opacity:1" fill="#c98c8a" d="M 369.5,302.5 C 369.443,303.609 369.11,304.609 368.5,305.5C 367.833,306.167 367.167,306.833 366.5,307.5C 366.273,305.067 367.273,303.401 369.5,302.5 Z"/></g>
<g><path style="opacity:1" fill="#e1bcbc" d="M 398.5,297.5 C 393.946,300.033 389.612,303.033 385.5,306.5C 388.514,301.47 392.847,298.47 398.5,297.5 Z"/></g>
<g><path style="opacity:0.988" fill="#ac443f" d="M 184.5,303.5 C 188.896,306.025 192.896,309.025 196.5,312.5C 193.189,310.844 189.855,309.178 186.5,307.5C 185.295,306.423 184.628,305.09 184.5,303.5 Z"/></g>
<g><path style="opacity:1" fill="#a33531" d="M 165.5,306.5 C 163.502,398.161 162.836,490.161 163.5,582.5C 162.501,490.335 162.167,398.002 162.5,305.5C 163.791,305.263 164.791,305.596 165.5,306.5 Z"/></g>
<g><path style="opacity:1" fill="#d5a9a9" d="M 165.5,306.5 C 165.5,306.833 165.5,307.167 165.5,307.5C 164.167,398.833 164.167,490.167 165.5,581.5C 165.158,582.338 164.492,582.672 163.5,582.5C 162.836,490.161 163.502,398.161 165.5,306.5 Z"/></g>
<g><path style="opacity:1" fill="#af524f" d="M 614.5,303.5 C 614.586,304.496 614.252,305.329 613.5,306C 609.929,308.421 606.262,310.587 602.5,312.5C 606.114,309.022 610.114,306.022 614.5,303.5 Z"/></g>
<g><path style="opacity:1" fill="#d5a9a9" d="M 633.5,581.5 C 634.499,490.335 634.833,399.002 634.5,307.5C 635.169,352.43 635.502,398.096 635.5,444.5C 635.167,490.5 634.833,536.5 634.5,582.5C 633.893,582.376 633.56,582.043 633.5,581.5 Z"/></g>
<g><path style="opacity:1" fill="#a33531" d="M 630.5,579.5 C 631.5,580.167 632.5,580.833 633.5,581.5C 633.56,582.043 633.893,582.376 634.5,582.5C 634.833,536.5 635.167,490.5 635.5,444.5C 635.502,398.096 635.169,352.43 634.5,307.5C 633.609,308.11 632.609,308.443 631.5,308.5C 632.401,306.273 634.067,305.273 636.5,305.5C 636.833,398.169 636.5,490.836 635.5,583.5C 634.914,583.709 634.414,584.043 634,584.5C 632.198,583.211 631.031,581.544 630.5,579.5 Z"/></g>
<g><path style="opacity:1" fill="#fefefe" d="M 165.5,307.5 C 169.947,311.564 174.947,314.898 180.5,317.5C 181.29,318.794 182.29,319.961 183.5,321C 189.049,324.72 194.715,328.22 200.5,331.5C 206.462,335.821 212.462,340.155 218.5,344.5C 219.579,346.543 221.246,347.876 223.5,348.5C 224.965,349.737 226.632,350.737 228.5,351.5C 228.973,352.906 229.973,353.573 231.5,353.5C 233.878,355.878 236.545,357.878 239.5,359.5C 240.872,360.512 242.205,361.512 243.5,362.5C 249.533,367.187 255.866,371.52 262.5,375.5C 265.681,377.592 268.681,379.925 271.5,382.5C 274.007,384.945 277.007,386.611 280.5,387.5C 281.475,389.193 282.808,390.693 284.5,392C 288.071,394.421 291.738,396.587 295.5,398.5C 298.32,400.745 301.32,402.745 304.5,404.5C 308.652,409.318 313.652,412.985 319.5,415.5C 321.296,417.9 323.63,419.567 326.5,420.5C 329.28,423.064 332.28,425.397 335.5,427.5C 335.973,428.906 336.973,429.573 338.5,429.5C 339.71,429.932 340.71,430.599 341.5,431.5C 343.147,433.326 345.147,434.66 347.5,435.5C 347.973,436.906 348.973,437.573 350.5,437.5C 351.058,438.79 352.058,439.623 353.5,440C 348.579,444.435 343.579,448.602 338.5,452.5C 335.883,453.786 333.55,455.453 331.5,457.5C 324.718,461.217 318.718,465.883 313.5,471.5C 311.589,472.075 309.922,473.075 308.5,474.5C 306.122,475.692 304.122,477.359 302.5,479.5C 299.883,480.786 297.55,482.453 295.5,484.5C 292.467,486.016 289.8,488.016 287.5,490.5C 283.296,492.033 279.963,494.7 277.5,498.5C 275.596,498.738 274.262,499.738 273.5,501.5C 270.63,502.433 268.296,504.1 266.5,506.5C 263.883,507.786 261.55,509.453 259.5,511.5C 255.293,513.435 251.627,516.102 248.5,519.5C 245.573,520.757 243.239,522.757 241.5,525.5C 240.833,525.5 240.167,525.5 239.5,525.5C 236.5,528.167 233.5,530.833 230.5,533.5C 227.883,534.786 225.55,536.453 223.5,538.5C 219.293,540.435 215.627,543.102 212.5,546.5C 209.573,547.757 207.239,549.757 205.5,552.5C 204.833,552.5 204.167,552.5 203.5,552.5C 201.5,553.833 199.833,555.5 198.5,557.5C 196.596,557.738 195.262,558.738 194.5,560.5C 191.63,561.433 189.296,563.1 187.5,565.5C 180.612,569.058 174.612,573.725 169.5,579.5C 167.938,579.733 166.605,580.4 165.5,581.5C 164.167,490.167 164.167,398.833 165.5,307.5 Z"/></g>
<g><path style="opacity:1" fill="#fefefe" d="M 634.5,307.5 C 634.833,399.002 634.499,490.335 633.5,581.5C 632.5,580.833 631.5,580.167 630.5,579.5C 629.833,579.167 629.167,578.833 628.5,578.5C 627.089,576.086 625.089,574.419 622.5,573.5C 619.581,571.924 616.914,569.924 614.5,567.5C 612.469,565.478 610.135,563.811 607.5,562.5C 602.804,558.479 597.804,554.812 592.5,551.5C 591.089,549.086 589.089,547.419 586.5,546.5C 583.581,544.924 580.914,542.924 578.5,540.5C 576.469,538.478 574.135,536.811 571.5,535.5C 566.804,531.479 561.804,527.812 556.5,524.5C 555.089,522.086 553.089,520.419 550.5,519.5C 540.811,511.82 530.811,504.487 520.5,497.5C 519.089,495.086 517.089,493.419 514.5,492.5C 513.395,491.4 512.062,490.733 510.5,490.5C 510.106,488.29 508.773,486.957 506.5,486.5C 494.478,477.471 482.478,468.471 470.5,459.5C 470.027,458.094 469.027,457.427 467.5,457.5C 462.064,452.399 456.064,448.066 449.5,444.5C 447.891,443.102 447.058,441.435 447,439.5C 450.887,437.647 454.053,434.98 456.5,431.5C 458.062,431.267 459.395,430.6 460.5,429.5C 462.027,429.573 463.027,428.906 463.5,427.5C 465.878,426.308 467.878,424.641 469.5,422.5C 471.853,421.66 473.853,420.326 475.5,418.5C 478.891,417.471 481.557,415.471 483.5,412.5C 488.672,409.415 493.672,406.081 498.5,402.5C 501.563,400.975 504.23,398.975 506.5,396.5C 508.777,395.551 510.777,394.218 512.5,392.5C 514.027,392.573 515.027,391.906 515.5,390.5C 522.362,385.242 529.362,380.242 536.5,375.5C 538.027,375.573 539.027,374.906 539.5,373.5C 541.816,372.194 544.15,370.861 546.5,369.5C 549.089,368.581 551.089,366.914 552.5,364.5C 559.685,359.743 566.685,354.743 573.5,349.5C 575.027,349.573 576.027,348.906 576.5,347.5C 578.027,347.573 579.027,346.906 579.5,345.5C 581.488,344.255 583.488,342.922 585.5,341.5C 587.749,340.92 589.415,339.587 590.5,337.5C 591.167,337.5 591.5,337.167 591.5,336.5C 595.025,335.241 598.025,333.241 600.5,330.5C 602.027,330.573 603.027,329.906 603.5,328.5C 605.332,327.752 606.999,326.752 608.5,325.5C 610.749,324.92 612.415,323.587 613.5,321.5C 615.027,321.573 616.027,320.906 616.5,319.5C 619.205,317.488 621.872,315.488 624.5,313.5C 626.404,313.262 627.738,312.262 628.5,310.5C 630.027,310.573 631.027,309.906 631.5,308.5C 632.609,308.443 633.609,308.11 634.5,307.5 Z"/></g>
<g><path style="opacity:1" fill="#b96d6b" d="M 628.5,310.5 C 627.738,312.262 626.404,313.262 624.5,313.5C 625.262,311.738 626.596,310.738 628.5,310.5 Z"/></g>
<g><path style="opacity:0.988" fill="#b3534e" d="M 196.5,312.5 C 199.431,313.803 202.098,315.469 204.5,317.5C 201.046,316.925 198.379,315.258 196.5,312.5 Z"/></g>
<g><path style="opacity:0.988" fill="#ae413a" d="M 328.5,303.5 C 328.454,309.274 327.454,314.608 325.5,319.5C 325.704,316.482 326.037,313.482 326.5,310.5C 326.41,307.848 327.076,305.515 328.5,303.5 Z"/></g>
<g><path style="opacity:1" fill="#f3e0e0" d="M 343.5,302.5 C 340.805,317.353 339.805,332.353 340.5,347.5C 338.966,341.916 338.299,336.083 338.5,330C 338.266,321.341 339.266,312.841 341.5,304.5C 342.167,303.833 342.833,303.167 343.5,302.5 Z"/></g>
<g><path style="opacity:0.988" fill="#ae4741" d="M 180.5,317.5 C 185.452,319.267 189.785,322.1 193.5,326C 195.087,326.862 196.754,327.529 198.5,328C 199.823,328.816 200.489,329.983 200.5,331.5C 194.715,328.22 189.049,324.72 183.5,321C 182.29,319.961 181.29,318.794 180.5,317.5 Z"/></g>
<g><path style="opacity:1" fill="#daacab" d="M 378.5,318.5 C 378.405,320.786 377.738,322.786 376.5,324.5C 376.025,321.918 376.692,319.918 378.5,318.5 Z"/></g>
<g><path style="opacity:0.988" fill="#af453e" d="M 602.5,312.5 C 602.489,314.017 601.823,315.184 600.5,316C 596.825,318.86 592.825,321.027 588.5,322.5C 592.386,318.21 597.053,314.877 602.5,312.5 Z"/></g>
<g><path style="opacity:1" fill="#eed6d6" d="M 474.5,300.5 C 476.129,311.798 475.629,323.131 473,334.5C 472.329,335.252 471.496,335.586 470.5,335.5C 473.988,324.114 475.321,312.447 474.5,300.5 Z"/></g>
<g><path style="opacity:1" fill="#c38685" d="M 616.5,319.5 C 616.027,320.906 615.027,321.573 613.5,321.5C 613.973,320.094 614.973,319.427 616.5,319.5 Z"/></g>
<g><path style="opacity:1" fill="#ebd0d0" d="M 326.5,310.5 C 326.037,313.482 325.704,316.482 325.5,319.5C 324.536,326.746 324.203,334.08 324.5,341.5C 323.342,332.343 323.176,323.009 324,313.5C 324.236,311.881 325.069,310.881 326.5,310.5 Z"/></g>
<g><path style="opacity:0.988" fill="#ad433c" d="M 204.5,317.5 C 208.104,320.598 212.104,323.098 216.5,325C 218.041,326.371 219.375,327.871 220.5,329.5C 216.475,326.728 212.141,324.394 207.5,322.5C 206.048,321.06 205.048,319.394 204.5,317.5 Z"/></g>
<g><path style="opacity:0.988" fill="#ae3d36" d="M 368.5,305.5 C 361.981,317.924 359.314,331.257 360.5,345.5C 358.577,340.439 358.077,335.105 359,329.5C 360.124,323.791 361.458,318.125 363,312.5C 363.697,310.416 364.864,308.749 366.5,307.5C 367.167,306.833 367.833,306.167 368.5,305.5 Z"/></g>
<g><path style="opacity:1" fill="#d39c9b" d="M 613.5,321.5 C 612.415,323.587 610.749,324.92 608.5,325.5C 608.833,324.833 609.167,324.167 609.5,323.5C 610.467,322.194 611.801,321.527 613.5,321.5 Z"/></g>
<g><path style="opacity:1" fill="#ad4e4b" d="M 609.5,323.5 C 609.167,324.167 608.833,324.833 608.5,325.5C 606.999,326.752 605.332,327.752 603.5,328.5C 604.865,326.14 606.865,324.473 609.5,323.5 Z"/></g>
<g><path style="opacity:1" fill="#bc7170" d="M 603.5,328.5 C 603.027,329.906 602.027,330.573 600.5,330.5C 600.973,329.094 601.973,328.427 603.5,328.5 Z"/></g>
<g><path style="opacity:1" fill="#edd4d4" d="M 431.5,324.5 C 430.977,332.49 430.644,340.49 430.5,348.5C 429.234,346.105 428.568,343.438 428.5,340.5C 429.116,336.855 429.45,333.188 429.5,329.5C 430.167,327.833 430.833,326.167 431.5,324.5 Z"/></g>
<g><path style="opacity:1" fill="#ac4c4a" d="M 415.5,327.5 C 415.539,330.089 414.539,332.089 412.5,333.5C 412.992,331.181 413.992,329.181 415.5,327.5 Z"/></g>
<g><path style="opacity:0.988" fill="#b14740" d="M 600.5,330.5 C 598.025,333.241 595.025,335.241 591.5,336.5C 592.963,332.264 595.963,330.264 600.5,330.5 Z"/></g>
<g><path style="opacity:1" fill="#be7776" d="M 412.5,333.5 C 412.573,335.027 411.906,336.027 410.5,336.5C 410.427,334.973 411.094,333.973 412.5,333.5 Z"/></g>
<g><path style="opacity:1" fill="#c48180" d="M 410.5,336.5 C 410.573,338.027 409.906,339.027 408.5,339.5C 408.427,337.973 409.094,336.973 410.5,336.5 Z"/></g>
<g><path style="opacity:1" fill="#c37f7e" d="M 470.5,335.5 C 470.539,338.089 469.539,340.089 467.5,341.5C 467.992,339.181 468.992,337.181 470.5,335.5 Z"/></g>
<g><path style="opacity:1" fill="#c98987" d="M 590.5,337.5 C 589.415,339.587 587.749,340.92 585.5,341.5C 586.27,339.065 587.937,337.731 590.5,337.5 Z"/></g>
<g><path style="opacity:1" fill="#bb7371" d="M 408.5,339.5 C 408.262,341.404 407.262,342.738 405.5,343.5C 405.738,341.596 406.738,340.262 408.5,339.5 Z"/></g>
<g><path style="opacity:0.988" fill="#b65953" d="M 467.5,341.5 C 466.831,344.849 465.164,347.516 462.5,349.5C 463.075,346.046 464.742,343.379 467.5,341.5 Z"/></g>
<g><path style="opacity:1" fill="#bb6b69" d="M 218.5,344.5 C 220.795,345.136 222.461,346.469 223.5,348.5C 221.246,347.876 219.579,346.543 218.5,344.5 Z"/></g>
<g><path style="opacity:1" fill="#bb7270" d="M 404.5,344.5 C 403.415,346.587 401.749,347.92 399.5,348.5C 400.585,346.413 402.251,345.08 404.5,344.5 Z"/></g>
<g><path style="opacity:1" fill="#c98b8a" d="M 416.5,349.5 C 415.71,348.391 415.21,347.058 415,345.5C 414.388,348.115 412.888,349.781 410.5,350.5C 412.076,347.688 413.91,345.022 416,342.5C 416.497,344.81 416.663,347.143 416.5,349.5 Z"/></g>
<g><path style="opacity:1" fill="#b96865" d="M 579.5,345.5 C 579.027,346.906 578.027,347.573 576.5,347.5C 576.821,345.952 577.821,345.285 579.5,345.5 Z"/></g>
<g><path style="opacity:1" fill="#b96765" d="M 451.5,343.5 C 450.652,346.888 448.652,349.221 445.5,350.5C 447.273,347.94 449.273,345.607 451.5,343.5 Z"/></g>
<g><path style="opacity:1" fill="#bd7371" d="M 576.5,347.5 C 576.027,348.906 575.027,349.573 573.5,349.5C 573.821,347.952 574.821,347.285 576.5,347.5 Z"/></g>
<g><path style="opacity:1" fill="#b56361" d="M 228.5,351.5 C 230.027,351.427 231.027,352.094 231.5,353.5C 229.973,353.573 228.973,352.906 228.5,351.5 Z"/></g>
<g><path style="opacity:1" fill="#a93e3a" d="M 247.5,348.5 C 251.025,349.759 254.025,351.759 256.5,354.5C 252.592,353.723 249.592,351.723 247.5,348.5 Z"/></g>
<g><path style="opacity:1" fill="#af524f" d="M 547.5,350.5 C 546.288,353.107 544.288,354.774 541.5,355.5C 543.122,353.359 545.122,351.692 547.5,350.5 Z"/></g>
<g><path style="opacity:1" fill="#b05653" d="M 231.5,353.5 C 235.046,354.385 237.712,356.385 239.5,359.5C 236.545,357.878 233.878,355.878 231.5,353.5 Z"/></g>
<g><path style="opacity:1" fill="#c98e8e" d="M 363.5,353.5 C 365.833,355.167 367.833,357.167 369.5,359.5C 366.5,358.5 364.5,356.5 363.5,353.5 Z"/></g>
<g><path style="opacity:0.988" fill="#b5534b" d="M 340.5,347.5 C 341.41,351.902 342.744,356.236 344.5,360.5C 342.887,360.056 341.72,359.056 341,357.5C 340.502,354.183 340.335,350.85 340.5,347.5 Z"/></g>
<g><path style="opacity:1" fill="#c68988" d="M 410.5,350.5 C 409.833,353.167 408.167,354.833 405.5,355.5C 406.833,353.5 408.5,351.833 410.5,350.5 Z"/></g>
<g><path style="opacity:1" fill="#c07f7e" d="M 461.5,350.5 C 460.833,353.167 459.167,354.833 456.5,355.5C 457.833,353.5 459.5,351.833 461.5,350.5 Z"/></g>
<g><path style="opacity:1" fill="#bf7674" d="M 417.5,354.5 C 420.167,357.833 423.167,360.833 426.5,363.5C 425.07,363.579 423.736,363.246 422.5,362.5C 419.945,360.301 418.279,357.634 417.5,354.5 Z"/></g>
<g><path style="opacity:1" fill="#c48381" d="M 456.5,355.5 C 455.366,358.034 453.366,359.367 450.5,359.5C 452.264,357.879 454.264,356.546 456.5,355.5 Z"/></g>
<g><path style="opacity:1" fill="#b76b6a" d="M 401.5,358.5 C 400.089,360.539 398.089,361.539 395.5,361.5C 397.181,359.992 399.181,358.992 401.5,358.5 Z"/></g>
<g><path style="opacity:0.988" fill="#b85952" d="M 450.5,359.5 C 447.66,361.915 444.327,363.248 440.5,363.5C 443.415,361.284 446.748,359.951 450.5,359.5 Z"/></g>
<g><path style="opacity:1" fill="#c27f7e" d="M 369.5,359.5 C 371.027,359.427 372.027,360.094 372.5,361.5C 370.973,361.573 369.973,360.906 369.5,359.5 Z"/></g>
<g><path style="opacity:1" fill="#af4f4b" d="M 256.5,354.5 C 262.39,357.072 267.39,360.739 271.5,365.5C 267.883,362.685 263.883,360.352 259.5,358.5C 258.476,357.148 257.476,355.815 256.5,354.5 Z"/></g>
<g><path style="opacity:1" fill="#b96b69" d="M 329.5,360.5 C 331.008,362.181 332.008,364.181 332.5,366.5C 330.461,365.089 329.461,363.089 329.5,360.5 Z"/></g>
<g><path style="opacity:1" fill="#b15957" d="M 536.5,358.5 C 535.008,361.323 532.674,362.99 529.5,363.5C 531.55,361.453 533.883,359.786 536.5,358.5 Z"/></g>
<g><path style="opacity:1" fill="#c88f8e" d="M 372.5,361.5 C 374.553,361.402 376.22,362.069 377.5,363.5C 375.447,363.598 373.78,362.931 372.5,361.5 Z"/></g>
<g><path style="opacity:1" fill="#deb3b1" d="M 552.5,364.5 C 551.089,366.914 549.089,368.581 546.5,369.5C 547.167,368.5 547.833,367.5 548.5,366.5C 549.467,365.194 550.801,364.527 552.5,364.5 Z"/></g>
<g><path style="opacity:1" fill="#ad4e4c" d="M 548.5,366.5 C 547.833,367.5 547.167,368.5 546.5,369.5C 544.15,370.861 541.816,372.194 539.5,373.5C 541.949,370.444 544.949,368.111 548.5,366.5 Z"/></g>
<g><path style="opacity:1" fill="#b1544f" d="M 243.5,362.5 C 245.564,362.687 247.564,363.187 249.5,364C 254.002,367.67 258.335,371.503 262.5,375.5C 255.866,371.52 249.533,367.187 243.5,362.5 Z"/></g>
<g><path style="opacity:1" fill="#aa3d38" d="M 271.5,365.5 C 279.387,369.726 286.72,374.726 293.5,380.5C 290.298,378.822 286.965,377.322 283.5,376C 280.88,372.806 277.546,370.473 273.5,369C 272.695,367.887 272.028,366.721 271.5,365.5 Z"/></g>
<g><path style="opacity:1" fill="#bb7573" d="M 350.5,370.5 C 354.167,373.5 357.5,376.833 360.5,380.5C 356.167,378.167 352.833,374.833 350.5,370.5 Z"/></g>
<g><path style="opacity:1" fill="#be7876" d="M 539.5,373.5 C 539.027,374.906 538.027,375.573 536.5,375.5C 536.973,374.094 537.973,373.427 539.5,373.5 Z"/></g>
<g><path style="opacity:1" fill="#be7978" d="M 338.5,376.5 C 340.262,377.262 341.262,378.596 341.5,380.5C 339.738,379.738 338.738,378.404 338.5,376.5 Z"/></g>
<g><path style="opacity:1" fill="#ac4d4a" d="M 514.5,374.5 C 512.049,377.277 509.049,379.277 505.5,380.5C 507.975,377.759 510.975,375.759 514.5,374.5 Z"/></g>
<g><path style="opacity:1" fill="#c07a79" d="M 360.5,380.5 C 362.027,380.427 363.027,381.094 363.5,382.5C 361.973,382.573 360.973,381.906 360.5,380.5 Z"/></g>
<g><path style="opacity:1" fill="#b25854" d="M 271.5,382.5 C 275.222,382.861 278.222,384.528 280.5,387.5C 277.007,386.611 274.007,384.945 271.5,382.5 Z"/></g>
<g><path style="opacity:1" fill="#be7776" d="M 363.5,382.5 C 365.027,382.427 366.027,383.094 366.5,384.5C 364.973,384.573 363.973,383.906 363.5,382.5 Z"/></g>
<g><path style="opacity:1" fill="#ac4a45" d="M 505.5,380.5 C 503.573,384.092 500.573,386.092 496.5,386.5C 499.474,384.538 502.474,382.538 505.5,380.5 Z"/></g>
<g><path style="opacity:1" fill="#c88a88" d="M 366.5,384.5 C 369.486,384.903 372.152,385.903 374.5,387.5C 371.364,387.397 368.698,386.397 366.5,384.5 Z"/></g>
<g><path style="opacity:1" fill="#b56360" d="M 345.5,384.5 C 348.089,385.419 350.089,387.086 351.5,389.5C 348.911,388.581 346.911,386.914 345.5,384.5 Z"/></g>
<g><path style="opacity:0.988" fill="#ad423b" d="M 280.5,387.5 C 282.308,387.491 283.975,387.991 285.5,389C 288.96,392.146 292.293,395.313 295.5,398.5C 291.738,396.587 288.071,394.421 284.5,392C 282.808,390.693 281.475,389.193 280.5,387.5 Z"/></g>
<g><path style="opacity:1" fill="#c68583" d="M 429.5,384.5 C 430.209,383.596 431.209,383.263 432.5,383.5C 432.674,385.861 433.007,388.194 433.5,390.5C 432.455,388.23 431.121,386.23 429.5,384.5 Z"/></g>
<g><path style="opacity:1" fill="#bc6e6c" d="M 380.5,389.5 C 383.689,389.858 386.689,390.525 389.5,391.5C 386.123,391.932 383.123,391.265 380.5,389.5 Z"/></g>
<g><path style="opacity:1" fill="#ebcdcc" d="M 374.5,387.5 C 382.117,389.12 389.617,390.12 397,390.5C 400.243,390.693 403.243,390.027 406,388.5C 410.015,388.697 414.182,388.697 418.5,388.5C 409.151,391.709 399.484,392.709 389.5,391.5C 386.689,390.525 383.689,389.858 380.5,389.5C 378.102,389.741 376.102,389.074 374.5,387.5 Z"/></g>
<g><path style="opacity:1" fill="#ba6c6a" d="M 515.5,390.5 C 515.027,391.906 514.027,392.573 512.5,392.5C 512.973,391.094 513.973,390.427 515.5,390.5 Z"/></g>
<g><path style="opacity:0.988" fill="#aa3b36" d="M 489.5,392.5 C 487.456,394.711 485.123,396.711 482.5,398.5C 480.978,399.562 479.312,400.229 477.5,400.5C 480.803,396.844 484.803,394.178 489.5,392.5 Z"/></g>
<g><path style="opacity:1" fill="#ac504e" d="M 512.5,392.5 C 510.777,394.218 508.777,395.551 506.5,396.5C 507.708,393.956 509.708,392.622 512.5,392.5 Z"/></g>
<g><path style="opacity:0.988" fill="#ad3e37" d="M 506.5,396.5 C 504.23,398.975 501.563,400.975 498.5,402.5C 499.701,398.642 502.367,396.642 506.5,396.5 Z"/></g>
<g><path style="opacity:1" fill="#a94743" d="M 316.5,396.5 C 318.754,397.124 320.421,398.457 321.5,400.5C 319.205,399.864 317.539,398.531 316.5,396.5 Z"/></g>
<g><path style="opacity:1" fill="#efd8d8" d="M 360.5,395.5 C 366.39,398.239 372.39,400.572 378.5,402.5C 371.125,403.179 365.125,400.845 360.5,395.5 Z"/></g>
<g><path style="opacity:0.988" fill="#af453e" d="M 477.5,400.5 C 476.037,404.736 473.037,406.736 468.5,406.5C 470.975,403.759 473.975,401.759 477.5,400.5 Z"/></g>
<g><path style="opacity:1" fill="#b05350" d="M 326.5,403.5 C 330.572,405.208 333.905,407.874 336.5,411.5C 332.428,409.792 329.095,407.126 326.5,403.5 Z"/></g>
<g><path style="opacity:0.988" fill="#b14c45" d="M 304.5,404.5 C 310.755,406.46 315.755,410.127 319.5,415.5C 313.652,412.985 308.652,409.318 304.5,404.5 Z"/></g>
<g><path style="opacity:1" fill="#af5553" d="M 483.5,412.5 C 481.557,415.471 478.891,417.471 475.5,418.5C 477.8,416.016 480.467,414.016 483.5,412.5 Z"/></g>
<g><path style="opacity:0.988" fill="#ab3b35" d="M 459.5,413.5 C 458.972,414.721 458.305,415.887 457.5,417C 453.162,420.185 448.496,422.685 443.5,424.5C 448.443,420.354 453.777,416.687 459.5,413.5 Z"/></g>
<g><path style="opacity:1" fill="#b46160" d="M 319.5,415.5 C 322.37,416.433 324.704,418.1 326.5,420.5C 323.63,419.567 321.296,417.9 319.5,415.5 Z"/></g>
<g><path style="opacity:0.988" fill="#ab3933" d="M 412.5,417.5 C 398.698,416.056 385.698,418.389 373.5,424.5C 375.094,423.017 376.76,421.517 378.5,420C 388.442,415.835 398.775,414.501 409.5,416C 410.737,416.232 411.737,416.732 412.5,417.5 Z"/></g>
<g><path style="opacity:1" fill="#c88583" d="M 348.5,418.5 C 351.089,419.419 353.089,421.086 354.5,423.5C 351.911,422.581 349.911,420.914 348.5,418.5 Z"/></g>
<g><path style="opacity:1" fill="#ad5350" d="M 420.5,420.5 C 422.882,421.351 424.882,422.684 426.5,424.5C 423.733,424.13 421.733,422.796 420.5,420.5 Z"/></g>
<g><path style="opacity:1" fill="#b05451" d="M 469.5,422.5 C 467.878,424.641 465.878,426.308 463.5,427.5C 464.712,424.893 466.712,423.226 469.5,422.5 Z"/></g>
<g><path style="opacity:1" fill="#c99190" d="M 335.5,427.5 C 337.027,427.427 338.027,428.094 338.5,429.5C 336.973,429.573 335.973,428.906 335.5,427.5 Z"/></g>
<g><path style="opacity:1" fill="#c07b79" d="M 463.5,427.5 C 463.027,428.906 462.027,429.573 460.5,429.5C 460.821,427.952 461.821,427.285 463.5,427.5 Z"/></g>
<g><path style="opacity:1" fill="#fefefe" d="M 407.5,431.5 C 411.791,434.101 416.124,436.767 420.5,439.5C 421.167,439.5 421.5,439.833 421.5,440.5C 425.806,444.321 430.473,447.655 435.5,450.5C 437.296,452.9 439.63,454.567 442.5,455.5C 443.262,457.262 444.596,458.262 446.5,458.5C 449.064,462.737 452.73,465.403 457.5,466.5C 457.5,466.833 457.5,467.167 457.5,467.5C 459.55,469.547 461.883,471.214 464.5,472.5C 466.55,474.547 468.883,476.214 471.5,477.5C 473.296,479.9 475.63,481.567 478.5,482.5C 479.527,484.194 480.861,485.527 482.5,486.5C 485.257,489.579 488.59,491.912 492.5,493.5C 493.167,493.5 493.5,493.833 493.5,494.5C 495.55,496.547 497.883,498.214 500.5,499.5C 502.55,501.547 504.883,503.214 507.5,504.5C 509.296,506.9 511.63,508.567 514.5,509.5C 515.527,511.194 516.861,512.527 518.5,513.5C 521.061,516.717 524.395,518.717 528.5,519.5C 528.5,519.833 528.5,520.167 528.5,520.5C 530.55,522.547 532.883,524.214 535.5,525.5C 535.973,526.906 536.973,527.573 538.5,527.5C 540.8,529.984 543.467,531.984 546.5,533.5C 549.943,536.729 553.61,539.729 557.5,542.5C 557.973,543.906 558.973,544.573 560.5,544.5C 570.196,552.188 580.196,559.521 590.5,566.5C 591.585,568.587 593.251,569.92 595.5,570.5C 596.167,570.833 596.833,571.167 597.5,571.5C 598.911,573.914 600.911,575.581 603.5,576.5C 610.861,582.521 618.528,588.187 626.5,593.5C 627.5,595.167 628.833,596.5 630.5,597.5C 476.5,598.833 322.5,598.833 168.5,597.5C 172.065,594.037 176.065,591.037 180.5,588.5C 181.833,587.833 182.833,586.833 183.5,585.5C 186.784,583.883 189.451,581.55 191.5,578.5C 195.844,577.657 199.177,575.324 201.5,571.5C 203.332,570.752 204.999,569.752 206.5,568.5C 210.857,565.136 215.191,561.802 219.5,558.5C 222.784,556.883 225.451,554.55 227.5,551.5C 229.783,551.392 231.783,550.559 233.5,549C 234.252,548.329 234.586,547.496 234.5,546.5C 241.268,542.247 247.934,537.747 254.5,533C 257.666,531 260.332,528.5 262.5,525.5C 266.015,524.655 268.681,522.655 270.5,519.5C 272.062,519.267 273.395,518.6 274.5,517.5C 276.404,517.262 277.738,516.262 278.5,514.5C 281.473,512.853 284.14,510.853 286.5,508.5C 288.754,507.876 290.421,506.543 291.5,504.5C 294.117,503.214 296.45,501.547 298.5,499.5C 301.117,498.214 303.45,496.547 305.5,494.5C 305.842,493.662 306.508,493.328 307.5,493.5C 310.089,492.581 312.089,490.914 313.5,488.5C 316.72,486.397 319.72,484.064 322.5,481.5C 324.754,480.876 326.421,479.543 327.5,477.5C 330.117,476.214 332.45,474.547 334.5,472.5C 337.117,471.214 339.45,469.547 341.5,467.5C 341.5,467.167 341.5,466.833 341.5,466.5C 344.671,465.564 347.338,463.897 349.5,461.5C 352.72,459.397 355.72,457.064 358.5,454.5C 360.754,453.876 362.421,452.543 363.5,450.5C 366.117,449.214 368.45,447.547 370.5,445.5C 373.427,444.243 375.761,442.243 377.5,439.5C 378.552,439.649 379.552,439.483 380.5,439C 383.123,435.213 386.789,432.88 391.5,432C 396.781,430.254 402.114,430.087 407.5,431.5 Z"/></g>
<g><path style="opacity:0.988" fill="#af433c" d="M 407.5,431.5 C 413.584,431.373 417.917,434.04 420.5,439.5C 416.124,436.767 411.791,434.101 407.5,431.5 Z"/></g>
<g><path style="opacity:1" fill="#af5552" d="M 341.5,431.5 C 344.292,431.622 346.292,432.956 347.5,435.5C 345.147,434.66 343.147,433.326 341.5,431.5 Z"/></g>
<g><path style="opacity:1" fill="#b66765" d="M 347.5,435.5 C 349.027,435.427 350.027,436.094 350.5,437.5C 348.973,437.573 347.973,436.906 347.5,435.5 Z"/></g>
<g><path style="opacity:0.988" fill="#ae4039" d="M 456.5,431.5 C 454.053,434.98 450.887,437.647 447,439.5C 447.058,441.435 447.891,443.102 449.5,444.5C 444.815,444.058 443.482,441.724 445.5,437.5C 448.743,434.75 452.41,432.75 456.5,431.5 Z"/></g>
<g><path style="opacity:1" fill="#ae5351" d="M 377.5,439.5 C 375.761,442.243 373.427,444.243 370.5,445.5C 372.239,442.757 374.573,440.757 377.5,439.5 Z"/></g>
<g><path style="opacity:0.988" fill="#ae443e" d="M 421.5,440.5 C 427.579,441.871 432.245,445.205 435.5,450.5C 430.473,447.655 425.806,444.321 421.5,440.5 Z"/></g>
<g><path style="opacity:1" fill="#ad5351" d="M 363.5,450.5 C 362.421,452.543 360.754,453.876 358.5,454.5C 359.539,452.469 361.205,451.136 363.5,450.5 Z"/></g>
<g><path style="opacity:1" fill="#ad514f" d="M 435.5,450.5 C 438.37,451.433 440.704,453.1 442.5,455.5C 439.63,454.567 437.296,452.9 435.5,450.5 Z"/></g>
<g><path style="opacity:1" fill="#af5250" d="M 338.5,452.5 C 337.008,455.323 334.674,456.99 331.5,457.5C 333.55,455.453 335.883,453.786 338.5,452.5 Z"/></g>
<g><path style="opacity:1" fill="#b86866" d="M 467.5,457.5 C 469.027,457.427 470.027,458.094 470.5,459.5C 468.973,459.573 467.973,458.906 467.5,457.5 Z"/></g>
<g><path style="opacity:0.988" fill="#ae4740" d="M 446.5,458.5 C 451.295,459.63 454.961,462.296 457.5,466.5C 452.73,465.403 449.064,462.737 446.5,458.5 Z"/></g>
<g><path style="opacity:0.988" fill="#ac413b" d="M 331.5,457.5 C 326.947,464.056 320.947,468.722 313.5,471.5C 318.718,465.883 324.718,461.217 331.5,457.5 Z"/></g>
<g><path style="opacity:1" fill="#b25753" d="M 349.5,461.5 C 347.338,463.897 344.671,465.564 341.5,466.5C 343.662,464.103 346.329,462.436 349.5,461.5 Z"/></g>
<g><path style="opacity:1" fill="#b55e5b" d="M 341.5,467.5 C 339.45,469.547 337.117,471.214 334.5,472.5C 336.023,469.636 338.357,467.969 341.5,467.5 Z"/></g>
<g><path style="opacity:1" fill="#b45d5a" d="M 457.5,467.5 C 460.643,467.969 462.977,469.636 464.5,472.5C 461.883,471.214 459.55,469.547 457.5,467.5 Z"/></g>
<g><path style="opacity:1" fill="#ae504e" d="M 464.5,472.5 C 467.643,472.969 469.977,474.636 471.5,477.5C 468.883,476.214 466.55,474.547 464.5,472.5 Z"/></g>
<g><path style="opacity:1" fill="#ae5452" d="M 334.5,472.5 C 332.45,474.547 330.117,476.214 327.5,477.5C 329.023,474.636 331.357,472.969 334.5,472.5 Z"/></g>
<g><path style="opacity:1" fill="#ae524f" d="M 308.5,474.5 C 307.288,477.107 305.288,478.774 302.5,479.5C 304.122,477.359 306.122,475.692 308.5,474.5 Z"/></g>
<g><path style="opacity:1" fill="#b05958" d="M 327.5,477.5 C 326.421,479.543 324.754,480.876 322.5,481.5C 323.539,479.469 325.205,478.136 327.5,477.5 Z"/></g>
<g><path style="opacity:1" fill="#ae5250" d="M 471.5,477.5 C 474.37,478.433 476.704,480.1 478.5,482.5C 475.63,481.567 473.296,479.9 471.5,477.5 Z"/></g>
<g><path style="opacity:1" fill="#af5250" d="M 302.5,479.5 C 301.008,482.323 298.674,483.99 295.5,484.5C 297.55,482.453 299.883,480.786 302.5,479.5 Z"/></g>
<g><path style="opacity:1" fill="#b05653" d="M 295.5,484.5 C 293.557,487.471 290.891,489.471 287.5,490.5C 289.8,488.016 292.467,486.016 295.5,484.5 Z"/></g>
<g><path style="opacity:0.988" fill="#b25049" d="M 482.5,486.5 C 487.544,486.563 490.877,488.897 492.5,493.5C 488.59,491.912 485.257,489.579 482.5,486.5 Z"/></g>
<g><path style="opacity:1" fill="#ab4a46" d="M 506.5,486.5 C 508.773,486.957 510.106,488.29 510.5,490.5C 508.167,490.167 506.833,488.833 506.5,486.5 Z"/></g>
<g><path style="opacity:1" fill="#dbb1b1" d="M 313.5,488.5 C 312.089,490.914 310.089,492.581 307.5,493.5C 308.911,491.086 310.911,489.419 313.5,488.5 Z"/></g>
<g><path style="opacity:1" fill="#b55e5b" d="M 305.5,494.5 C 303.45,496.547 301.117,498.214 298.5,499.5C 300.023,496.636 302.357,494.969 305.5,494.5 Z"/></g>
<g><path style="opacity:1" fill="#b35b58" d="M 493.5,494.5 C 496.714,494.94 499.047,496.606 500.5,499.5C 497.883,498.214 495.55,496.547 493.5,494.5 Z"/></g>
<g><path style="opacity:1" fill="#ad4e4b" d="M 514.5,492.5 C 517.089,493.419 519.089,495.086 520.5,497.5C 517.712,496.774 515.712,495.107 514.5,492.5 Z"/></g>
<g><path style="opacity:1" fill="#ad4a45" d="M 287.5,490.5 C 286.883,492.229 285.883,493.729 284.5,495C 282.03,495.989 279.697,497.155 277.5,498.5C 279.963,494.7 283.296,492.033 287.5,490.5 Z"/></g>
<g><path style="opacity:1" fill="#ae504e" d="M 500.5,499.5 C 503.643,499.969 505.977,501.636 507.5,504.5C 504.883,503.214 502.55,501.547 500.5,499.5 Z"/></g>
<g><path style="opacity:1" fill="#ad514f" d="M 298.5,499.5 C 296.45,501.547 294.117,503.214 291.5,504.5C 293.023,501.636 295.357,499.969 298.5,499.5 Z"/></g>
<g><path style="opacity:1" fill="#aa4846" d="M 273.5,501.5 C 271.704,503.9 269.37,505.567 266.5,506.5C 268.296,504.1 270.63,502.433 273.5,501.5 Z"/></g>
<g><path style="opacity:1" fill="#b4605e" d="M 291.5,504.5 C 290.421,506.543 288.754,507.876 286.5,508.5C 287.539,506.469 289.205,505.136 291.5,504.5 Z"/></g>
<g><path style="opacity:1" fill="#af5452" d="M 507.5,504.5 C 510.37,505.433 512.704,507.1 514.5,509.5C 511.63,508.567 509.296,506.9 507.5,504.5 Z"/></g>
<g><path style="opacity:1" fill="#af514f" d="M 266.5,506.5 C 265.008,509.323 262.674,510.99 259.5,511.5C 261.55,509.453 263.883,507.786 266.5,506.5 Z"/></g>
<g><path style="opacity:0.988" fill="#b3534c" d="M 518.5,513.5 C 520.5,513.833 522.5,514.167 524.5,514.5C 524.5,515.5 524.5,516.5 524.5,517.5C 526.38,517.229 527.713,517.896 528.5,519.5C 524.395,518.717 521.061,516.717 518.5,513.5 Z"/></g>
<g><path style="opacity:1" fill="#be7c7b" d="M 278.5,514.5 C 277.738,516.262 276.404,517.262 274.5,517.5C 275.262,515.738 276.596,514.738 278.5,514.5 Z"/></g>
<g><path style="opacity:0.988" fill="#b14f49" d="M 259.5,511.5 C 256.633,515.382 252.966,518.049 248.5,519.5C 251.627,516.102 255.293,513.435 259.5,511.5 Z"/></g>
<g><path style="opacity:0.749" fill="#a70906" d="M 96.5,140.5 C 50.8102,196.284 21.3102,259.951 8,331.5C -10.3409,457.43 21.6591,568.43 104,664.5C 177.872,743.185 268.706,786.518 376.5,794.5C 376.918,795.222 377.584,795.722 378.5,796C 376.942,796.21 375.609,796.71 374.5,797.5C 373.5,797.5 372.5,797.5 371.5,797.5C 265.357,787.011 175.857,743.011 103,665.5C 15.9753,563.756 -15.0247,446.756 10,314.5C 24.3076,248.886 53.1409,190.886 96.5,140.5 Z"/></g>
<g><path style="opacity:0.988" fill="#ad3f38" d="M 270.5,519.5 C 268.681,522.655 266.015,524.655 262.5,525.5C 262.414,524.504 262.748,523.671 263.5,523C 265.591,521.274 267.924,520.107 270.5,519.5 Z"/></g>
<g><path style="opacity:1" fill="#ad4f4c" d="M 528.5,520.5 C 531.719,521.069 534.052,522.736 535.5,525.5C 532.883,524.214 530.55,522.547 528.5,520.5 Z"/></g>
<g><path style="opacity:1" fill="#b15653" d="M 550.5,519.5 C 553.089,520.419 555.089,522.086 556.5,524.5C 553.712,523.774 551.712,522.107 550.5,519.5 Z"/></g>
<g><path style="opacity:1" fill="#ad4e4a" d="M 248.5,519.5 C 246.761,522.243 244.427,524.243 241.5,525.5C 243.239,522.757 245.573,520.757 248.5,519.5 Z"/></g>
<g><path style="opacity:0.988" fill="#ac3d37" d="M 538.5,527.5 C 542.294,528.028 544.961,530.028 546.5,533.5C 543.467,531.984 540.8,529.984 538.5,527.5 Z"/></g>
<g><path style="opacity:1" fill="#ad4e4a" d="M 239.5,525.5 C 237.81,529.518 234.81,532.184 230.5,533.5C 233.5,530.833 236.5,528.167 239.5,525.5 Z"/></g>
<g><path style="opacity:1" fill="#b05351" d="M 230.5,533.5 C 229.008,536.323 226.674,537.99 223.5,538.5C 225.55,536.453 227.883,534.786 230.5,533.5 Z"/></g>
<g><path style="opacity:1" fill="#af5654" d="M 571.5,535.5 C 574.135,536.811 576.469,538.478 578.5,540.5C 575.281,539.931 572.948,538.264 571.5,535.5 Z"/></g>
<g><path style="opacity:0.988" fill="#ae443d" d="M 223.5,538.5 C 221.48,543.351 217.814,546.017 212.5,546.5C 215.627,543.102 219.293,540.435 223.5,538.5 Z"/></g>
<g><path style="opacity:1" fill="#c38685" d="M 557.5,542.5 C 559.027,542.427 560.027,543.094 560.5,544.5C 558.973,544.573 557.973,543.906 557.5,542.5 Z"/></g>
<g><path style="opacity:0.988" fill="#ae4039" d="M 234.5,546.5 C 234.586,547.496 234.252,548.329 233.5,549C 231.783,550.559 229.783,551.392 227.5,551.5C 229.285,549.046 231.618,547.379 234.5,546.5 Z"/></g>
<g><path style="opacity:1" fill="#b15653" d="M 586.5,546.5 C 589.089,547.419 591.089,549.086 592.5,551.5C 589.712,550.774 587.712,549.107 586.5,546.5 Z"/></g>
<g><path style="opacity:1" fill="#ad4d49" d="M 212.5,546.5 C 210.761,549.243 208.427,551.243 205.5,552.5C 207.239,549.757 209.573,547.757 212.5,546.5 Z"/></g>
<g><path style="opacity:1" fill="#af524e" d="M 203.5,552.5 C 202.833,555.167 201.167,556.833 198.5,557.5C 199.833,555.5 201.5,553.833 203.5,552.5 Z"/></g>
<g><path style="opacity:0.988" fill="#ad3c36" d="M 219.5,558.5 C 215.191,561.802 210.857,565.136 206.5,568.5C 206.33,567.178 206.663,566.011 207.5,565C 209.918,564.085 211.918,562.585 213.5,560.5C 215.45,559.628 217.45,558.961 219.5,558.5 Z"/></g>
<g><path style="opacity:0.988" fill="#ae423b" d="M 194.5,560.5 C 193.514,563.76 191.181,565.427 187.5,565.5C 189.296,563.1 191.63,561.433 194.5,560.5 Z"/></g>
<g><path style="opacity:1" fill="#af5654" d="M 607.5,562.5 C 610.135,563.811 612.469,565.478 614.5,567.5C 611.281,566.931 608.948,565.264 607.5,562.5 Z"/></g>
<g><path style="opacity:1" fill="#ad4d49" d="M 590.5,566.5 C 592.795,567.136 594.461,568.469 595.5,570.5C 593.251,569.92 591.585,568.587 590.5,566.5 Z"/></g>
<g><path style="opacity:0.988" fill="#ac3f39" d="M 187.5,565.5 C 182.938,572.068 176.938,576.734 169.5,579.5C 174.612,573.725 180.612,569.058 187.5,565.5 Z"/></g>
<g><path style="opacity:0.988" fill="#ae433d" d="M 201.5,571.5 C 199.177,575.324 195.844,577.657 191.5,578.5C 193.79,574.728 197.123,572.395 201.5,571.5 Z"/></g>
<g><path style="opacity:1" fill="#b05653" d="M 597.5,571.5 C 600.089,572.419 602.089,574.086 603.5,576.5C 600.911,575.581 598.911,573.914 597.5,571.5 Z"/></g>
<g><path style="opacity:1" fill="#b15653" d="M 622.5,573.5 C 625.089,574.419 627.089,576.086 628.5,578.5C 625.712,577.774 623.712,576.107 622.5,573.5 Z"/></g>
<g><path style="opacity:1" fill="#bb6e6c" d="M 183.5,585.5 C 182.833,586.833 181.833,587.833 180.5,588.5C 180.5,586.5 181.5,585.5 183.5,585.5 Z"/></g>
<g><path style="opacity:1" fill="#ae504b" d="M 626.5,593.5 C 628.795,594.136 630.461,595.469 631.5,597.5C 631.167,597.5 630.833,597.5 630.5,597.5C 628.833,596.5 627.5,595.167 626.5,593.5 Z"/></g>
<g><path style="opacity:1" fill="#c89191" d="M 168.5,597.5 C 322.5,598.833 476.5,598.833 630.5,597.5C 630.833,597.5 631.167,597.5 631.5,597.5C 633.105,598.006 633.439,598.673 632.5,599.5C 476.999,599.833 321.666,599.5 166.5,598.5C 166.842,597.662 167.508,597.328 168.5,597.5 Z"/></g>
<g><path style="opacity:1" fill="#a33531" d="M 166.5,598.5 C 321.666,599.5 476.999,599.833 632.5,599.5C 476.999,600.833 321.333,600.833 165.5,599.5C 165.624,598.893 165.957,598.56 166.5,598.5 Z"/></g>
<g><path style="opacity:0.235" fill="#a70906" d="M 610.5,735.5 C 563.269,765.974 511.602,785.141 455.5,793C 446.516,794.146 437.516,795.146 428.5,796C 427.944,796.383 427.611,796.883 427.5,797.5C 426.5,797.5 425.5,797.5 424.5,797.5C 423.167,796.833 421.833,796.167 420.5,795.5C 488.455,790.628 551.789,770.628 610.5,735.5 Z"/></g>
<g><path style="opacity:0.988" fill="#bf5d52" d="M 376.5,794.5 C 391.234,795.13 405.9,795.463 420.5,795.5C 421.833,796.167 423.167,796.833 424.5,797.5C 407.833,797.5 391.167,797.5 374.5,797.5C 375.609,796.71 376.942,796.21 378.5,796C 377.584,795.722 376.918,795.222 376.5,794.5 Z"/></g>
</svg>
