<?xml version="1.0" encoding="UTF-8"?>
<!DOCTYPE svg PUBLIC "-//W3C//DTD SVG 1.1//EN" "http://www.w3.org/Graphics/SVG/1.1/DTD/svg11.dtd">
<svg xmlns="http://www.w3.org/2000/svg" version="1.1" width="2048px" height="2048px" style="shape-rendering:geometricPrecision; text-rendering:geometricPrecision; image-rendering:optimizeQuality; fill-rule:evenodd; clip-rule:evenodd" xmlns:xlink="http://www.w3.org/1999/xlink">
<g><path style="opacity:0.999" fill="#27d045" d="M 978.5,-0.5 C 1008.5,-0.5 1038.5,-0.5 1068.5,-0.5C 1331.76,14.5073 1557.43,113.341 1745.5,296C 1931.34,484.929 2032.01,712.429 2047.5,978.5C 2047.5,1008.5 2047.5,1038.5 2047.5,1068.5C 2032.49,1331.76 1933.66,1557.43 1751,1745.5C 1562.07,1931.34 1334.57,2032.01 1068.5,2047.5C 1038.5,2047.5 1008.5,2047.5 978.5,2047.5C 715.238,2032.49 489.572,1933.66 301.5,1751C 115.927,1562.34 15.2605,1335.18 -0.5,1069.5C -0.5,1038.83 -0.5,1008.17 -0.5,977.5C 15.2605,711.823 115.927,484.657 301.5,296C 489.57,113.341 715.237,14.5076 978.5,-0.5 Z"/></g>
<g><path style="opacity:1" fill="#fefefe" d="M 1009.5,477.5 C 1171.42,474.253 1308.92,529.92 1422,644.5C 1535.87,769.113 1583.53,915.779 1565,1084.5C 1541.48,1242.47 1464.98,1367.3 1335.5,1459C 1215.14,1538.34 1083.47,1567.01 940.5,1545C 887.421,1535.75 836.921,1518.92 789,1494.5C 693.472,1521.09 597.972,1547.76 502.5,1574.5C 502.167,1574 501.833,1573.5 501.5,1573C 526.915,1483.17 552.248,1393.34 577.5,1303.5C 504.907,1184.25 480.074,1055.58 503,917.5C 533.766,766.347 612.932,648.18 740.5,563C 822.595,510.691 912.262,482.191 1009.5,477.5 Z"/></g>
<g><path style="opacity:1" fill="#27d045" d="M 1006.5,562.5 C 1148.57,558.327 1268.4,607.327 1366,709.5C 1462.09,818.824 1499.43,945.824 1478,1090.5C 1451.95,1227.53 1379.79,1332.36 1261.5,1405C 1160.74,1462.02 1053.41,1479.68 939.5,1458C 891.767,1447.81 846.767,1430.65 804.5,1406.5C 741.199,1426.71 677.865,1446.71 614.5,1466.5C 631.875,1405.67 649.875,1345 668.5,1284.5C 589.582,1173.73 563.415,1051.4 590,917.5C 625.552,772.631 710.386,667.797 844.5,603C 896.181,579.747 950.181,566.247 1006.5,562.5 Z"/></g>
<g><path style="opacity:1" fill="#fefefe" d="M 834.5,767.5 C 844.86,767.422 855.193,767.922 865.5,769C 869.563,769.038 873.397,769.872 877,771.5C 884.429,783.355 891.096,795.688 897,808.5C 908.782,835.179 919.782,862.179 930,889.5C 934.906,899.677 934.573,909.677 929,919.5C 926.091,926.324 922.424,932.658 918,938.5C 907.769,951.059 897.936,963.893 888.5,977C 901.788,1008.43 919.955,1036.6 943,1061.5C 976.836,1095.99 1015.67,1123.49 1059.5,1144C 1067.69,1147.4 1076.03,1150.4 1084.5,1153C 1091.52,1154.19 1098.19,1153.19 1104.5,1150C 1111.75,1142.75 1118.25,1134.92 1124,1126.5C 1131.5,1114.16 1139.5,1102.16 1148,1090.5C 1153.81,1082.59 1161.31,1080.42 1170.5,1084C 1213.98,1098.7 1254.98,1118.37 1293.5,1143C 1294.21,1144.25 1295.04,1145.42 1296,1146.5C 1298.86,1171.02 1295.53,1194.68 1286,1217.5C 1250.25,1262.88 1203.42,1282.38 1145.5,1276C 1061.53,1258.68 986.86,1222.68 921.5,1168C 867.459,1118.92 820.625,1064.09 781,1003.5C 759.668,964.175 749.668,922.175 751,877.5C 758.58,832.481 780.747,796.647 817.5,770C 823.317,769.191 828.983,768.358 834.5,767.5 Z"/></g>
</svg>
