<?xml version="1.0" encoding="UTF-8"?>
<!DOCTYPE svg PUBLIC "-//W3C//DTD SVG 1.1//EN" "http://www.w3.org/Graphics/SVG/1.1/DTD/svg11.dtd">
<svg xmlns="http://www.w3.org/2000/svg" version="1.1" width="256px" height="256px" style="shape-rendering:geometricPrecision; text-rendering:geometricPrecision; image-rendering:optimizeQuality; fill-rule:evenodd; clip-rule:evenodd" xmlns:xlink="http://www.w3.org/1999/xlink">
<g><path style="opacity:0.978" fill="#2d292a" d="M 136.5,-0.5 C 149.167,-0.5 161.833,-0.5 174.5,-0.5C 191.328,0.331561 208.328,0.831561 225.5,1C 230.701,3.94559 231.868,8.11226 229,13.5C 224.733,23.2226 217.233,27.7226 206.5,27C 212.333,31.5 218.167,36 224,40.5C 224.003,47.5198 220.503,52.0198 213.5,54C 209.167,54.6667 204.833,54.6667 200.5,54C 192.61,48.6005 184.61,43.4338 176.5,38.5C 175.558,38.6082 174.725,38.9415 174,39.5C 173.503,42.146 173.336,44.8127 173.5,47.5C 188.532,53.3848 197.699,64.3848 201,80.5C 201.667,134.833 201.667,189.167 201,243.5C 199.037,248.956 195.537,252.956 190.5,255.5C 161.833,255.5 133.167,255.5 104.5,255.5C 99.5465,253.377 96.0465,249.71 94,244.5C 93.3333,189.833 93.3333,135.167 94,80.5C 96.2465,67.1526 103.08,56.9859 114.5,50C 116.65,48.5886 118.984,47.7553 121.5,47.5C 121.5,45.8333 121.5,44.1667 121.5,42.5C 109.826,41.709 98.4928,43.209 87.5,47C 76.1272,53.2495 69.2938,62.7495 67,75.5C 66.5,101.498 66.3334,127.498 66.5,153.5C 73.2518,153.416 77.0852,156.749 78,163.5C 79.7493,171.695 77.5827,178.529 71.5,184C 73.9602,202.1 75.4602,220.266 76,238.5C 75.0975,239.701 73.9308,240.535 72.5,241C 58.5,241.667 44.5,241.667 30.5,241C 29.0692,240.535 27.9025,239.701 27,238.5C 27.442,220.08 28.942,201.747 31.5,183.5C 27.9808,181.48 25.8141,178.48 25,174.5C 24.3333,170.5 24.3333,166.5 25,162.5C 26.3535,156.312 30.1868,153.312 36.5,153.5C 36.3335,142.495 36.5002,131.495 37,120.5C 38.129,118.859 39.629,117.859 41.5,117.5C 43.5834,118.029 45.4167,119.029 47,120.5C 47.4998,131.495 47.6665,142.495 47.5,153.5C 50.1667,153.5 52.8333,153.5 55.5,153.5C 55.3334,126.165 55.5,98.8313 56,71.5C 61.2438,49.9234 74.7438,36.7567 96.5,32C 104.827,31.5003 113.16,31.3336 121.5,31.5C 122.473,29.0521 122.806,26.3854 122.5,23.5C 114.316,23.1743 106.316,23.5076 98.5,24.5C 66.5574,30.6129 49.724,49.9463 48,82.5C 46.322,84.6659 44.1553,85.9993 41.5,86.5C 37.8468,85.2139 36.1801,82.5473 36.5,78.5C 39.2083,47.9147 54.875,27.0813 83.5,16C 96.7022,13.442 110.036,11.942 123.5,11.5C 126.625,6.03542 130.959,2.03542 136.5,-0.5 Z"/></g>
<g><path style="opacity:1" fill="#e6c169" d="M 139.5,10.5 C 142.898,10.1796 146.232,10.513 149.5,11.5C 146.74,20.9003 148.74,29.067 155.5,36C 157.65,37.4114 159.984,38.2447 162.5,38.5C 162.5,40.8333 162.5,43.1667 162.5,45.5C 152.5,45.5 142.5,45.5 132.5,45.5C 132.334,35.8276 132.5,26.1609 133,16.5C 135.063,14.2659 137.229,12.2659 139.5,10.5 Z"/></g>
<g><path style="opacity:1" fill="#2a988b" d="M 164.5,10.5 C 176.308,10.4655 179.808,15.7989 175,26.5C 168.195,31.2709 162.862,29.9376 159,22.5C 157.873,17.0891 159.707,13.0891 164.5,10.5 Z"/></g>
<g><path style="opacity:1" fill="#5d513a" d="M 186.5,12.5 C 196.674,11.1768 207.007,11.1768 217.5,12.5C 217.376,13.1067 217.043,13.44 216.5,13.5C 206.681,12.506 196.681,12.1726 186.5,12.5 Z"/></g>
<g><path style="opacity:1" fill="#e6c169" d="M 186.5,12.5 C 196.681,12.1726 206.681,12.506 216.5,13.5C 215.711,13.7828 215.044,14.2828 214.5,15C 205.482,15.832 196.482,15.6653 187.5,14.5C 187.137,13.8165 186.804,13.1499 186.5,12.5 Z"/></g>
<g><path style="opacity:1" fill="#2b5c56" d="M 98.5,24.5 C 106.316,23.5076 114.316,23.1743 122.5,23.5C 122.806,26.3854 122.473,29.0521 121.5,31.5C 121.5,29.1667 121.5,26.8333 121.5,24.5C 113.833,24.5 106.167,24.5 98.5,24.5 Z"/></g>
<g><path style="opacity:1" fill="#2a998b" d="M 98.5,24.5 C 106.167,24.5 113.833,24.5 121.5,24.5C 121.5,26.8333 121.5,29.1667 121.5,31.5C 113.16,31.3336 104.827,31.5003 96.5,32C 74.7438,36.7567 61.2438,49.9234 56,71.5C 55.5,98.8313 55.3334,126.165 55.5,153.5C 52.8333,153.5 50.1667,153.5 47.5,153.5C 47.6665,142.495 47.4998,131.495 47,120.5C 45.4167,119.029 43.5834,118.029 41.5,117.5C 41.5,114.833 41.5,112.167 41.5,109.5C 47.7057,108.442 49.8723,104.776 48,98.5C 46.322,96.3341 44.1553,95.0007 41.5,94.5C 41.5,91.8333 41.5,89.1667 41.5,86.5C 44.1553,85.9993 46.322,84.6659 48,82.5C 49.724,49.9463 66.5574,30.6129 98.5,24.5 Z"/></g>
<g><path style="opacity:1" fill="#da874f" d="M 186.5,26.5 C 194.288,31.7812 201.955,37.2812 209.5,43C 207.5,43.6667 205.5,43.6667 203.5,43C 197.388,39.2214 191.555,35.0547 186,30.5C 185.805,29.1807 185.972,27.8474 186.5,26.5 Z"/></g>
<g><path style="opacity:1" fill="#e43845" d="M 126.5,56.5 C 140.504,56.3334 154.504,56.5001 168.5,57C 179.401,60.9015 186.568,68.4015 190,79.5C 190.5,89.828 190.666,100.161 190.5,110.5C 161.833,110.5 133.167,110.5 104.5,110.5C 104.069,99.4225 104.569,88.4225 106,77.5C 109.711,67.2902 116.545,60.2902 126.5,56.5 Z"/></g>
<g><path style="opacity:0.956" fill="#2c2c2c" d="M 41.5,94.5 C 44.1553,95.0007 46.322,96.3341 48,98.5C 49.8723,104.776 47.7057,108.442 41.5,109.5C 37.9972,108.351 36.3305,105.851 36.5,102C 36.3305,98.1486 37.9972,95.6486 41.5,94.5 Z"/></g>
<g><path style="opacity:1" fill="#f6eddb" d="M 104.5,121.5 C 133.167,121.5 161.833,121.5 190.5,121.5C 190.5,140.5 190.5,159.5 190.5,178.5C 161.833,178.5 133.167,178.5 104.5,178.5C 104.5,159.5 104.5,140.5 104.5,121.5 Z"/></g>
<g><path style="opacity:1" fill="#8a847d" d="M 104.5,121.5 C 133.329,120.502 162.329,120.169 191.5,120.5C 191.5,140.167 191.5,159.833 191.5,179.5C 162.329,179.831 133.329,179.498 104.5,178.5C 133.167,178.5 161.833,178.5 190.5,178.5C 190.5,159.5 190.5,140.5 190.5,121.5C 161.833,121.5 133.167,121.5 104.5,121.5 Z"/></g>
<g><path style="opacity:1" fill="#ba934f" d="M 66.5,172.5 C 66.5,170.167 66.5,167.833 66.5,165.5C 56.5,165.5 46.5,165.5 36.5,165.5C 36.5,167.833 36.5,170.167 36.5,172.5C 35.5269,170.052 35.1936,167.385 35.5,164.5C 46.1667,164.5 56.8333,164.5 67.5,164.5C 67.8064,167.385 67.4731,170.052 66.5,172.5 Z"/></g>
<g><path style="opacity:1" fill="#e1b159" d="M 66.5,172.5 C 56.5,172.5 46.5,172.5 36.5,172.5C 36.5,170.167 36.5,167.833 36.5,165.5C 46.5,165.5 56.5,165.5 66.5,165.5C 66.5,167.833 66.5,170.167 66.5,172.5 Z"/></g>
<g><path style="opacity:1" fill="#e5c168" d="M 65.5,229.5 C 56.5,229.5 47.5,229.5 38.5,229.5C 38.5,227.833 38.5,226.167 38.5,224.5C 39.8315,210.86 40.8315,197.193 41.5,183.5C 48.1667,183.5 54.8333,183.5 61.5,183.5C 62.6442,198.852 63.9775,214.186 65.5,229.5 Z"/></g>
<g><path style="opacity:1" fill="#e53845" d="M 104.5,189.5 C 133.167,189.5 161.833,189.5 190.5,189.5C 190.667,207.17 190.5,224.836 190,242.5C 189.5,243 189,243.5 188.5,244C 161.5,244.667 134.5,244.667 107.5,244C 106.692,243.692 106.025,243.192 105.5,242.5C 104.514,224.88 104.18,207.214 104.5,189.5 Z"/></g>
<g><path style="opacity:1" fill="#8c784b" d="M 38.5,224.5 C 38.5,226.167 38.5,227.833 38.5,229.5C 47.5,229.5 56.5,229.5 65.5,229.5C 56.3483,230.494 47.015,230.827 37.5,230.5C 37.2053,228.265 37.5386,226.265 38.5,224.5 Z"/></g>
</svg>
