<?xml version="1.0" encoding="UTF-8"?>
<!DOCTYPE svg PUBLIC "-//W3C//DTD SVG 1.1//EN" "http://www.w3.org/Graphics/SVG/1.1/DTD/svg11.dtd">
<svg xmlns="http://www.w3.org/2000/svg" version="1.1" width="360px" height="324px" style="shape-rendering:geometricPrecision; text-rendering:geometricPrecision; image-rendering:optimizeQuality; fill-rule:evenodd; clip-rule:evenodd" xmlns:xlink="http://www.w3.org/1999/xlink">
<g><path style="opacity:0.018" fill="#f3b71e" d="M 135.5,-0.5 C 136.5,-0.5 137.5,-0.5 138.5,-0.5C 137.426,1.2155 135.759,2.2155 133.5,2.5C 133.167,2.16667 132.833,1.83333 132.5,1.5C 133.602,0.824341 134.602,0.157674 135.5,-0.5 Z"/></g>
<g><path style="opacity:0.02" fill="#f3b71e" d="M 139.5,-0.5 C 142.167,-0.5 144.833,-0.5 147.5,-0.5C 146.666,0.747897 145.333,1.41456 143.5,1.5C 141.667,1.41456 140.334,0.747897 139.5,-0.5 Z"/></g>
<g><path style="opacity:0.08" fill="#f3b71e" d="M 149.5,-0.5 C 162.5,-0.5 175.5,-0.5 188.5,-0.5C 175.5,0.833333 162.5,0.833333 149.5,-0.5 Z"/></g>
<g><path style="opacity:0.02" fill="#f3b71e" d="M 190.5,-0.5 C 193.167,-0.5 195.833,-0.5 198.5,-0.5C 197.666,0.747897 196.333,1.41456 194.5,1.5C 192.667,1.41456 191.334,0.747897 190.5,-0.5 Z"/></g>
<g><path style="opacity:0.016" fill="#f3b71e" d="M 200.5,-0.5 C 201.167,-0.5 201.833,-0.5 202.5,-0.5C 259.475,4.15623 311.809,22.1562 359.5,53.5C 359.5,54.1667 359.5,54.8333 359.5,55.5C 312.501,24.1673 260.834,6.50065 204.5,2.5C 202.885,1.84598 201.218,1.34598 199.5,1C 200.056,0.617425 200.389,0.117425 200.5,-0.5 Z"/></g>
<g><path style="opacity:0.016" fill="#f3b71e" d="M -0.5,42.5 C -0.5,41.8333 -0.5,41.1667 -0.5,40.5C 40.8802,17.5018 84.8802,4.50178 131.5,1.5C 84.671,6.33363 40.671,20.0003 -0.5,42.5 Z"/></g>
<g><path style="opacity:0.017" fill="#f3b71e" d="M 150.5,13.5 C 152.924,13.1924 155.257,13.5258 157.5,14.5C 153.517,15.9783 149.517,16.3116 145.5,15.5C 147.291,14.8302 148.958,14.1635 150.5,13.5 Z"/></g>
<g><path style="opacity:0.022" fill="#f3b71e" d="M 161.5,13.5 C 166.875,13.1718 172.208,13.5052 177.5,14.5C 174.833,14.8333 172.167,15.1667 169.5,15.5C 166.41,15.4783 163.743,14.8117 161.5,13.5 Z"/></g>
<g><path style="opacity:0.018" fill="#f3b71e" d="M 181.5,13.5 C 185.306,13.4121 188.973,14.0787 192.5,15.5C 191.667,15.8333 190.833,16.1667 190,16.5C 186.849,15.9069 183.682,15.4069 180.5,15C 181.056,14.6174 181.389,14.1174 181.5,13.5 Z"/></g>
<g><path style="opacity:0.017" fill="#f3b71e" d="M -0.5,59.5 C -0.5,58.8333 -0.5,58.1667 -0.5,57.5C 44.7487,30.7918 93.0821,16.7918 144.5,15.5C 104.969,18.546 66.3023,28.046 28.5,44C 18.6908,48.9941 9.02414,54.1607 -0.5,59.5 Z"/></g>
<g><path style="opacity:0.017" fill="#f3b71e" d="M 193.5,14.5 C 196.247,14.1866 198.914,14.52 201.5,15.5C 200.167,15.8333 198.833,16.1667 197.5,16.5C 195.667,16.4146 194.334,15.7479 193.5,14.5 Z"/></g>
<g><path style="opacity:0.017" fill="#f3b71e" d="M 359.5,72.5 C 359.5,73.1667 359.5,73.8333 359.5,74.5C 318.072,43.3018 271.572,24.9684 220,19.5C 213.937,18.27 208.104,17.27 202.5,16.5C 260.694,19.1134 313.027,37.78 359.5,72.5 Z"/></g>
<g><path style="opacity:0.975" fill="#f3b71e" d="M 145.5,37.5 C 195.346,34.6998 241.846,45.6998 285,70.5C 285.833,88.1761 285.666,105.843 284.5,123.5C 254.615,104.776 222.281,97.943 187.5,103C 159.907,112.654 145.24,132.154 143.5,161.5C 145.705,190.423 160.372,209.923 187.5,220C 222.244,224.884 254.578,218.05 284.5,199.5C 285.833,217.5 285.833,235.5 284.5,253.5C 225.683,286.068 163.683,293.902 98.5,277C 51.9986,262.166 23.1653,230.999 12,183.5C 5.17569,129.598 24.3424,87.7644 69.5,58C 77.4813,53.5088 85.8146,49.8422 94.5,47C 111.441,42.7349 128.441,39.5682 145.5,37.5 Z M 82.5,92.5 C 111.075,93.4092 126.742,108.076 129.5,136.5C 125.344,167.311 107.678,181.644 76.5,179.5C 76.1688,171.14 76.5021,162.807 77.5,154.5C 87.0925,158.359 95.2592,156.359 102,148.5C 109.313,134.439 105.813,123.939 91.5,117C 78.4035,114.786 69.9035,119.952 66,132.5C 65.5,164.498 65.3334,196.498 65.5,228.5C 54.1539,227.994 46.6539,222.327 43,211.5C 42.3333,183.833 42.3333,156.167 43,128.5C 48.1375,107.523 61.3041,95.5231 82.5,92.5 Z"/></g>
<g><path style="opacity:0.943" fill="#f3b71e" d="M 241.5,129.5 C 270.5,129.5 299.5,129.5 328.5,129.5C 328.5,138.167 328.5,146.833 328.5,155.5C 321.5,155.5 314.5,155.5 307.5,155.5C 307.5,167.833 307.5,180.167 307.5,192.5C 292.167,192.5 276.833,192.5 261.5,192.5C 261.5,180.167 261.5,167.833 261.5,155.5C 254.323,155.96 247.323,155.46 240.5,154C 241.436,145.708 241.769,137.541 241.5,129.5 Z"/></g>
<g><path style="opacity:0.017" fill="#f3b71e" d="M 359.5,248.5 C 359.5,249.167 359.5,249.833 359.5,250.5C 313.027,285.22 260.694,303.887 202.5,306.5C 245.542,302.694 287.209,290.527 327.5,270C 338.611,263.37 349.278,256.203 359.5,248.5 Z"/></g>
<g><path style="opacity:0.016" fill="#f3b71e" d="M -0.5,263.5 C 27.5298,280.125 57.5298,291.959 89.5,299C 103.155,301.658 116.488,304.158 129.5,306.5C 83.0217,303.043 39.6884,289.376 -0.5,265.5C -0.5,264.833 -0.5,264.167 -0.5,263.5 Z"/></g>
<g><path style="opacity:0.016" fill="#f3b71e" d="M 359.5,267.5 C 359.5,268.167 359.5,268.833 359.5,269.5C 313.148,300.775 262.315,318.108 207,321.5C 205.378,322.099 203.878,322.766 202.5,323.5C 201.5,323.5 200.5,323.5 199.5,323.5C 200.23,321.955 201.563,321.122 203.5,321C 260.348,316.64 312.348,298.806 359.5,267.5 Z"/></g>
<g><path style="opacity:0.016" fill="#f3b71e" d="M -0.5,280.5 C 41.332,303.782 85.9987,317.115 133.5,320.5C 135.759,320.784 137.426,321.784 138.5,323.5C 137.5,323.5 136.5,323.5 135.5,323.5C 99.8853,320.017 64.8853,311.517 30.5,298C 19.8613,293.347 9.52792,288.181 -0.5,282.5C -0.5,281.833 -0.5,281.167 -0.5,280.5 Z"/></g>
<g><path style="opacity:0.018" fill="#f3b71e" d="M 130.5,305.5 C 135.017,305.652 139.683,306.318 144.5,307.5C 142.268,308.03 140.102,308.363 138,308.5C 134.974,308.287 132.474,307.287 130.5,305.5 Z"/></g>
<g><path style="opacity:0.017" fill="#f3b71e" d="M 145.5,306.5 C 149.509,306.858 153.509,307.358 157.5,308C 156.4,309.023 155.067,309.523 153.5,309.5C 150.249,309.482 147.583,308.482 145.5,306.5 Z"/></g>
<g><path style="opacity:0.018" fill="#f3b71e" d="M 187.5,306.5 C 189.288,306.215 190.955,306.548 192.5,307.5C 188.459,309.576 184.459,309.743 180.5,308C 183.036,307.814 185.369,307.314 187.5,306.5 Z"/></g>
<g><path style="opacity:0.018" fill="#f3b71e" d="M 193.5,306.5 C 196.247,306.187 198.914,306.52 201.5,307.5C 199.474,307.787 197.474,308.12 195.5,308.5C 194.287,308.253 193.62,307.586 193.5,306.5 Z"/></g>
<g><path style="opacity:0.023" fill="#f3b71e" d="M 161.5,307.5 C 166.544,307.173 171.544,307.506 176.5,308.5C 174,308.833 171.5,309.167 169,309.5C 166.071,309.475 163.571,308.809 161.5,307.5 Z"/></g>
<g><path style="opacity:0.02" fill="#f3b71e" d="M 147.5,323.5 C 144.833,323.5 142.167,323.5 139.5,323.5C 140.334,322.252 141.667,321.585 143.5,321.5C 145.333,321.585 146.666,322.252 147.5,323.5 Z"/></g>
<g><path style="opacity:0.021" fill="#f3b71e" d="M 198.5,323.5 C 195.833,323.5 193.167,323.5 190.5,323.5C 191.334,322.252 192.667,321.585 194.5,321.5C 196.333,321.585 197.666,322.252 198.5,323.5 Z"/></g>
<g><path style="opacity:0.027" fill="#f3b71e" d="M 149.5,323.5 C 151.167,322.167 152.833,322.167 154.5,323.5C 152.833,323.5 151.167,323.5 149.5,323.5 Z"/></g>
<g><path style="opacity:0.098" fill="#f3b71e" d="M 155.5,323.5 C 164.5,322.167 173.5,322.167 182.5,323.5C 173.5,323.5 164.5,323.5 155.5,323.5 Z"/></g>
<g><path style="opacity:0.028" fill="#f3b71e" d="M 183.5,323.5 C 185.167,322.167 186.833,322.167 188.5,323.5C 186.833,323.5 185.167,323.5 183.5,323.5 Z"/></g>
</svg>
