<?xml version="1.0" encoding="UTF-8"?>
<!DOCTYPE svg PUBLIC "-//W3C//DTD SVG 1.1//EN" "http://www.w3.org/Graphics/SVG/1.1/DTD/svg11.dtd">
<svg xmlns="http://www.w3.org/2000/svg" version="1.1" width="683px" height="715px" style="shape-rendering:geometricPrecision; text-rendering:geometricPrecision; image-rendering:optimizeQuality; fill-rule:evenodd; clip-rule:evenodd" xmlns:xlink="http://www.w3.org/1999/xlink">
<g><path style="opacity:0.341" fill="#113576" d="M 356.5,33.5 C 358.735,33.2053 360.735,33.5386 362.5,34.5C 362.5,34.8333 362.5,35.1667 362.5,35.5C 359.615,35.8064 356.948,35.4731 354.5,34.5C 355.492,34.6716 356.158,34.3382 356.5,33.5 Z"/></g>
<g><path style="opacity:1" fill="#1b4180" d="M 354.5,34.5 C 356.948,35.4731 359.615,35.8064 362.5,35.5C 395.167,37.7504 426.834,44.5837 457.5,56C 472.782,62.3648 487.782,69.1981 502.5,76.5C 502.369,77.3764 502.702,78.0431 503.5,78.5C 514.056,84.6046 524.389,90.938 534.5,97.5C 641.58,184.872 682.08,296.872 656,433.5C 623.69,551.148 549.524,629.315 433.5,668C 333.528,694.782 240.861,679.449 155.5,622C 65.451,554.74 19.7843,464.573 18.5,351.5C 20.5589,299.26 33.2256,249.926 56.5,203.5C 107.641,115.382 183.308,60.715 283.5,39.5C 307.002,35.6501 330.669,33.9834 354.5,34.5 Z M 296.5,169.5 C 310.796,198.592 325.462,227.425 340.5,256C 340.355,256.772 340.022,257.439 339.5,258C 325.221,264.473 311.221,271.473 297.5,279C 293.001,283.166 290.501,288.333 290,294.5C 289.592,317.54 294.259,339.54 304,360.5C 316.089,389.539 333.255,415.039 355.5,437C 360.705,441.103 366.372,444.437 372.5,447C 376.406,448.434 380.406,448.767 384.5,448C 396.075,443.213 407.408,437.88 418.5,432C 421.089,430.686 423.756,430.019 426.5,430C 437.735,450.975 449.068,471.809 460.5,492.5C 470.985,513.136 481.152,533.802 491,554.5C 481.021,560.907 470.521,566.407 459.5,571C 437.286,582.323 414.619,583.323 391.5,574C 363.424,561.603 338.924,544.103 318,521.5C 260.334,457.19 220.668,382.857 199,298.5C 191.302,268.137 189.635,237.47 194,206.5C 197.774,182.757 209.274,163.924 228.5,150C 242.5,143.333 256.5,136.667 270.5,130C 272.701,129.175 274.534,129.675 276,131.5C 282.608,144.388 289.441,157.055 296.5,169.5 Z"/></g>
<g><path style="opacity:0.714" fill="#0e3072" d="M 356.5,33.5 C 356.158,34.3382 355.492,34.6716 354.5,34.5C 330.669,33.9834 307.002,35.6501 283.5,39.5C 283.5,39.1667 283.5,38.8333 283.5,38.5C 307.631,34.1533 331.964,32.4867 356.5,33.5 Z"/></g>
<g><path style="opacity:0.465" fill="#103375" d="M 362.5,35.5 C 362.5,35.1667 362.5,34.8333 362.5,34.5C 412.774,37.0407 459.44,51.0407 502.5,76.5C 487.782,69.1981 472.782,62.3648 457.5,56C 426.834,44.5837 395.167,37.7504 362.5,35.5 Z"/></g>
<g><path style="opacity:0.527" fill="#113475" d="M 502.5,76.5 C 514.254,81.935 524.921,88.935 534.5,97.5C 524.389,90.938 514.056,84.6046 503.5,78.5C 502.702,78.0431 502.369,77.3764 502.5,76.5 Z"/></g>
<g><path style="opacity:0.527" fill="#103375" d="M 283.5,38.5 C 283.5,38.8333 283.5,39.1667 283.5,39.5C 183.308,60.715 107.641,115.382 56.5,203.5C 92.29,137.55 144.623,89.3838 213.5,59C 236.02,49.3703 259.353,42.537 283.5,38.5 Z"/></g>
<g><path style="opacity:0.714" fill="#103375" d="M 56.5,203.5 C 33.2256,249.926 20.5589,299.26 18.5,351.5C 18.1667,351.5 17.8333,351.5 17.5,351.5C 18.0297,298.706 31.0297,249.373 56.5,203.5 Z"/></g>
<g><path style="opacity:0.554" fill="#103375" d="M 296.5,169.5 C 312.68,198.024 328.013,227.024 342.5,256.5C 341.99,258.088 340.99,259.255 339.5,260C 325.221,266.473 311.221,273.473 297.5,281C 294.126,284.443 292.293,288.61 292,293.5C 290.528,306.802 291.861,319.802 296,332.5C 306.083,364.669 321.416,394.003 342,420.5C 350.375,430.552 360.208,438.719 371.5,445C 375.741,446.457 380.074,446.791 384.5,446C 396.075,441.213 407.408,435.88 418.5,430C 421.089,428.686 423.756,428.019 426.5,428C 435.38,442.924 443.88,458.091 452,473.5C 455.36,479.557 458.194,485.891 460.5,492.5C 449.068,471.809 437.735,450.975 426.5,430C 423.756,430.019 421.089,430.686 418.5,432C 407.408,437.88 396.075,443.213 384.5,448C 380.406,448.767 376.406,448.434 372.5,447C 366.372,444.437 360.705,441.103 355.5,437C 333.255,415.039 316.089,389.539 304,360.5C 294.259,339.54 289.592,317.54 290,294.5C 290.501,288.333 293.001,283.166 297.5,279C 311.221,271.473 325.221,264.473 339.5,258C 340.022,257.439 340.355,256.772 340.5,256C 325.462,227.425 310.796,198.592 296.5,169.5 Z"/></g>
<g><path style="opacity:0.59" fill="#103375" d="M 296.5,169.5 C 289.441,157.055 282.608,144.388 276,131.5C 274.534,129.675 272.701,129.175 270.5,130C 256.5,136.667 242.5,143.333 228.5,150C 209.274,163.924 197.774,182.757 194,206.5C 189.635,237.47 191.302,268.137 199,298.5C 220.668,382.857 260.334,457.19 318,521.5C 338.924,544.103 363.424,561.603 391.5,574C 414.619,583.323 437.286,582.323 459.5,571C 470.521,566.407 481.021,560.907 491,554.5C 481.152,533.802 470.985,513.136 460.5,492.5C 461.458,492.953 462.292,493.619 463,494.5C 469,505.833 475,517.167 481,528.5C 485.311,536.954 489.477,545.454 493.5,554C 493.043,554.414 492.709,554.914 492.5,555.5C 475.974,566.068 458.307,574.234 439.5,580C 416.88,583.864 395.547,580.197 375.5,569C 350.091,554.279 327.591,535.779 308,513.5C 252.107,448.049 214.44,373.049 195,288.5C 188.23,258.213 187.897,227.879 194,197.5C 198.234,181.689 206.068,168.023 217.5,156.5C 220.5,154 223.5,151.5 226.5,149C 240.924,141.454 255.59,134.454 270.5,128C 273.789,127.254 276.289,128.42 278,131.5C 284.947,143.728 291.113,156.395 296.5,169.5 Z"/></g>
<g><path style="opacity:0.527" fill="#103375" d="M 534.5,97.5 C 604.093,149.373 646.593,218.373 662,304.5C 676.974,406.908 650.641,497.241 583,575.5C 496.121,665.787 390.954,698.621 267.5,674C 156.094,644.583 79.2608,576.417 37,469.5C 23.0422,431.42 16.5422,392.087 17.5,351.5C 17.8333,351.5 18.1667,351.5 18.5,351.5C 19.7843,464.573 65.451,554.74 155.5,622C 240.861,679.449 333.528,694.782 433.5,668C 549.524,629.315 623.69,551.148 656,433.5C 682.08,296.872 641.58,184.872 534.5,97.5 Z"/></g>
</svg>
