<?xml version="1.0" encoding="UTF-8"?>
<!DOCTYPE svg PUBLIC "-//W3C//DTD SVG 1.1//EN" "http://www.w3.org/Graphics/SVG/1.1/DTD/svg11.dtd">
<svg xmlns="http://www.w3.org/2000/svg" version="1.1" width="480px" height="480px" style="shape-rendering:geometricPrecision; text-rendering:geometricPrecision; image-rendering:optimizeQuality; fill-rule:evenodd; clip-rule:evenodd" xmlns:xlink="http://www.w3.org/1999/xlink">
<g><path style="opacity:0.983" fill="#37afe2" d="M 217.5,-0.5 C 232.167,-0.5 246.833,-0.5 261.5,-0.5C 291.418,2.39664 319.751,10.73 346.5,24.5C 275.167,24.5 203.833,24.5 132.5,24.5C 159.34,11.0406 187.673,2.70724 217.5,-0.5 Z"/></g>
<g><path style="opacity:0.997" fill="#35ace1" d="M 132.5,24.5 C 203.833,24.5 275.167,24.5 346.5,24.5C 370.665,35.9138 391.998,51.2471 410.5,70.5C 296.665,70.8328 182.999,70.4995 69.5,69.5C 87.8502,50.8218 108.85,35.8218 132.5,24.5 Z"/></g>
<g><path style="opacity:0.998" fill="#32aadf" d="M 69.5,69.5 C 182.999,70.4995 296.665,70.8328 410.5,70.5C 425.921,86.006 438.921,103.339 449.5,122.5C 309.5,123.833 169.5,123.833 29.5,122.5C 40.1716,102.823 53.5049,85.1564 69.5,69.5 Z"/></g>
<g><path style="opacity:0.998" fill="#2fa5dd" d="M 29.5,122.5 C 169.5,123.833 309.5,123.833 449.5,122.5C 465.942,152.159 475.942,183.825 479.5,217.5C 479.5,218.833 479.5,220.167 479.5,221.5C 434.167,221.5 388.833,221.5 343.5,221.5C 343.737,222.791 343.404,223.791 342.5,224.5C 347.396,201.856 352.229,179.189 357,156.5C 362.423,137.92 356.256,131.753 338.5,138C 262.717,165.093 187.384,193.259 112.5,222.5C 74.931,221.827 37.2644,221.161 -0.5,220.5C -0.5,219.5 -0.5,218.5 -0.5,217.5C 3.05785,183.825 13.0578,152.159 29.5,122.5 Z"/></g>
<g><path style="opacity:1" fill="#fefefe" d="M 342.5,224.5 C 340.714,229.317 339.714,234.317 339.5,239.5C 332.007,267.271 325.007,295.271 318.5,323.5C 316.98,330.248 315.146,336.914 313,343.5C 308.509,348.259 303.009,349.759 296.5,348C 278.334,333.756 259.668,320.256 240.5,307.5C 227.044,297.932 213.377,288.599 199.5,279.5C 199.297,277.61 199.963,276.11 201.5,275C 236.236,244.601 270.07,213.101 303,180.5C 303.953,178.545 305.287,176.878 307,175.5C 307.749,174.365 307.583,173.365 306.5,172.5C 259.997,200.248 213.997,228.748 168.5,258C 166.655,259.128 164.655,259.628 162.5,259.5C 141.891,253.63 121.558,246.964 101.5,239.5C 97.0865,234.631 97.7532,230.464 103.5,227C 106.527,225.487 109.527,223.987 112.5,222.5C 187.384,193.259 262.717,165.093 338.5,138C 356.256,131.753 362.423,137.92 357,156.5C 352.229,179.189 347.396,201.856 342.5,224.5 Z"/></g>
<g><path style="opacity:1" fill="#c8daea" d="M 199.5,279.5 C 197.594,299.978 195.594,320.312 193.5,340.5C 190.259,334.784 187.592,328.784 185.5,322.5C 178.422,301.265 170.756,280.265 162.5,259.5C 164.655,259.628 166.655,259.128 168.5,258C 213.997,228.748 259.997,200.248 306.5,172.5C 307.583,173.365 307.749,174.365 307,175.5C 305.287,176.878 303.953,178.545 303,180.5C 270.07,213.101 236.236,244.601 201.5,275C 199.963,276.11 199.297,277.61 199.5,279.5 Z"/></g>
<g><path style="opacity:0.999" fill="#2ba2db" d="M -0.5,220.5 C 37.2644,221.161 74.931,221.827 112.5,222.5C 109.527,223.987 106.527,225.487 103.5,227C 97.7532,230.464 97.0865,234.631 101.5,239.5C 67.5,239.5 33.5,239.5 -0.5,239.5C -0.5,233.167 -0.5,226.833 -0.5,220.5 Z"/></g>
<g><path style="opacity:0.999" fill="#2ba2db" d="M 479.5,221.5 C 479.5,227.5 479.5,233.5 479.5,239.5C 432.833,239.5 386.167,239.5 339.5,239.5C 339.714,234.317 340.714,229.317 342.5,224.5C 343.404,223.791 343.737,222.791 343.5,221.5C 388.833,221.5 434.167,221.5 479.5,221.5 Z"/></g>
<g><path style="opacity:0.998" fill="#289ed8" d="M -0.5,239.5 C 33.5,239.5 67.5,239.5 101.5,239.5C 121.558,246.964 141.891,253.63 162.5,259.5C 170.756,280.265 178.422,301.265 185.5,322.5C 128.331,322.168 71.3309,322.501 14.5,323.5C 6.69888,303.49 1.69888,282.824 -0.5,261.5C -0.5,254.167 -0.5,246.833 -0.5,239.5 Z"/></g>
<g><path style="opacity:0.998" fill="#289fd9" d="M 339.5,239.5 C 386.167,239.5 432.833,239.5 479.5,239.5C 479.5,246.833 479.5,254.167 479.5,261.5C 477.148,282.243 472.481,302.576 465.5,322.5C 416.428,322.172 367.428,322.505 318.5,323.5C 325.007,295.271 332.007,267.271 339.5,239.5 Z"/></g>
<g><path style="opacity:1" fill="#a8c6d8" d="M 199.5,279.5 C 213.377,288.599 227.044,297.932 240.5,307.5C 227.738,318.09 215.405,329.257 203.5,341C 199.813,344.439 196.479,344.272 193.5,340.5C 195.594,320.312 197.594,299.978 199.5,279.5 Z"/></g>
<g><path style="opacity:0.998" fill="#239ad6" d="M 240.5,307.5 C 259.668,320.256 278.334,333.756 296.5,348C 303.009,349.759 308.509,348.259 313,343.5C 315.146,336.914 316.98,330.248 318.5,323.5C 367.428,322.505 416.428,322.172 465.5,322.5C 453.179,355.174 434.845,383.841 410.5,408.5C 296.763,408.169 183.096,408.502 69.5,409.5C 44.7583,385.06 26.425,356.393 14.5,323.5C 71.3309,322.501 128.331,322.168 185.5,322.5C 187.592,328.784 190.259,334.784 193.5,340.5C 196.479,344.272 199.813,344.439 203.5,341C 215.405,329.257 227.738,318.09 240.5,307.5 Z"/></g>
<g><path style="opacity:0.999" fill="#2096d3" d="M 410.5,408.5 C 399,420.34 386.333,430.674 372.5,439.5C 283.833,438.167 195.167,438.167 106.5,439.5C 93.0022,431.009 80.6689,421.009 69.5,409.5C 183.096,408.502 296.763,408.169 410.5,408.5 Z"/></g>
<g><path style="opacity:0.989" fill="#1e94d2" d="M 372.5,439.5 C 338.836,461.945 301.836,475.278 261.5,479.5C 246.833,479.5 232.167,479.5 217.5,479.5C 177.164,475.278 140.164,461.945 106.5,439.5C 195.167,438.167 283.833,438.167 372.5,439.5 Z"/></g>
</svg>
