<?xml version="1.0" encoding="UTF-8"?>
<!DOCTYPE svg PUBLIC "-//W3C//DTD SVG 1.1//EN" "http://www.w3.org/Graphics/SVG/1.1/DTD/svg11.dtd">
<svg xmlns="http://www.w3.org/2000/svg" version="1.1" width="512px" height="512px" style="shape-rendering:geometricPrecision; text-rendering:geometricPrecision; image-rendering:optimizeQuality; fill-rule:evenodd; clip-rule:evenodd" xmlns:xlink="http://www.w3.org/1999/xlink">
<g><path style="opacity:0.984" fill="#010100" d="M 511.5,337.5 C 511.5,353.5 511.5,369.5 511.5,385.5C 368.826,454.282 222.159,464.116 71.5,415C 47.1088,406.038 23.1088,396.205 -0.5,385.5C -0.5,369.5 -0.5,353.5 -0.5,337.5C 10.5,337.5 21.5,337.5 32.5,337.5C 32.3334,314.164 32.5,290.831 33,267.5C 43.6463,182.315 87.4797,121.149 164.5,84C 242.053,52.6548 315.387,60.3215 384.5,107C 439.339,148.483 470.506,203.65 478,272.5C 478.5,294.164 478.667,315.831 478.5,337.5C 489.5,337.5 500.5,337.5 511.5,337.5 Z"/></g>
<g><path style="opacity:1" fill="#fad56f" d="M 238.5,82.5 C 254.898,82.051 271.232,82.7177 287.5,84.5C 283.052,147.211 278.052,209.878 272.5,272.5C 261.167,272.5 249.833,272.5 238.5,272.5C 233.363,212.353 228.363,152.186 223.5,92C 223.833,89.5 224.167,87 224.5,84.5C 229.299,83.8825 233.966,83.2159 238.5,82.5 Z"/></g>
<g><path style="opacity:1" fill="#fca62e" d="M 461.5,285.5 C 461.5,297.5 461.5,309.5 461.5,321.5C 324.167,321.5 186.833,321.5 49.5,321.5C 49.5,307.833 49.5,294.167 49.5,280.5C 50.7462,238.087 64.0795,200.087 89.5,166.5C 93.9596,184.214 96.7929,202.214 98,220.5C 98.5,243.164 98.6666,265.831 98.5,288.5C 120.5,288.5 142.5,288.5 164.5,288.5C 164.918,257.808 164.418,227.142 163,196.5C 160.183,168.761 153.683,141.928 143.5,116C 161.902,103.22 182.069,94.0536 204,88.5C 205.326,88.7549 206.326,89.4216 207,90.5C 212.83,156.458 217.997,222.458 222.5,288.5C 244.5,288.5 266.5,288.5 288.5,288.5C 293.003,222.458 298.17,156.458 304,90.5C 304.308,89.6919 304.808,89.0253 305.5,88.5C 327.876,94.1754 348.543,103.509 367.5,116.5C 357.266,142.226 350.766,168.892 348,196.5C 346.6,227.145 346.1,257.811 346.5,288.5C 368.5,288.5 390.5,288.5 412.5,288.5C 412.333,265.831 412.5,243.164 413,220.5C 414.233,202.928 416.899,185.595 421,168.5C 446.729,203.184 460.229,242.184 461.5,285.5 Z"/></g>
<g><path style="opacity:1" fill="#fad56f" d="M 147.5,213.5 C 147.5,232.833 147.5,252.167 147.5,271.5C 136.833,271.5 126.167,271.5 115.5,271.5C 115.829,257.99 115.496,244.656 114.5,231.5C 113.623,204.282 109.956,177.448 103.5,151C 110.62,141.214 119.12,132.714 129,125.5C 140.213,153.731 146.38,183.064 147.5,213.5 Z"/></g>
<g><path style="opacity:1" fill="#fad56f" d="M 396.5,231.5 C 395.504,244.656 395.171,257.99 395.5,271.5C 384.833,271.5 374.167,271.5 363.5,271.5C 363.5,252.167 363.5,232.833 363.5,213.5C 364.74,184.132 370.407,155.632 380.5,128C 380.85,126.743 381.517,126.409 382.5,127C 391.512,134.679 399.846,143.012 407.5,152C 400.917,178.087 397.25,204.587 396.5,231.5 Z"/></g>
<g><path style="opacity:1" fill="#85713b" d="M 147.5,213.5 C 148.497,232.993 148.83,252.66 148.5,272.5C 137.167,272.5 125.833,272.5 114.5,272.5C 114.5,258.833 114.5,245.167 114.5,231.5C 115.496,244.656 115.829,257.99 115.5,271.5C 126.167,271.5 136.833,271.5 147.5,271.5C 147.5,252.167 147.5,232.833 147.5,213.5 Z"/></g>
<g><path style="opacity:1" fill="#85713b" d="M 363.5,213.5 C 363.5,232.833 363.5,252.167 363.5,271.5C 374.167,271.5 384.833,271.5 395.5,271.5C 395.171,257.99 395.504,244.656 396.5,231.5C 396.5,245.167 396.5,258.833 396.5,272.5C 385.167,272.5 373.833,272.5 362.5,272.5C 362.17,252.66 362.503,232.993 363.5,213.5 Z"/></g>
<g><path style="opacity:1" fill="#ff8031" d="M 49.5,321.5 C 186.833,321.5 324.167,321.5 461.5,321.5C 461.5,326.833 461.5,332.167 461.5,337.5C 450.5,337.5 439.5,337.5 428.5,337.5C 428.5,340.5 428.5,343.5 428.5,346.5C 423.167,346.5 417.833,346.5 412.5,346.5C 412.5,343.833 412.5,341.167 412.5,338.5C 291.668,337.5 170.668,337.167 49.5,337.5C 49.5,332.167 49.5,326.833 49.5,321.5 Z"/></g>
<g><path style="opacity:1" fill="#914a1b" d="M 49.5,280.5 C 49.5,294.167 49.5,307.833 49.5,321.5C 49.5,326.833 49.5,332.167 49.5,337.5C 170.668,337.167 291.668,337.5 412.5,338.5C 291.167,338.5 169.833,338.5 48.5,338.5C 48.1697,318.993 48.503,299.659 49.5,280.5 Z"/></g>
<g><path style="opacity:1" fill="#7f4618" d="M 461.5,285.5 C 462.497,302.992 462.83,320.659 462.5,338.5C 451.5,338.5 440.5,338.5 429.5,338.5C 429.5,343.833 429.5,349.167 429.5,354.5C 428.527,352.052 428.194,349.385 428.5,346.5C 428.5,343.5 428.5,340.5 428.5,337.5C 439.5,337.5 450.5,337.5 461.5,337.5C 461.5,332.167 461.5,326.833 461.5,321.5C 461.5,309.5 461.5,297.5 461.5,285.5 Z"/></g>
<g><path style="opacity:1" fill="#fca72e" d="M 412.5,346.5 C 417.833,346.5 423.167,346.5 428.5,346.5C 428.194,349.385 428.527,352.052 429.5,354.5C 451.5,354.5 473.5,354.5 495.5,354.5C 495.5,361.167 495.5,367.833 495.5,374.5C 454.843,392.552 412.843,406.719 369.5,417C 273.485,436.803 178.819,431.803 85.5,402C 61.7994,393.645 38.466,384.479 15.5,374.5C 15.5,367.833 15.5,361.167 15.5,354.5C 147.833,354.5 280.167,354.5 412.5,354.5C 412.5,351.833 412.5,349.167 412.5,346.5 Z"/></g>
</svg>
