<?xml version="1.0" standalone="no"?>
<!DOCTYPE svg PUBLIC "-//W3C//DTD SVG 20010904//EN"
 "http://www.w3.org/TR/2001/REC-SVG-20010904/DTD/svg10.dtd">
<svg version="1.0" xmlns="http://www.w3.org/2000/svg"
 width="1280.000000pt" height="896.000000pt" viewBox="0 0 1280.000000 896.000000"
 preserveAspectRatio="xMidYMid meet">
<g transform="translate(0.000000,896.000000) scale(0.100000,-0.100000)"
fill="#000000" stroke="none">
<path d="M3630 7459 c-129 -78 -242 -170 -380 -309 -225 -226 -416 -496 -602
-850 -19 -36 -40 -65 -47 -65 -8 0 -72 101 -142 225 -71 124 -135 225 -141
225 -16 0 -518 -275 -518 -284 1 -3 44 -27 98 -53 188 -90 403 -252 609 -457
67 -66 124 -121 126 -121 3 0 31 37 63 83 207 296 552 663 800 850 74 57 203
132 254 149 10 3 8 18 -8 68 -36 106 -46 214 -33 343 22 210 24 247 15 247 -5
0 -47 -23 -94 -51z"/>
<path d="M4730 6970 l0 -460 2720 0 2720 0 0 460 0 460 -2720 0 -2720 0 0
-460z"/>
<path d="M3629 5909 c-337 -202 -662 -576 -938 -1077 -46 -84 -88 -151 -94
-149 -6 2 -68 104 -138 227 -70 124 -131 226 -137 228 -11 3 -516 -273 -519
-285 -1 -4 37 -26 85 -48 183 -84 417 -260 632 -474 l114 -114 18 24 c9 13 43
61 75 106 86 122 264 331 404 477 215 224 430 395 572 456 64 28 62 18 28 132
-30 102 -35 204 -17 356 18 152 20 192 8 192 -5 0 -47 -23 -93 -51z"/>
<path d="M4730 4880 l0 -460 2720 0 2720 0 0 460 0 460 -2720 0 -2720 0 0
-460z"/>
<path d="M3442 3990 c-56 -33 -148 -95 -204 -137 -120 -89 -423 -389 -518
-512 -36 -46 -73 -93 -82 -105 l-18 -21 -20 25 c-32 41 -164 267 -234 400 -37
70 -67 118 -70 110 -2 -8 -19 -135 -37 -282 -38 -304 -42 -261 48 -468 30 -69
57 -133 60 -142 3 -9 -25 -69 -65 -140 -38 -68 -85 -154 -105 -193 -19 -38
-69 -128 -111 -199 l-76 -129 54 -111 c34 -68 61 -141 72 -190 16 -76 18 -79
33 -59 167 214 459 573 467 577 6 2 55 -38 109 -90 164 -159 395 -332 596
-448 l46 -26 22 94 c13 54 41 134 66 185 48 98 48 94 -20 129 -98 50 -304 244
-453 425 -45 55 -54 72 -45 85 18 29 200 188 311 272 99 75 285 180 318 180
18 0 18 10 -5 63 -57 133 -71 349 -37 592 18 133 20 175 8 175 -4 0 -54 -27
-110 -60z"/>
<path d="M4730 2790 l0 -460 2720 0 2720 0 0 460 0 460 -2720 0 -2720 0 0
-460z"/>
</g>
</svg>
