<?xml version="1.0" encoding="UTF-8"?>
<!DOCTYPE svg PUBLIC "-//W3C//DTD SVG 1.1//EN" "http://www.w3.org/Graphics/SVG/1.1/DTD/svg11.dtd">
<svg xmlns="http://www.w3.org/2000/svg" version="1.1" width="512px" height="512px" style="shape-rendering:geometricPrecision; text-rendering:geometricPrecision; image-rendering:optimizeQuality; fill-rule:evenodd; clip-rule:evenodd" xmlns:xlink="http://www.w3.org/1999/xlink">
<g><path style="opacity:0.998" fill="#294b64" d="M 511.5,27.5 C 511.5,162.167 511.5,296.833 511.5,431.5C 510.684,433.144 509.35,434.31 507.5,435C 441.5,435.667 375.5,435.667 309.5,435C 305.864,432.961 304.198,429.794 304.5,425.5C 305.333,369.335 305.833,313.001 306,256.5C 307.167,255.333 308.333,254.167 309.5,253C 342.5,252.333 375.5,252.333 408.5,253C 411.534,254.191 413.201,256.358 413.5,259.5C 413.456,263.09 411.789,265.59 408.5,267C 379.169,267.5 349.835,267.667 320.5,267.5C 320.5,318.5 320.5,369.5 320.5,420.5C 379.167,420.5 437.833,420.5 496.5,420.5C 496.5,369.5 496.5,318.5 496.5,267.5C 488.826,267.666 481.159,267.5 473.5,267C 470.211,265.59 468.544,263.09 468.5,259.5C 468.744,256.737 470.077,254.571 472.5,253C 480.493,252.5 488.493,252.334 496.5,252.5C 496.5,232.833 496.5,213.167 496.5,193.5C 476.497,193.667 456.497,193.5 436.5,193C 433.211,191.59 431.544,189.09 431.5,185.5C 431.744,182.737 433.077,180.571 435.5,179C 455.831,178.5 476.164,178.333 496.5,178.5C 496.5,132.167 496.5,85.8333 496.5,39.5C 437.833,39.5 379.167,39.5 320.5,39.5C 320.5,85.8333 320.5,132.167 320.5,178.5C 337.503,178.333 354.503,178.5 371.5,179C 374.493,180.159 376.16,182.325 376.5,185.5C 376.518,189.637 374.518,192.137 370.5,193C 325.833,193.667 281.167,193.667 236.5,193C 233.211,191.59 231.544,189.09 231.5,185.5C 232.167,181.5 234.5,179.167 238.5,178.5C 260.833,178.5 283.167,178.5 305.5,178.5C 305.832,131.997 305.499,85.6637 304.5,39.5C 207.833,39.5 111.167,39.5 14.5,39.5C 14.5,85.8333 14.5,132.167 14.5,178.5C 66.8344,178.333 119.168,178.5 171.5,179C 174.493,180.159 176.16,182.325 176.5,185.5C 176.456,189.09 174.789,191.59 171.5,193C 119.168,193.5 66.8344,193.667 14.5,193.5C 14.5,213.167 14.5,232.833 14.5,252.5C 38.169,252.333 61.8357,252.5 85.5,253C 88.5341,254.191 90.2007,256.358 90.5,259.5C 90.4559,263.09 88.7892,265.59 85.5,267C 61.8357,267.5 38.169,267.667 14.5,267.5C 14.5,318.167 14.5,368.833 14.5,419.5C 86.6647,420.499 158.998,420.833 231.5,420.5C 231.832,369.331 231.499,318.331 230.5,267.5C 203.831,267.667 177.165,267.5 150.5,267C 147.211,265.59 145.544,263.09 145.5,259.5C 145.744,256.737 147.077,254.571 149.5,253C 180.167,252.333 210.833,252.333 241.5,253C 242.931,253.465 244.097,254.299 245,255.5C 246.492,312.083 246.992,368.75 246.5,425.5C 247.296,429.684 245.963,432.85 242.5,435C 162.833,435.667 83.1667,435.667 3.5,435C 1.64977,434.31 0.316435,433.144 -0.5,431.5C -0.5,296.833 -0.5,162.167 -0.5,27.5C 1.11327,25.7304 3.11327,24.5637 5.5,24C 172.167,23.3333 338.833,23.3333 505.5,24C 507.887,24.5637 509.887,25.7304 511.5,27.5 Z"/></g>
<g><path style="opacity:1" fill="#d1e4fc" d="M 304.5,39.5 C 304.5,85.5 304.5,131.5 304.5,177.5C 282.327,177.169 260.327,177.503 238.5,178.5C 234.5,179.167 232.167,181.5 231.5,185.5C 224.833,185.5 218.167,185.5 211.5,185.5C 210.027,179.76 206.36,177.593 200.5,179C 198.077,180.571 196.744,182.737 196.5,185.5C 189.833,185.5 183.167,185.5 176.5,185.5C 176.16,182.325 174.493,180.159 171.5,179C 119.168,178.5 66.8344,178.333 14.5,178.5C 14.5,132.167 14.5,85.8333 14.5,39.5C 111.167,39.5 207.833,39.5 304.5,39.5 Z"/></g>
<g><path style="opacity:1" fill="#c1d5ed" d="M 304.5,39.5 C 305.499,85.6637 305.832,131.997 305.5,178.5C 283.167,178.5 260.833,178.5 238.5,178.5C 260.327,177.503 282.327,177.169 304.5,177.5C 304.5,131.5 304.5,85.5 304.5,39.5 Z"/></g>
<g><path style="opacity:1" fill="#d1e4fc" d="M 431.5,185.5 C 424.833,185.5 418.167,185.5 411.5,185.5C 410.027,179.76 406.36,177.593 400.5,179C 398.077,180.571 396.744,182.737 396.5,185.5C 389.833,185.5 383.167,185.5 376.5,185.5C 376.16,182.325 374.493,180.159 371.5,179C 354.503,178.5 337.503,178.333 320.5,178.5C 320.5,132.167 320.5,85.8333 320.5,39.5C 379.167,39.5 437.833,39.5 496.5,39.5C 496.5,85.8333 496.5,132.167 496.5,178.5C 476.164,178.333 455.831,178.5 435.5,179C 433.077,180.571 431.744,182.737 431.5,185.5 Z"/></g>
<g><path style="opacity:1" fill="#e5656f" d="M 200.5,87.5 C 204.909,86.6185 208.409,87.9518 211,91.5C 211.333,106.833 211.667,122.167 212,137.5C 214.199,134.448 217.032,132.448 220.5,131.5C 227.649,132.797 229.815,136.797 227,143.5C 220.833,149.667 214.667,155.833 208.5,162C 205.5,164 202.5,164 199.5,162C 193.333,155.833 187.167,149.667 181,143.5C 177.778,137.091 179.611,133.091 186.5,131.5C 190.544,132.032 193.711,134.032 196,137.5C 196.333,122.167 196.667,106.833 197,91.5C 198.376,90.2949 199.542,88.9616 200.5,87.5 Z"/></g>
<g><path style="opacity:1" fill="#e5656f" d="M 400.5,87.5 C 404.909,86.6185 408.409,87.9518 411,91.5C 411.333,106.833 411.667,122.167 412,137.5C 414.199,134.448 417.032,132.448 420.5,131.5C 427.649,132.797 429.815,136.797 427,143.5C 420.833,149.667 414.667,155.833 408.5,162C 405.5,164 402.5,164 399.5,162C 393.333,155.833 387.167,149.667 381,143.5C 377.778,137.091 379.611,133.091 386.5,131.5C 390.544,132.032 393.711,134.032 396,137.5C 396.333,122.167 396.667,106.833 397,91.5C 398.376,90.2949 399.542,88.9616 400.5,87.5 Z"/></g>
<g><path style="opacity:0.992" fill="#b3e59f" d="M 211.5,185.5 C 211.5,195.167 211.5,204.833 211.5,214.5C 272.998,215.499 334.664,215.832 396.5,215.5C 396.5,205.833 396.5,196.167 396.5,186.5C 396.5,186.167 396.5,185.833 396.5,185.5C 396.744,182.737 398.077,180.571 400.5,179C 406.36,177.593 410.027,179.76 411.5,185.5C 411.5,195.5 411.5,205.5 411.5,215.5C 422.172,215.333 432.839,215.5 443.5,216C 445.286,216.785 446.786,217.951 448,219.5C 448.5,232.829 448.667,246.163 448.5,259.5C 446.458,267.77 441.958,269.437 435,264.5C 433.991,262.975 433.491,261.308 433.5,259.5C 433.5,249.833 433.5,240.167 433.5,230.5C 383.5,230.5 333.5,230.5 283.5,230.5C 283.5,295.5 283.5,360.5 283.5,425.5C 283.333,436.838 283.5,448.172 284,459.5C 288.178,454.238 293.178,453.238 299,456.5C 300.483,459.702 300.817,463.036 300,466.5C 293.5,473 287,479.5 280.5,486C 277.5,488 274.5,488 271.5,486C 265,479.5 258.5,473 252,466.5C 249.463,457.365 252.963,453.532 262.5,455C 264.286,455.785 265.786,456.951 267,458.5C 267.5,447.505 267.667,436.505 267.5,425.5C 268.499,360.669 268.832,295.669 268.5,230.5C 220.833,230.5 173.167,230.5 125.5,230.5C 125.5,240.167 125.5,249.833 125.5,259.5C 123.444,267.778 118.944,269.445 112,264.5C 110.991,262.975 110.491,261.308 110.5,259.5C 110.333,246.163 110.5,232.829 111,219.5C 112.571,217.077 114.737,215.744 117.5,215.5C 143.833,215.5 170.167,215.5 196.5,215.5C 196.5,205.833 196.5,196.167 196.5,186.5C 196.5,186.167 196.5,185.833 196.5,185.5C 196.744,182.737 198.077,180.571 200.5,179C 206.36,177.593 210.027,179.76 211.5,185.5 Z"/></g>
<g><path style="opacity:1" fill="#f5f9fe" d="M 176.5,185.5 C 183.167,185.5 189.833,185.5 196.5,185.5C 196.5,185.833 196.5,186.167 196.5,186.5C 195.506,195.652 195.173,204.985 195.5,214.5C 169.328,214.169 143.328,214.502 117.5,215.5C 114.737,215.744 112.571,217.077 111,219.5C 110.5,232.829 110.333,246.163 110.5,259.5C 103.833,259.5 97.1667,259.5 90.5,259.5C 90.2007,256.358 88.5341,254.191 85.5,253C 61.8357,252.5 38.169,252.333 14.5,252.5C 14.5,232.833 14.5,213.167 14.5,193.5C 66.8344,193.667 119.168,193.5 171.5,193C 174.789,191.59 176.456,189.09 176.5,185.5 Z"/></g>
<g><path style="opacity:1" fill="#f5f9fe" d="M 211.5,185.5 C 218.167,185.5 224.833,185.5 231.5,185.5C 231.544,189.09 233.211,191.59 236.5,193C 281.167,193.667 325.833,193.667 370.5,193C 374.518,192.137 376.518,189.637 376.5,185.5C 383.167,185.5 389.833,185.5 396.5,185.5C 396.5,185.833 396.5,186.167 396.5,186.5C 395.506,195.652 395.173,204.985 395.5,214.5C 334.167,214.5 272.833,214.5 211.5,214.5C 211.5,204.833 211.5,195.167 211.5,185.5 Z"/></g>
<g><path style="opacity:1" fill="#f5f9fe" d="M 411.5,185.5 C 418.167,185.5 424.833,185.5 431.5,185.5C 431.544,189.09 433.211,191.59 436.5,193C 456.497,193.5 476.497,193.667 496.5,193.5C 496.5,213.167 496.5,232.833 496.5,252.5C 488.493,252.334 480.493,252.5 472.5,253C 470.077,254.571 468.744,256.737 468.5,259.5C 461.833,259.5 455.167,259.5 448.5,259.5C 448.667,246.163 448.5,232.829 448,219.5C 446.786,217.951 445.286,216.785 443.5,216C 432.839,215.5 422.172,215.333 411.5,215.5C 411.5,205.5 411.5,195.5 411.5,185.5 Z"/></g>
<g><path style="opacity:1" fill="#edf7f2" d="M 196.5,186.5 C 196.5,196.167 196.5,205.833 196.5,215.5C 170.167,215.5 143.833,215.5 117.5,215.5C 143.328,214.502 169.328,214.169 195.5,214.5C 195.173,204.985 195.506,195.652 196.5,186.5 Z"/></g>
<g><path style="opacity:1" fill="#edf7f2" d="M 396.5,186.5 C 396.5,196.167 396.5,205.833 396.5,215.5C 334.664,215.832 272.998,215.499 211.5,214.5C 272.833,214.5 334.167,214.5 395.5,214.5C 395.173,204.985 395.506,195.652 396.5,186.5 Z"/></g>
<g><path style="opacity:1" fill="#f5f9fe" d="M 267.5,425.5 C 260.5,425.5 253.5,425.5 246.5,425.5C 246.992,368.75 246.492,312.083 245,255.5C 244.097,254.299 242.931,253.465 241.5,253C 210.833,252.333 180.167,252.333 149.5,253C 147.077,254.571 145.744,256.737 145.5,259.5C 138.833,259.5 132.167,259.5 125.5,259.5C 125.5,249.833 125.5,240.167 125.5,230.5C 173.167,230.5 220.833,230.5 268.5,230.5C 268.832,295.669 268.499,360.669 267.5,425.5 Z"/></g>
<g><path style="opacity:1" fill="#f5f9fe" d="M 433.5,259.5 C 426.833,259.5 420.167,259.5 413.5,259.5C 413.201,256.358 411.534,254.191 408.5,253C 375.5,252.333 342.5,252.333 309.5,253C 308.333,254.167 307.167,255.333 306,256.5C 305.833,313.001 305.333,369.335 304.5,425.5C 297.5,425.5 290.5,425.5 283.5,425.5C 283.5,360.5 283.5,295.5 283.5,230.5C 333.5,230.5 383.5,230.5 433.5,230.5C 433.5,240.167 433.5,249.833 433.5,259.5 Z"/></g>
<g><path style="opacity:1" fill="#d2e4fc" d="M 90.5,259.5 C 97.1667,259.5 103.833,259.5 110.5,259.5C 110.491,261.308 110.991,262.975 112,264.5C 118.944,269.445 123.444,267.778 125.5,259.5C 132.167,259.5 138.833,259.5 145.5,259.5C 145.544,263.09 147.211,265.59 150.5,267C 177.165,267.5 203.831,267.667 230.5,267.5C 230.5,318.167 230.5,368.833 230.5,419.5C 158.5,419.5 86.5,419.5 14.5,419.5C 14.5,368.833 14.5,318.167 14.5,267.5C 38.169,267.667 61.8357,267.5 85.5,267C 88.7892,265.59 90.4559,263.09 90.5,259.5 Z"/></g>
<g><path style="opacity:1" fill="#d1e4fc" d="M 413.5,259.5 C 420.167,259.5 426.833,259.5 433.5,259.5C 433.491,261.308 433.991,262.975 435,264.5C 441.958,269.437 446.458,267.77 448.5,259.5C 455.167,259.5 461.833,259.5 468.5,259.5C 468.544,263.09 470.211,265.59 473.5,267C 481.159,267.5 488.826,267.666 496.5,267.5C 496.5,318.5 496.5,369.5 496.5,420.5C 437.833,420.5 379.167,420.5 320.5,420.5C 320.5,369.5 320.5,318.5 320.5,267.5C 349.835,267.667 379.169,267.5 408.5,267C 411.789,265.59 413.456,263.09 413.5,259.5 Z"/></g>
<g><path style="opacity:1" fill="#e5656f" d="M 114.5,282.5 C 117.32,282.248 119.986,282.748 122.5,284C 128.667,290.167 134.833,296.333 141,302.5C 143.483,312.017 139.983,315.517 130.5,313C 129,311.5 127.5,310 126,308.5C 125.667,323.5 125.333,338.5 125,353.5C 122.774,357.861 119.274,359.361 114.5,358C 112.951,356.786 111.785,355.286 111,353.5C 110.667,338.5 110.333,323.5 110,308.5C 105.891,314.923 100.891,315.923 95,311.5C 93.5783,308.97 93.245,306.303 94,303.5C 101.036,296.632 107.869,289.632 114.5,282.5 Z"/></g>
<g><path style="opacity:1" fill="#e5656f" d="M 437.5,282.5 C 440.32,282.248 442.986,282.748 445.5,284C 452,290.5 458.5,297 465,303.5C 465.938,312.567 462.105,315.734 453.5,313C 452,311.5 450.5,310 449,308.5C 448.667,323.5 448.333,338.5 448,353.5C 445.774,357.861 442.274,359.361 437.5,358C 435.951,356.786 434.785,355.286 434,353.5C 433.667,338.5 433.333,323.5 433,308.5C 428.891,314.923 423.891,315.923 418,311.5C 416.15,308.463 416.15,305.463 418,302.5C 424.703,295.965 431.203,289.298 437.5,282.5 Z"/></g>
<g><path style="opacity:1" fill="#bcd1e9" d="M 230.5,267.5 C 231.499,318.331 231.832,369.331 231.5,420.5C 158.998,420.833 86.6647,420.499 14.5,419.5C 86.5,419.5 158.5,419.5 230.5,419.5C 230.5,368.833 230.5,318.167 230.5,267.5 Z"/></g>
</svg>
