<?xml version="1.0" encoding="UTF-8"?>
<!DOCTYPE svg PUBLIC "-//W3C//DTD SVG 1.1//EN" "http://www.w3.org/Graphics/SVG/1.1/DTD/svg11.dtd">
<svg xmlns="http://www.w3.org/2000/svg" version="1.1" width="220px" height="220px" style="shape-rendering:geometricPrecision; text-rendering:geometricPrecision; image-rendering:optimizeQuality; fill-rule:evenodd; clip-rule:evenodd" xmlns:xlink="http://www.w3.org/1999/xlink">
<g><path style="opacity:1" fill="#02af6b" d="M -0.5,-0.5 C 72.8333,-0.5 146.167,-0.5 219.5,-0.5C 219.5,72.8333 219.5,146.167 219.5,219.5C 211.167,219.5 202.833,219.5 194.5,219.5C 186.5,210.833 178.167,202.5 169.5,194.5C 169.5,185.5 169.5,176.5 169.5,167.5C 177.019,167.825 184.352,167.492 191.5,166.5C 189.635,160.74 187.468,155.073 185,149.5C 181.109,144.369 175.943,142.035 169.5,142.5C 169.5,100.5 169.5,58.5 169.5,16.5C 129.833,16.5 90.1667,16.5 50.5,16.5C 49.5025,39.6607 49.1691,62.994 49.5,86.5C 55.0262,86.8214 60.3595,86.4881 65.5,85.5C 72.2244,76.6053 79.5578,68.1053 87.5,60C 88.8333,59.3333 90.1667,58.6667 91.5,58C 107.433,56.3793 123.433,56.046 139.5,57C 143.207,57.9358 146.374,59.7692 149,62.5C 153.333,70.5 157.667,78.5 162,86.5C 163.327,94.1699 160.161,97.6699 152.5,97C 151.333,95.8333 150.167,94.6667 149,93.5C 145.98,86.7827 142.48,80.4494 138.5,74.5C 133.36,73.5119 128.026,73.1786 122.5,73.5C 122.263,74.791 122.596,75.791 123.5,76.5C 127.042,85.9216 130.875,95.2549 135,104.5C 136.309,117.16 137.476,129.827 138.5,142.5C 138.5,143.833 138.5,145.167 138.5,146.5C 150.167,146.5 161.833,146.5 173.5,146.5C 181.03,148.513 185.03,153.513 185.5,161.5C 166.674,162.497 147.674,162.83 128.5,162.5C 125.852,162.262 124.018,160.928 123,158.5C 121.692,146.017 120.025,133.683 118,121.5C 107.667,142.833 97.3333,164.167 87,185.5C 85.4207,187.041 83.5873,188.208 81.5,189C 75.8431,189.499 70.1764,189.666 64.5,189.5C 76.212,163.74 88.212,138.074 100.5,112.5C 97.3431,102.856 93.5098,93.523 89,84.5C 84.2844,90.0938 79.451,95.5938 74.5,101C 66.3492,103.282 58.0159,104.115 49.5,103.5C 49.3334,133.835 49.5,164.168 50,194.5C 59.0049,202.338 67.5049,210.672 75.5,219.5C 50.1667,219.5 24.8333,219.5 -0.5,219.5C -0.5,146.167 -0.5,72.8333 -0.5,-0.5 Z"/></g>
<g><path style="opacity:1" fill="#a7e3cc" d="M 50.5,16.5 C 50.5,39.5 50.5,62.5 50.5,85.5C 55.5,85.5 60.5,85.5 65.5,85.5C 60.3595,86.4881 55.0262,86.8214 49.5,86.5C 49.1691,62.994 49.5025,39.6607 50.5,16.5 Z"/></g>
<g><path style="opacity:1" fill="#fcfefd" d="M 50.5,16.5 C 90.1667,16.5 129.833,16.5 169.5,16.5C 169.5,58.5 169.5,100.5 169.5,142.5C 175.943,142.035 181.109,144.369 185,149.5C 187.468,155.073 189.635,160.74 191.5,166.5C 183.833,166.5 176.167,166.5 168.5,166.5C 168.173,176.015 168.506,185.348 169.5,194.5C 178.167,202.5 186.5,210.833 194.5,219.5C 168.167,219.5 141.833,219.5 115.5,219.5C 108.703,212.202 101.703,205.035 94.5,198C 91.3949,196.132 88.0615,194.965 84.5,194.5C 78.6544,193.183 72.6544,193.183 66.5,194.5C 66.6236,195.107 66.9569,195.44 67.5,195.5C 75.8333,203.167 83.8333,211.167 91.5,219.5C 86.1667,219.5 80.8333,219.5 75.5,219.5C 67.5049,210.672 59.0049,202.338 50,194.5C 49.5,164.168 49.3334,133.835 49.5,103.5C 58.0159,104.115 66.3492,103.282 74.5,101C 79.451,95.5938 84.2844,90.0938 89,84.5C 93.5098,93.523 97.3431,102.856 100.5,112.5C 88.212,138.074 76.212,163.74 64.5,189.5C 70.1764,189.666 75.8431,189.499 81.5,189C 83.5873,188.208 85.4207,187.041 87,185.5C 97.3333,164.167 107.667,142.833 118,121.5C 120.025,133.683 121.692,146.017 123,158.5C 124.018,160.928 125.852,162.262 128.5,162.5C 147.671,163.828 167.004,163.828 186.5,162.5C 186.376,161.893 186.043,161.56 185.5,161.5C 185.03,153.513 181.03,148.513 173.5,146.5C 162.346,145.505 151.012,145.172 139.5,145.5C 139.737,144.209 139.404,143.209 138.5,142.5C 137.476,129.827 136.309,117.16 135,104.5C 130.875,95.2549 127.042,85.9216 123.5,76.5C 128.056,74.5583 133.056,73.8917 138.5,74.5C 142.48,80.4494 145.98,86.7827 149,93.5C 150.167,94.6667 151.333,95.8333 152.5,97C 160.161,97.6699 163.327,94.1699 162,86.5C 157.667,78.5 153.333,70.5 149,62.5C 146.374,59.7692 143.207,57.9358 139.5,57C 123.433,56.046 107.433,56.3793 91.5,58C 90.1667,58.6667 88.8333,59.3333 87.5,60C 79.5578,68.1053 72.2244,76.6053 65.5,85.5C 60.5,85.5 55.5,85.5 50.5,85.5C 50.5,62.5 50.5,39.5 50.5,16.5 Z"/></g>
<g><path style="opacity:1" fill="#0eb06e" d="M 85.5,24.5 C 102.045,25.5971 107.545,33.9304 102,49.5C 94.5432,56.6627 86.5432,57.3294 78,51.5C 70.5605,39.7178 73.0605,30.7178 85.5,24.5 Z"/></g>
<g><path style="opacity:1" fill="#77d4b0" d="M 138.5,74.5 C 133.056,73.8917 128.056,74.5583 123.5,76.5C 122.596,75.791 122.263,74.791 122.5,73.5C 128.026,73.1786 133.36,73.5119 138.5,74.5 Z"/></g>
<g><path style="opacity:1" fill="#9bdfc5" d="M 138.5,142.5 C 139.404,143.209 139.737,144.209 139.5,145.5C 151.012,145.172 162.346,145.505 173.5,146.5C 161.833,146.5 150.167,146.5 138.5,146.5C 138.5,145.167 138.5,143.833 138.5,142.5 Z"/></g>
<g><path style="opacity:1" fill="#67cfa6" d="M 185.5,161.5 C 186.043,161.56 186.376,161.893 186.5,162.5C 167.004,163.828 147.671,163.828 128.5,162.5C 147.674,162.83 166.674,162.497 185.5,161.5 Z"/></g>
<g><path style="opacity:1" fill="#9ee0c6" d="M 191.5,166.5 C 184.352,167.492 177.019,167.825 169.5,167.5C 169.5,176.5 169.5,185.5 169.5,194.5C 168.506,185.348 168.173,176.015 168.5,166.5C 176.167,166.5 183.833,166.5 191.5,166.5 Z"/></g>
<g><path style="opacity:1" fill="#6dd1a9" d="M 84.5,194.5 C 78.642,194.178 72.9753,194.511 67.5,195.5C 66.9569,195.44 66.6236,195.107 66.5,194.5C 72.6544,193.183 78.6544,193.183 84.5,194.5 Z"/></g>
<g><path style="opacity:1" fill="#06af6c" d="M 67.5,195.5 C 72.9753,194.511 78.642,194.178 84.5,194.5C 88.0615,194.965 91.3949,196.132 94.5,198C 101.703,205.035 108.703,212.202 115.5,219.5C 107.5,219.5 99.5,219.5 91.5,219.5C 83.8333,211.167 75.8333,203.167 67.5,195.5 Z"/></g>
</svg>
