<?xml version="1.0" encoding="UTF-8"?>
<!DOCTYPE svg PUBLIC "-//W3C//DTD SVG 1.1//EN" "http://www.w3.org/Graphics/SVG/1.1/DTD/svg11.dtd">
<svg xmlns="http://www.w3.org/2000/svg" version="1.1" width="900px" height="512px" style="shape-rendering:geometricPrecision; text-rendering:geometricPrecision; image-rendering:optimizeQuality; fill-rule:evenodd; clip-rule:evenodd" xmlns:xlink="http://www.w3.org/1999/xlink">
<g><path style="opacity:0.027" fill="#f9f9f9" d="M 597.5,25.5 C 596.833,25.5 596.167,25.5 595.5,25.5C 518.826,24.8363 442.493,25.503 366.5,27.5C 361.303,27.3636 356.137,27.6969 351,28.5C 349.319,28.6083 348.152,29.2749 347.5,30.5C 347.167,30.5 346.833,30.5 346.5,30.5C 343.479,31.0049 340.479,31.6716 337.5,32.5C 336.287,32.7472 335.62,33.4138 335.5,34.5C 328.688,36.8189 322.355,39.9856 316.5,44C 313.142,47.9776 309.475,51.4776 305.5,54.5C 302.74,57.2533 301.407,60.7533 301.5,65C 301.859,68.5721 302.526,72.0721 303.5,75.5C 301.743,74.708 300.409,73.3747 299.5,71.5C 297.077,61.2427 300.077,52.9094 308.5,46.5C 309.429,45.3112 309.762,43.9778 309.5,42.5C 315.944,38.7759 322.611,35.2759 329.5,32C 334.768,31.1327 339.768,29.4661 344.5,27C 350.793,25.9774 357.126,25.3107 363.5,25C 377.859,24.8003 392.192,24.3003 406.5,23.5C 446.715,24.8083 486.882,24.8083 527,23.5C 550.598,24.1619 574.098,24.8286 597.5,25.5 Z"/></g>
<g><path style="opacity:0.21" fill="#8d8686" d="M 595.5,25.5 C 519.5,26.1667 443.5,26.8333 367.5,27.5C 367.167,27.5 366.833,27.5 366.5,27.5C 442.493,25.503 518.826,24.8363 595.5,25.5 Z"/></g>
<g><path style="opacity:0.814" fill="#7b7373" d="M 595.5,25.5 C 596.167,25.5 596.833,25.5 597.5,25.5C 598.5,25.5 599.5,25.5 600.5,25.5C 600.5,26.1667 600.5,26.8333 600.5,27.5C 522.833,27.5 445.167,27.5 367.5,27.5C 443.5,26.8333 519.5,26.1667 595.5,25.5 Z"/></g>
<g><path style="opacity:0.994" fill="#c34b33" d="M 200.5,30.5 C 204.517,33.2401 208.517,36.0734 212.5,39C 215.223,41.1089 217.223,43.7756 218.5,47C 215.315,51.0146 211.982,54.8479 208.5,58.5C 206.856,58.8102 205.856,59.8102 205.5,61.5C 199.092,67.2418 193.092,73.2418 187.5,79.5C 186.5,79.8333 185.833,80.5 185.5,81.5C 180.215,86.1186 175.215,91.1186 170.5,96.5C 168.833,97.5 167.5,98.8333 166.5,100.5C 162.9,102.931 159.733,105.931 157,109.5C 156.127,109.265 155.293,108.931 154.5,108.5C 149.446,103.438 145.113,97.7715 141.5,91.5C 131.904,69.9828 135.57,51.1495 152.5,35C 154.841,32.8037 157.508,31.3037 160.5,30.5C 163.461,30.5358 165.794,29.5358 167.5,27.5C 167.833,27.5 168.167,27.5 168.5,27.5C 172.465,26.9459 176.465,26.6126 180.5,26.5C 187.131,27.7587 193.798,29.092 200.5,30.5 Z"/></g>
<g><path style="opacity:0.954" fill="#504646" d="M 366.5,27.5 C 366.833,27.5 367.167,27.5 367.5,27.5C 445.167,27.5 522.833,27.5 600.5,27.5C 601.5,27.5 602.5,27.5 603.5,27.5C 523.334,28.333 443.001,28.833 362.5,29C 357.504,29.6107 352.504,30.1107 347.5,30.5C 348.152,29.2749 349.319,28.6083 351,28.5C 356.137,27.6969 361.303,27.3636 366.5,27.5 Z"/></g>
<g><path style="opacity:0.983" fill="#3b2f2f" d="M 603.5,27.5 C 629.5,27.5 655.5,27.5 681.5,27.5C 690.712,29.314 700.045,31.6473 709.5,34.5C 711.679,35.0592 713.846,35.7259 716,36.5C 722.584,41.7606 729.417,46.594 736.5,51C 741.389,56.5485 746.222,62.0485 751,67.5C 751.839,71.8634 753.339,75.8634 755.5,79.5C 756.13,81.7496 757.13,83.7496 758.5,85.5C 763.385,97.6306 764.718,110.297 762.5,123.5C 761.194,124.912 760.36,126.579 760,128.5C 758.698,129.085 757.531,129.751 756.5,130.5C 709.876,131.49 663.209,131.823 616.5,131.5C 616.5,226.5 616.5,321.5 616.5,416.5C 615.527,418.948 615.194,421.615 615.5,424.5C 615.784,426.415 615.451,428.081 614.5,429.5C 613.586,430.301 612.586,431.801 611.5,434C 610.767,435.766 610.433,437.599 610.5,439.5C 609.655,440.671 608.989,442.005 608.5,443.5C 608.5,444.167 608.5,444.833 608.5,445.5C 607.883,445.389 607.383,445.056 607,444.5C 604.94,448.058 603.107,451.725 601.5,455.5C 596.266,461.073 590.932,466.74 585.5,472.5C 584.264,473.246 582.93,473.579 581.5,473.5C 581.5,474.5 581.5,475.5 581.5,476.5C 579.518,476.995 577.518,477.495 575.5,478C 571.303,482.765 565.969,485.432 559.5,486C 557.184,487.298 555.184,488.798 553.5,490.5C 549.166,489.652 544.833,489.985 540.5,491.5C 428.65,490.823 316.65,490.157 204.5,489.5C 196.532,489.595 189.532,487.095 183.5,482C 181.122,481.489 178.788,480.822 176.5,480C 165.042,471.375 155.042,461.208 146.5,449.5C 143.388,442.944 140.555,436.277 138,429.5C 134.849,418.673 134.016,407.673 135.5,396.5C 136.555,392.111 139.222,389.445 143.5,388.5C 189.313,387.853 234.98,387.187 280.5,386.5C 280.333,363.164 280.5,339.831 281,316.5C 281.513,315.473 282.013,314.473 282.5,313.5C 282.5,313.167 282.5,312.833 282.5,312.5C 284.452,311.215 286.118,309.549 287.5,307.5C 288.167,307.167 288.833,306.833 289.5,306.5C 294.167,305.167 298.833,305.167 303.5,306.5C 306.667,307.168 309.167,308.834 311,311.5C 311.483,312.448 311.649,313.448 311.5,314.5C 312.483,329.755 312.817,345.089 312.5,360.5C 312.174,369.349 312.507,378.016 313.5,386.5C 313.369,387.376 313.702,388.043 314.5,388.5C 362.126,387.338 409.792,387.172 457.5,388C 460.207,388.395 462.873,388.895 465.5,389.5C 467.543,391.208 469.21,393.208 470.5,395.5C 470.334,401.509 470.501,407.509 471,413.5C 471.002,416.051 471.836,418.051 473.5,419.5C 475.595,425.024 478.262,430.357 481.5,435.5C 484.899,438.573 488.232,441.573 491.5,444.5C 495.992,449.315 501.325,452.981 507.5,455.5C 509.522,457.693 512.189,458.693 515.5,458.5C 521.152,459.032 526.819,459.365 532.5,459.5C 540.039,458.87 547.039,456.87 553.5,453.5C 557.035,451.992 560.369,449.992 563.5,447.5C 564.524,446.148 565.524,444.815 566.5,443.5C 568.833,441.833 570.833,439.833 572.5,437.5C 575.256,434.982 577.256,431.982 578.5,428.5C 580.802,423.302 582.802,417.969 584.5,412.5C 586.183,308.492 587.183,204.159 587.5,99.5C 587.659,93.0136 589.326,87.0136 592.5,81.5C 592.557,80.391 592.89,79.391 593.5,78.5C 596.018,72.9769 599.352,67.9769 603.5,63.5C 604.5,63.1667 605.167,62.5 605.5,61.5C 606.478,61.189 607.145,60.5223 607.5,59.5C 526.334,58.168 445.334,58.168 364.5,59.5C 364.5,59.8333 364.5,60.1667 364.5,60.5C 363.167,60.5 361.833,60.5 360.5,60.5C 356.797,60.9071 353.13,61.5737 349.5,62.5C 348.287,62.7472 347.62,63.4138 347.5,64.5C 342.54,67.316 337.54,70.1493 332.5,73C 331.08,75.2089 329.413,77.2089 327.5,79C 326.552,79.4828 325.552,79.6495 324.5,79.5C 321.236,80.3242 317.902,80.6576 314.5,80.5C 312.283,79.6314 309.95,79.298 307.5,79.5C 306.833,78.1667 306.167,76.8333 305.5,75.5C 302.834,68.4947 302.834,61.4947 305.5,54.5C 309.475,51.4776 313.142,47.9776 316.5,44C 322.355,39.9856 328.688,36.8189 335.5,34.5C 339.644,34.2231 343.311,32.8897 346.5,30.5C 346.833,30.5 347.167,30.5 347.5,30.5C 352.504,30.1107 357.504,29.6107 362.5,29C 443.001,28.833 523.334,28.333 603.5,27.5 Z"/></g>
<g><path style="opacity:0.694" fill="#d37f6f" d="M 168.5,25.5 C 175.863,25.1694 183.197,25.5027 190.5,26.5C 194.061,27.5425 197.394,28.8759 200.5,30.5C 193.798,29.092 187.131,27.7587 180.5,26.5C 176.465,26.6126 172.465,26.9459 168.5,27.5C 168.5,26.8333 168.5,26.1667 168.5,25.5 Z"/></g>
<g><path style="opacity:0.422" fill="#7c7373" d="M 681.5,27.5 C 691.818,26.9018 701.152,29.2351 709.5,34.5C 700.045,31.6473 690.712,29.314 681.5,27.5 Z"/></g>
<g><path style="opacity:0.459" fill="#d58f81" d="M 167.5,27.5 C 165.794,29.5358 163.461,30.5358 160.5,30.5C 162.32,28.5516 164.654,27.5516 167.5,27.5 Z"/></g>
<g><path style="opacity:0.831" fill="#746b6b" d="M 346.5,30.5 C 343.311,32.8897 339.644,34.2231 335.5,34.5C 335.62,33.4138 336.287,32.7472 337.5,32.5C 340.479,31.6716 343.479,31.0049 346.5,30.5 Z"/></g>
<g><path style="opacity:0.03" fill="#f6f5f5" d="M 600.5,25.5 C 628.835,25.3334 657.169,25.5 685.5,26C 701.964,27.6062 717.297,32.2729 731.5,40C 735.995,45.4943 740.828,50.6609 746,55.5C 746.483,56.448 746.649,57.448 746.5,58.5C 748.722,58.178 750.556,58.8446 752,60.5C 752.743,63.5112 754.076,66.1779 756,68.5C 756.822,71.1168 757.322,73.7835 757.5,76.5C 758.552,76.3505 759.552,76.5172 760.5,77C 760.056,78.5333 759.723,80.0333 759.5,81.5C 761.47,84.9001 763.137,88.4001 764.5,92C 763.978,92.5613 763.645,93.228 763.5,94C 764.756,95.8449 765.756,97.8449 766.5,100C 766.355,100.772 766.022,101.439 765.5,102C 767.037,103.11 767.703,104.61 767.5,106.5C 763.898,106.678 763.898,107.678 767.5,109.5C 766.5,110.833 765.5,112.167 764.5,113.5C 765.164,118.174 765.164,122.674 764.5,127C 761.777,130.891 758.11,133.391 753.5,134.5C 753.5,133.833 753.167,133.5 752.5,133.5C 752.5,133.167 752.5,132.833 752.5,132.5C 754.38,132.771 755.713,132.104 756.5,130.5C 757.531,129.751 758.698,129.085 760,128.5C 760.36,126.579 761.194,124.912 762.5,123.5C 764.718,110.297 763.385,97.6306 758.5,85.5C 758.614,82.784 757.614,80.784 755.5,79.5C 753.339,75.8634 751.839,71.8634 751,67.5C 746.222,62.0485 741.389,56.5485 736.5,51C 729.417,46.594 722.584,41.7606 716,36.5C 713.846,35.7259 711.679,35.0592 709.5,34.5C 701.152,29.2351 691.818,26.9018 681.5,27.5C 655.5,27.5 629.5,27.5 603.5,27.5C 602.5,27.5 601.5,27.5 600.5,27.5C 600.5,26.8333 600.5,26.1667 600.5,25.5 Z"/></g>
<g><path style="opacity:0.994" fill="#fefcfc" d="M 225.5,67.5 C 222.5,71.1667 219.167,74.5 215.5,77.5C 212.167,77.5 208.833,77.5 205.5,77.5C 205.5,72.1667 205.5,66.8333 205.5,61.5C 205.856,59.8102 206.856,58.8102 208.5,58.5C 214.106,57.5931 219.773,57.2598 225.5,57.5C 225.5,60.8333 225.5,64.1667 225.5,67.5 Z"/></g>
<g><path style="opacity:0.789" fill="#5a4f4f" d="M 364.5,59.5 C 445.334,58.168 526.334,58.168 607.5,59.5C 607.145,60.5223 606.478,61.189 605.5,61.5C 525.507,59.5028 445.174,58.8362 364.5,59.5 Z"/></g>
<g><path style="opacity:0.469" fill="#847c7c" d="M 364.5,60.5 C 364.5,60.1667 364.5,59.8333 364.5,59.5C 445.174,58.8362 525.507,59.5028 605.5,61.5C 605.167,62.5 604.5,63.1667 603.5,63.5C 603.5,62.8333 603.5,62.1667 603.5,61.5C 524.571,60.5003 444.904,60.1669 364.5,60.5 Z"/></g>
<g><path style="opacity:0.737" fill="#706767" d="M 305.5,54.5 C 302.834,61.4947 302.834,68.4947 305.5,75.5C 304.833,75.5 304.167,75.5 303.5,75.5C 302.526,72.0721 301.859,68.5721 301.5,65C 301.407,60.7533 302.74,57.2533 305.5,54.5 Z"/></g>
<g><path style="opacity:0.101" fill="#fdfdfd" d="M 360.5,60.5 C 361.833,60.5 363.167,60.5 364.5,60.5C 444.904,60.1669 524.571,60.5003 603.5,61.5C 599.5,61.5 595.5,61.5 591.5,61.5C 592.017,65.6425 592.017,69.6425 591.5,73.5C 591.667,74.8333 591.833,76.1667 592,77.5C 593.107,76.2881 593.607,76.6214 593.5,78.5C 592.89,79.391 592.557,80.391 592.5,81.5C 590.984,80.1003 589.317,78.767 587.5,77.5C 585.862,78.7046 585.529,80.0379 586.5,81.5C 585.982,84.7945 584.648,87.6278 582.5,90C 582.616,91.2682 582.949,92.6015 583.5,94C 582.833,95.3333 582.167,96.6667 581.5,98C 584.383,98.7954 585.883,97.6287 586,94.5C 586.494,96.1341 586.66,97.8008 586.5,99.5C 585.833,103.167 585.167,106.833 584.5,110.5C 583.703,116.161 582.703,121.161 581.5,125.5C 582.758,136.249 583.258,147.583 583,159.5C 581.09,165.19 580.59,170.69 581.5,176C 578.462,179.196 578.962,180.03 583,178.5C 583.5,185.492 583.666,192.492 583.5,199.5C 579.4,199.553 576.734,201.553 575.5,205.5C 575.659,210.451 575.659,215.285 575.5,220C 578.146,220.497 580.813,220.664 583.5,220.5C 583.666,227.175 583.5,233.842 583,240.5C 579.21,239.864 575.377,239.197 571.5,238.5C 570.897,237.365 570.564,236.365 570.5,235.5C 570.167,236 569.833,236.5 569.5,237C 570.74,245.057 570.74,253.39 569.5,262C 571.115,265.088 571.782,264.588 571.5,260.5C 575.5,260.5 579.5,260.5 583.5,260.5C 583.5,267.167 583.5,273.833 583.5,280.5C 579.003,281.055 574.836,280.389 571,278.5C 570.5,279 570,279.5 569.5,280C 570.643,286.603 571.81,293.436 573,300.5C 576.394,301.456 579.894,301.789 583.5,301.5C 583.5,308.167 583.5,314.833 583.5,321.5C 580.881,321.768 578.381,321.435 576,320.5C 575.626,321.416 575.126,322.25 574.5,323C 574.743,325.545 574.743,328.045 574.5,330.5C 576.416,333.723 576.749,337.057 575.5,340.5C 575.808,341.308 576.308,341.975 577,342.5C 579.041,341.577 581.208,341.244 583.5,341.5C 583.5,348.5 583.5,355.5 583.5,362.5C 581.533,362.739 579.699,362.406 578,361.5C 577.25,362.126 576.416,362.626 575.5,363C 576.466,368.013 576.466,373.18 575.5,378.5C 577.109,381.894 579.776,383.227 583.5,382.5C 583.5,389.167 583.5,395.833 583.5,402.5C 579.952,402.095 576.619,402.595 573.5,404C 574.019,406.026 574.353,408.026 574.5,410C 573.411,412.851 572.078,415.518 570.5,418C 570.616,419.268 570.949,420.602 571.5,422C 574.146,422.497 576.813,422.664 579.5,422.5C 579.167,424.5 578.833,426.5 578.5,428.5C 577.256,431.982 575.256,434.982 572.5,437.5C 570.72,433.273 569.886,428.606 570,423.5C 568.04,427.101 565.374,430.101 562,432.5C 561.667,433.5 561.333,434.5 561,435.5C 558.137,438.606 554.97,440.439 551.5,441C 550.748,441.671 550.414,442.504 550.5,443.5C 544.317,445.042 537.984,447.042 531.5,449.5C 531.023,450.478 530.357,451.311 529.5,452C 530.027,454.76 531.027,457.26 532.5,459.5C 526.819,459.365 521.152,459.032 515.5,458.5C 513.403,456.518 510.736,455.518 507.5,455.5C 501.325,452.981 495.992,449.315 491.5,444.5C 491.5,443.833 491.5,443.167 491.5,442.5C 495.475,442.817 498.475,444.651 500.5,448C 508.383,450.104 516.383,450.771 524.5,450C 527.946,449.111 530.946,447.444 533.5,445C 537.894,444.697 542.227,444.03 546.5,443C 554.114,435.597 561.614,428.097 569,420.5C 571.213,415.122 571.713,409.622 570.5,404C 571.037,398.572 572.037,393.238 573.5,388C 573.084,376.215 573.084,364.382 573.5,352.5C 571.127,324.203 569.127,295.87 567.5,267.5C 567.679,262.924 568.346,258.424 569.5,254C 567.039,242.827 567.206,231.66 570,220.5C 572.896,218.624 574.062,215.957 573.5,212.5C 573.776,207.923 573.109,203.257 571.5,198.5C 572.822,198.67 573.989,198.337 575,197.5C 575.496,186.12 576.496,174.787 578,163.5C 580.931,155.693 581.264,147.693 579,139.5C 578.075,138.953 577.242,138.287 576.5,137.5C 577.057,135.765 577.39,134.098 577.5,132.5C 575.675,129.123 575.008,125.457 575.5,121.5C 573.365,121.853 572.032,121.02 571.5,119C 573.023,117.146 574.856,115.646 577,114.5C 577.844,111.394 577.344,108.561 575.5,106C 577.117,102.026 577.95,97.8594 578,93.5C 580.755,89.3661 581.922,84.6994 581.5,79.5C 582.5,79.5 583.5,79.5 584.5,79.5C 584.5,77.1667 584.5,74.8333 584.5,72.5C 585.5,72.5 586.5,72.5 587.5,72.5C 587.808,70.076 587.474,67.7427 586.5,65.5C 582.221,64.726 577.887,64.226 573.5,64C 573.833,63.6667 574.167,63.3333 574.5,63C 571.767,62.2421 569.267,62.7421 567,64.5C 563.237,62.0822 559.403,62.0822 555.5,64.5C 523.561,63.1883 491.561,62.5217 459.5,62.5C 427.748,62.5145 396.081,63.1812 364.5,64.5C 363.353,64.1822 362.519,63.5156 362,62.5C 357.621,63.1189 353.787,64.7856 350.5,67.5C 350.167,66.1667 349.833,66.1667 349.5,67.5C 345.276,69.058 341.276,71.058 337.5,73.5C 336.905,75.8935 335.572,77.7268 333.5,79C 332.256,79.4561 331.423,78.9561 331,77.5C 328.652,81.3493 325.152,83.016 320.5,82.5C 322.219,81.9779 323.552,80.9779 324.5,79.5C 325.552,79.6495 326.552,79.4828 327.5,79C 329.413,77.2089 331.08,75.2089 332.5,73C 337.54,70.1493 342.54,67.316 347.5,64.5C 352.291,63.8982 356.624,62.5648 360.5,60.5 Z"/></g>
<g><path style="opacity:0.278" fill="#7f7878" d="M 360.5,60.5 C 356.624,62.5648 352.291,63.8982 347.5,64.5C 347.62,63.4138 348.287,62.7472 349.5,62.5C 353.13,61.5737 356.797,60.9071 360.5,60.5 Z"/></g>
<g><path style="opacity:0.473" fill="#e4e3e3" d="M 603.5,61.5 C 603.5,62.1667 603.5,62.8333 603.5,63.5C 599.352,67.9769 596.018,72.9769 593.5,78.5C 593.607,76.6214 593.107,76.2881 592,77.5C 591.833,76.1667 591.667,74.8333 591.5,73.5C 592.017,69.6425 592.017,65.6425 591.5,61.5C 595.5,61.5 599.5,61.5 603.5,61.5 Z"/></g>
<g><path style="opacity:0.996" fill="#e7e2e1" d="M 205.5,61.5 C 205.5,66.8333 205.5,72.1667 205.5,77.5C 208.833,77.5 212.167,77.5 215.5,77.5C 212.833,80.8333 209.833,83.8333 206.5,86.5C 205.735,83.9039 205.401,81.2372 205.5,78.5C 199.409,78.2114 193.409,78.5447 187.5,79.5C 193.092,73.2418 199.092,67.2418 205.5,61.5 Z"/></g>
<g><path style="opacity:0.993" fill="#c34a32" d="M 326.5,213.5 C 324.833,214.5 323.5,215.833 322.5,217.5C 316.167,223.167 310.167,229.167 304.5,235.5C 300.828,238.84 297.161,242.173 293.5,245.5C 292.5,245 291.5,244.5 290.5,244C 251.586,203.752 212.086,164.252 172,125.5C 171.333,124.167 171.333,122.833 172,121.5C 173.045,120.627 173.878,119.627 174.5,118.5C 185.5,108.167 196.167,97.5 206.5,86.5C 209.833,83.8333 212.833,80.8333 215.5,77.5C 219.167,74.5 222.5,71.1667 225.5,67.5C 227.848,65.3198 230.348,63.3198 233,61.5C 235.455,62.6279 237.622,64.1279 239.5,66C 277.731,104.231 315.898,142.398 354,180.5C 354.982,181.759 355.315,183.092 355,184.5C 345.298,194.035 335.798,203.702 326.5,213.5 Z"/></g>
<g><path style="opacity:0.004" fill="#fefffe" d="M 349.5,67.5 C 349.833,67.5 350.167,67.5 350.5,67.5C 350.315,68.1701 349.981,68.1701 349.5,67.5 Z"/></g>
<g><path style="opacity:0.026" fill="#f2f2f2" d="M 303.5,75.5 C 304.167,75.5 304.833,75.5 305.5,75.5C 306.167,76.8333 306.833,78.1667 307.5,79.5C 304.5,79.8333 303.167,78.5 303.5,75.5 Z"/></g>
<g><path style="opacity:0.173" fill="#e2e1e1" d="M 592.5,81.5 C 589.326,87.0136 587.659,93.0136 587.5,99.5C 587.167,99.5 586.833,99.5 586.5,99.5C 586.66,97.8008 586.494,96.1341 586,94.5C 585.883,97.6287 584.383,98.7954 581.5,98C 582.167,96.6667 582.833,95.3333 583.5,94C 582.949,92.6015 582.616,91.2682 582.5,90C 584.648,87.6278 585.982,84.7945 586.5,81.5C 585.529,80.0379 585.862,78.7046 587.5,77.5C 589.317,78.767 590.984,80.1003 592.5,81.5 Z"/></g>
<g><path style="opacity:0.082" fill="#8b8282" d="M 755.5,79.5 C 757.614,80.784 758.614,82.784 758.5,85.5C 757.13,83.7496 756.13,81.7496 755.5,79.5 Z"/></g>
<g><path style="opacity:0.145" fill="#c0bcbc" d="M 307.5,79.5 C 309.95,79.298 312.283,79.6314 314.5,80.5C 314.5,81.1667 314.5,81.8333 314.5,82.5C 311.509,82.8337 309.176,81.8337 307.5,79.5 Z"/></g>
<g><path style="opacity:0.19" fill="#968f8f" d="M 324.5,79.5 C 323.552,80.9779 322.219,81.9779 320.5,82.5C 318.611,83.7416 316.611,83.7416 314.5,82.5C 314.5,81.8333 314.5,81.1667 314.5,80.5C 317.902,80.6576 321.236,80.3242 324.5,79.5 Z"/></g>
<g><path style="opacity:0.996" fill="#e5e2e1" d="M 185.5,81.5 C 184.551,86.7401 184.218,92.0735 184.5,97.5C 179.77,97.7166 175.103,97.3833 170.5,96.5C 175.215,91.1186 180.215,86.1186 185.5,81.5 Z"/></g>
<g><path style="opacity:0.993" fill="#fbfafa" d="M 206.5,86.5 C 196.167,97.5 185.5,108.167 174.5,118.5C 171.5,118.5 168.5,118.5 165.5,118.5C 165.211,112.409 165.545,106.409 166.5,100.5C 167.5,98.8333 168.833,97.5 170.5,96.5C 175.103,97.3833 179.77,97.7166 184.5,97.5C 184.218,92.0735 184.551,86.7401 185.5,81.5C 185.833,80.5 186.5,79.8333 187.5,79.5C 193.409,78.5447 199.409,78.2114 205.5,78.5C 205.401,81.2372 205.735,83.9039 206.5,86.5 Z"/></g>
<g><path style="opacity:0.004" fill="#fefffe" d="M 542.5,119.5 C 543.251,118.427 544.251,118.26 545.5,119C 544.552,119.483 543.552,119.649 542.5,119.5 Z"/></g>
<g><path style="opacity:0.029" fill="#f9f5f5" d="M 554.5,137.5 C 552.879,135.77 551.545,133.77 550.5,131.5C 549.33,129.721 547.664,128.721 545.5,128.5C 545.5,127.833 545.167,127.5 544.5,127.5C 543.666,126.252 542.333,125.585 540.5,125.5C 507.01,126.139 473.677,126.806 440.5,127.5C 438.152,127.592 436.486,128.592 435.5,130.5C 434.89,131.391 434.557,132.391 434.5,133.5C 432.389,134.77 431.389,136.77 431.5,139.5C 431.436,141.557 432.102,143.223 433.5,144.5C 434.765,146.791 436.098,149.125 437.5,151.5C 433.336,151.857 430.169,150.19 428,146.5C 427.941,143.178 426.774,140.344 424.5,138C 426.02,135.46 427.02,132.627 427.5,129.5C 429.976,128.191 431.976,126.358 433.5,124C 439.312,122.38 445.145,122.213 451,123.5C 456.047,122.883 461.047,122.217 466,121.5C 488.745,123.317 511.578,123.817 534.5,123C 535.025,122.308 535.692,121.808 536.5,121.5C 547.199,121.531 553.199,126.865 554.5,137.5 Z"/></g>
<g><path style="opacity:0.758" fill="#d9988c" d="M 544.5,127.5 C 509.833,127.5 475.167,127.5 440.5,127.5C 473.677,126.806 507.01,126.139 540.5,125.5C 542.333,125.585 543.666,126.252 544.5,127.5 Z"/></g>
<g><path style="opacity:0.976" fill="#cc6b58" d="M 440.5,127.5 C 475.167,127.5 509.833,127.5 544.5,127.5C 545.167,127.5 545.5,127.833 545.5,128.5C 510.165,128.333 474.832,128.5 439.5,129C 438.099,129.41 436.766,129.91 435.5,130.5C 436.486,128.592 438.152,127.592 440.5,127.5 Z"/></g>
<g><path style="opacity:0.986" fill="#c34a32" d="M 545.5,128.5 C 547.664,128.721 549.33,129.721 550.5,131.5C 552.049,136.978 551.715,142.312 549.5,147.5C 548.235,148.479 546.901,149.479 545.5,150.5C 509.84,151.5 474.173,151.833 438.5,151.5C 438.167,151.5 437.833,151.5 437.5,151.5C 436.098,149.125 434.765,146.791 433.5,144.5C 433.244,140.731 433.577,137.064 434.5,133.5C 434.557,132.391 434.89,131.391 435.5,130.5C 436.766,129.91 438.099,129.41 439.5,129C 474.832,128.5 510.165,128.333 545.5,128.5 Z"/></g>
<g><path style="opacity:0.015" fill="#fafafa" d="M 753.5,134.5 C 712.002,135.333 670.335,135.833 628.5,136C 625.881,136.151 623.547,136.985 621.5,138.5C 620.821,213.176 620.155,287.843 619.5,362.5C 619.93,377.529 620.263,392.529 620.5,407.5C 619.02,412.755 617.853,418.089 617,423.5C 616.617,424.056 616.117,424.389 615.5,424.5C 615.194,421.615 615.527,418.948 616.5,416.5C 617.497,394.673 617.831,372.673 617.5,350.5C 618.496,337.344 618.829,324.01 618.5,310.5C 619.499,252.002 619.832,193.336 619.5,134.5C 664.167,134.5 708.833,134.5 753.5,134.5 Z"/></g>
<g><path style="opacity:0.751" fill="#d27e6d" d="M 434.5,133.5 C 433.577,137.064 433.244,140.731 433.5,144.5C 432.102,143.223 431.436,141.557 431.5,139.5C 431.389,136.77 432.389,134.77 434.5,133.5 Z"/></g>
<g><path style="opacity:0.004" fill="#fefffe" d="M 655.5,137.5 C 656.946,136.387 658.613,136.22 660.5,137C 658.866,137.494 657.199,137.66 655.5,137.5 Z"/></g>
<g><path style="opacity:0.004" fill="#fefffe" d="M 736.5,137.5 C 738.966,136.366 741.633,136.199 744.5,137C 741.854,137.497 739.187,137.664 736.5,137.5 Z"/></g>
<g><path style="opacity:0.004" fill="#fefffe" d="M 554.5,137.5 C 558.5,138.833 558.5,140.167 554.5,141.5C 554.5,140.167 554.5,138.833 554.5,137.5 Z"/></g>
<g><path style="opacity:0.017" fill="#f2eeed" d="M 168.5,25.5 C 168.5,26.1667 168.5,26.8333 168.5,27.5C 168.167,27.5 167.833,27.5 167.5,27.5C 164.654,27.5516 162.32,28.5516 160.5,30.5C 157.508,31.3037 154.841,32.8037 152.5,35C 135.57,51.1495 131.904,69.9828 141.5,91.5C 145.113,97.7715 149.446,103.438 154.5,108.5C 155.293,108.931 156.127,109.265 157,109.5C 159.733,105.931 162.9,102.931 166.5,100.5C 165.545,106.409 165.211,112.409 165.5,118.5C 168.5,118.5 171.5,118.5 174.5,118.5C 173.878,119.627 173.045,120.627 172,121.5C 171.333,122.833 171.333,124.167 172,125.5C 212.086,164.252 251.586,203.752 290.5,244C 291.5,244.5 292.5,245 293.5,245.5C 297.161,242.173 300.828,238.84 304.5,235.5C 305.496,235.586 306.329,235.252 307,234.5C 307.494,236.134 307.66,237.801 307.5,239.5C 313.358,239.178 319.025,239.511 324.5,240.5C 319.167,246.167 313.833,251.833 308.5,257.5C 306.401,258.37 306.068,259.703 307.5,261.5C 309.777,262.421 312.11,263.087 314.5,263.5C 314.833,263.5 315.167,263.5 315.5,263.5C 317.339,266.135 320.006,267.468 323.5,267.5C 327.845,269.336 331.845,271.669 335.5,274.5C 324.31,271.749 313.81,267.416 304,261.5C 298.966,260.856 294.132,259.523 289.5,257.5C 288.623,254.175 288.456,250.842 289,247.5C 285.027,242.027 280.527,237.027 275.5,232.5C 274.914,232.709 274.414,233.043 274,233.5C 272.187,231.239 270.687,228.905 269.5,226.5C 268.5,226.5 267.5,226.5 266.5,226.5C 261.749,218.581 255.416,212.081 247.5,207C 249.878,206.026 249.544,205.359 246.5,205C 242.095,198.569 236.595,193.402 230,189.5C 223.692,179.858 215.692,171.858 206,165.5C 203.439,160.142 199.606,155.975 194.5,153C 195.833,152.333 195.833,151.667 194.5,151C 193.026,149.684 191.359,148.684 189.5,148C 184.961,142.632 180.295,137.466 175.5,132.5C 173.01,130.917 170.343,129.917 167.5,129.5C 167.5,128.167 167.5,126.833 167.5,125.5C 163.148,123.635 160.315,120.302 159,115.5C 150.918,110.306 143.918,103.973 138,96.5C 136.412,91.8549 134.579,87.3549 132.5,83C 132.645,82.228 132.978,81.5613 133.5,81C 132.056,77.3412 131.39,73.5079 131.5,69.5C 132.058,44.6046 144.392,29.9379 168.5,25.5 Z"/></g>
<g><path style="opacity:0.447" fill="#d48575" d="M 550.5,131.5 C 551.545,133.77 552.879,135.77 554.5,137.5C 554.5,138.833 554.5,140.167 554.5,141.5C 553.107,143.705 551.441,145.705 549.5,147.5C 551.715,142.312 552.049,136.978 550.5,131.5 Z"/></g>
<g><path style="opacity:0.012" fill="#fdfbfb" d="M 554.5,141.5 C 555.215,147.595 552.548,151.095 546.5,152C 510.331,152.831 474.331,152.664 438.5,151.5C 474.173,151.833 509.84,151.5 545.5,150.5C 546.901,149.479 548.235,148.479 549.5,147.5C 551.441,145.705 553.107,143.705 554.5,141.5 Z"/></g>
<g><path style="opacity:0.217" fill="#817979" d="M 752.5,132.5 C 752.5,132.833 752.5,133.167 752.5,133.5C 707.833,133.5 663.167,133.5 618.5,133.5C 618.5,192.5 618.5,251.5 618.5,310.5C 618.829,324.01 618.496,337.344 617.5,350.5C 617.5,277.833 617.5,205.167 617.5,132.5C 662.5,132.5 707.5,132.5 752.5,132.5 Z"/></g>
<g><path style="opacity:0.041" fill="#faf9f9" d="M 544.5,204.5 C 544.5,203.833 544.5,203.167 544.5,202.5C 546.94,201.762 548.94,200.429 550.5,198.5C 552.421,196.608 553.754,194.275 554.5,191.5C 553.645,188.456 552.312,185.79 550.5,183.5C 549.728,182.306 548.728,181.306 547.5,180.5C 546.411,178.883 544.744,178.05 542.5,178C 509.167,177.333 475.833,177.333 442.5,178C 440.563,178.122 439.23,178.955 438.5,180.5C 437.761,180.369 437.094,180.536 436.5,181C 435.601,182.652 434.601,184.152 433.5,185.5C 431.034,189.248 430.867,193.248 433,197.5C 433.383,198.056 433.883,198.389 434.5,198.5C 435.272,199.694 436.272,200.694 437.5,201.5C 438.1,202.9 439.1,203.9 440.5,204.5C 437.784,204.322 435.117,203.822 432.5,203C 431.667,200.833 430.167,199.333 428,198.5C 426.779,192.173 426.279,185.84 426.5,179.5C 432.198,177.806 437.698,175.806 443,173.5C 444.812,173.493 446.312,174.16 447.5,175.5C 448.308,175.192 448.975,174.692 449.5,174C 461.015,172.953 472.349,173.453 483.5,175.5C 490.619,175.608 497.785,175.274 505,174.5C 506.811,175.078 508.645,175.578 510.5,176C 522.5,176.333 534.5,176.667 546.5,177C 552.456,180.293 556.122,185.293 557.5,192C 555.891,199.111 551.558,203.277 544.5,204.5 Z"/></g>
<g><path style="opacity:0.944" fill="#d78f81" d="M 547.5,180.5 C 511.125,179.179 474.791,179.179 438.5,180.5C 439.23,178.955 440.563,178.122 442.5,178C 475.833,177.333 509.167,177.333 542.5,178C 544.744,178.05 546.411,178.883 547.5,180.5 Z"/></g>
<g><path style="opacity:0.992" fill="#c34a32" d="M 547.5,180.5 C 548.728,181.306 549.728,182.306 550.5,183.5C 551.833,188.5 551.833,193.5 550.5,198.5C 548.94,200.429 546.94,201.762 544.5,202.5C 508.79,202.82 473.124,202.487 437.5,201.5C 436.272,200.694 435.272,199.694 434.5,198.5C 433.627,194.232 433.294,189.898 433.5,185.5C 434.601,184.152 435.601,182.652 436.5,181C 437.094,180.536 437.761,180.369 438.5,180.5C 474.791,179.179 511.125,179.179 547.5,180.5 Z"/></g>
<g><path style="opacity:0.543" fill="#eeeae9" d="M 371.5,197.5 C 370.127,197.343 368.793,197.51 367.5,198C 359.965,205.702 352.298,213.202 344.5,220.5C 339.025,219.511 333.358,219.178 327.5,219.5C 327.795,217.265 327.461,215.265 326.5,213.5C 335.798,203.702 345.298,194.035 355,184.5C 355.315,183.092 354.982,181.759 354,180.5C 315.898,142.398 277.731,104.231 239.5,66C 237.622,64.1279 235.455,62.6279 233,61.5C 230.348,63.3198 227.848,65.3198 225.5,67.5C 225.5,64.1667 225.5,60.8333 225.5,57.5C 219.773,57.2598 214.106,57.5931 208.5,58.5C 211.982,54.8479 215.315,51.0146 218.5,47C 217.223,43.7756 215.223,41.1089 212.5,39C 208.517,36.0734 204.517,33.2401 200.5,30.5C 197.394,28.8759 194.061,27.5425 190.5,26.5C 183.197,25.5027 175.863,25.1694 168.5,25.5C 173.344,24.7348 178.344,24.0682 183.5,23.5C 189.56,24.3482 195.56,25.5149 201.5,27C 205.96,31.4682 210.96,35.1349 216.5,38C 218.413,41.3681 220.913,44.2014 224,46.5C 225.267,49.2746 226.767,51.9413 228.5,54.5C 238.021,59.46 245.854,66.46 252,75.5C 276.351,98.5176 300.018,122.184 323,146.5C 323.333,146.167 323.667,145.833 324,145.5C 333.266,155.272 342.433,165.272 351.5,175.5C 353.833,177 356.167,178.5 358.5,180C 357.253,181.494 357.253,182.994 358.5,184.5C 363.489,188.114 367.823,192.447 371.5,197.5 Z"/></g>
<g><path style="opacity:0.762" fill="#d38574" d="M 433.5,185.5 C 433.294,189.898 433.627,194.232 434.5,198.5C 433.883,198.389 433.383,198.056 433,197.5C 430.867,193.248 431.034,189.248 433.5,185.5 Z"/></g>
<g><path style="opacity:0.556" fill="#d6897a" d="M 550.5,183.5 C 552.312,185.79 553.645,188.456 554.5,191.5C 553.754,194.275 552.421,196.608 550.5,198.5C 551.833,193.5 551.833,188.5 550.5,183.5 Z"/></g>
<g><path style="opacity:0.99" fill="#c34b33" d="M 371.5,197.5 C 372.371,200.112 373.037,202.779 373.5,205.5C 375.624,210.209 377.624,215.043 379.5,220C 379.836,221.03 380.503,221.53 381.5,221.5C 383.25,223.059 384.25,225.059 384.5,227.5C 384.896,230.721 386.229,233.388 388.5,235.5C 391.465,241.3 394.132,247.3 396.5,253.5C 396.75,255.674 397.75,257.341 399.5,258.5C 399.5,259.167 399.833,259.5 400.5,259.5C 400.603,262.636 401.603,265.302 403.5,267.5C 403.5,267.833 403.5,268.167 403.5,268.5C 404.095,271.317 405.428,273.65 407.5,275.5C 409.899,280.519 412.399,285.519 415,290.5C 416.227,293.874 416.394,297.208 415.5,300.5C 410.134,304.129 404.468,304.462 398.5,301.5C 398.167,301.5 397.833,301.5 397.5,301.5C 395.299,299.582 392.632,298.249 389.5,297.5C 383.507,294.956 377.507,292.289 371.5,289.5C 369.68,287.552 367.346,286.552 364.5,286.5C 362.211,284.613 359.545,283.279 356.5,282.5C 353.925,280.425 350.925,279.091 347.5,278.5C 345.5,278.167 343.5,277.833 341.5,277.5C 340.077,275.455 338.077,274.455 335.5,274.5C 331.845,271.669 327.845,269.336 323.5,267.5C 321.299,265.582 318.632,264.249 315.5,263.5C 315.167,263.5 314.833,263.5 314.5,263.5C 313.264,261.957 311.598,260.957 309.5,260.5C 308.614,259.675 308.281,258.675 308.5,257.5C 313.833,251.833 319.167,246.167 324.5,240.5C 325.833,239.833 326.833,238.833 327.5,237.5C 333.5,232.167 339.167,226.5 344.5,220.5C 352.298,213.202 359.965,205.702 367.5,198C 368.793,197.51 370.127,197.343 371.5,197.5 Z"/></g>
<g><path style="opacity:0.059" fill="#e2e1e1" d="M 752.5,133.5 C 753.167,133.5 753.5,133.833 753.5,134.5C 708.833,134.5 664.167,134.5 619.5,134.5C 619.832,193.336 619.499,252.002 618.5,310.5C 618.5,251.5 618.5,192.5 618.5,133.5C 663.167,133.5 707.833,133.5 752.5,133.5 Z"/></g>
<g><path style="opacity:0.365" fill="#4c4141" d="M 756.5,130.5 C 755.713,132.104 754.38,132.771 752.5,132.5C 707.5,132.5 662.5,132.5 617.5,132.5C 617.5,205.167 617.5,277.833 617.5,350.5C 617.831,372.673 617.497,394.673 616.5,416.5C 616.5,321.5 616.5,226.5 616.5,131.5C 663.209,131.823 709.876,131.49 756.5,130.5 Z"/></g>
<g><path style="opacity:0.165" fill="#e3aea4" d="M 437.5,201.5 C 473.124,202.487 508.79,202.82 544.5,202.5C 544.5,203.167 544.5,203.833 544.5,204.5C 509.736,205.829 475.069,205.829 440.5,204.5C 439.1,203.9 438.1,202.9 437.5,201.5 Z"/></g>
<g><path style="opacity:0.027" fill="#f5f2f2" d="M 371.5,197.5 C 373.193,198.475 374.693,199.808 376,201.5C 376.661,204.946 377.495,208.279 378.5,211.5C 377.107,209.295 375.441,207.295 373.5,205.5C 373.037,202.779 372.371,200.112 371.5,197.5 Z"/></g>
<g><path style="opacity:0.512" fill="#d58877" d="M 373.5,205.5 C 375.441,207.295 377.107,209.295 378.5,211.5C 379.101,214.968 380.101,218.301 381.5,221.5C 380.503,221.53 379.836,221.03 379.5,220C 377.624,215.043 375.624,210.209 373.5,205.5 Z"/></g>
<g><path style="opacity:0.996" fill="#e7e4e3" d="M 322.5,217.5 C 322.586,218.496 322.252,219.329 321.5,220C 323.473,220.495 325.473,220.662 327.5,220.5C 327.5,226.167 327.5,231.833 327.5,237.5C 326.833,238.833 325.833,239.833 324.5,240.5C 319.025,239.511 313.358,239.178 307.5,239.5C 307.66,237.801 307.494,236.134 307,234.5C 306.329,235.252 305.496,235.586 304.5,235.5C 310.167,229.167 316.167,223.167 322.5,217.5 Z"/></g>
<g><path style="opacity:0.996" fill="#fcf9f8" d="M 326.5,213.5 C 327.461,215.265 327.795,217.265 327.5,219.5C 333.358,219.178 339.025,219.511 344.5,220.5C 339.167,226.5 333.5,232.167 327.5,237.5C 327.5,231.833 327.5,226.167 327.5,220.5C 325.473,220.662 323.473,220.495 321.5,220C 322.252,219.329 322.586,218.496 322.5,217.5C 323.5,215.833 324.833,214.5 326.5,213.5 Z"/></g>
<g><path style="opacity:0.911" fill="#675e5e" d="M 586.5,99.5 C 586.833,99.5 587.167,99.5 587.5,99.5C 587.183,204.159 586.183,308.492 584.5,412.5C 584.5,311.833 584.5,211.167 584.5,110.5C 585.167,106.833 585.833,103.167 586.5,99.5 Z"/></g>
<g><path style="opacity:0.03" fill="#f9f3f2" d="M 439.5,257.5 C 428.527,253.183 424.694,245.183 428,233.5C 428.785,231.714 429.951,230.214 431.5,229C 435.111,227.112 438.944,225.945 443,225.5C 477.837,226.072 512.671,226.905 547.5,228C 555.374,232.611 558.207,239.444 556,248.5C 553.038,252.881 549.538,256.714 545.5,260C 533.697,259.357 521.864,258.857 510,258.5C 491.271,258.289 472.604,258.623 454,259.5C 448.921,259.595 444.088,258.928 439.5,257.5 Z"/></g>
<g><path style="opacity:0.958" fill="#cf7462" d="M 549.5,232.5 C 511.5,231.167 473.5,231.167 435.5,232.5C 436.6,231.442 437.934,230.608 439.5,230C 474.833,229.333 510.167,229.333 545.5,230C 547.066,230.608 548.4,231.442 549.5,232.5 Z"/></g>
<g><path style="opacity:0.231" fill="#dc9688" d="M 384.5,227.5 C 386.755,229.531 388.088,232.198 388.5,235.5C 386.229,233.388 384.896,230.721 384.5,227.5 Z"/></g>
<g><path style="opacity:0.992" fill="#c34a32" d="M 549.5,232.5 C 551.69,233.374 552.69,235.041 552.5,237.5C 553.833,241.167 553.833,244.833 552.5,248.5C 551.25,250.154 549.916,251.821 548.5,253.5C 511.197,254.481 473.864,254.815 436.5,254.5C 433.229,252.52 431.562,249.52 431.5,245.5C 431.5,243.167 431.5,240.833 431.5,238.5C 432.057,235.95 433.39,233.95 435.5,232.5C 473.5,231.167 511.5,231.167 549.5,232.5 Z"/></g>
<g><path style="opacity:0.037" fill="#faf6f5" d="M 378.5,211.5 C 382.58,214.659 384.747,218.992 385,224.5C 388.996,228.687 391.496,233.687 392.5,239.5C 395.97,245.767 399.47,252.1 403,258.5C 403.661,261.946 404.495,265.279 405.5,268.5C 404.833,268.5 404.167,268.5 403.5,268.5C 403.5,268.167 403.5,267.833 403.5,267.5C 403.097,264.514 402.097,261.848 400.5,259.5C 399.833,259.5 399.5,259.167 399.5,258.5C 399.408,256.152 398.408,254.486 396.5,253.5C 394.132,247.3 391.465,241.3 388.5,235.5C 388.088,232.198 386.755,229.531 384.5,227.5C 384.25,225.059 383.25,223.059 381.5,221.5C 380.101,218.301 379.101,214.968 378.5,211.5 Z"/></g>
<g><path style="opacity:0.267" fill="#dda89e" d="M 431.5,238.5 C 431.5,240.833 431.5,243.167 431.5,245.5C 430.275,244.848 429.608,243.681 429.5,242C 429.608,240.319 430.275,239.152 431.5,238.5 Z"/></g>
<g><path style="opacity:0.047" fill="#e1aea0" d="M 552.5,237.5 C 554.884,238.425 555.884,240.258 555.5,243C 555.884,245.742 554.884,247.575 552.5,248.5C 553.833,244.833 553.833,241.167 552.5,237.5 Z"/></g>
<g><path style="opacity:0.804" fill="#c85d48" d="M 548.5,253.5 C 547.486,254.674 546.153,255.34 544.5,255.5C 509.5,255.5 474.5,255.5 439.5,255.5C 438.209,255.737 437.209,255.404 436.5,254.5C 473.864,254.815 511.197,254.481 548.5,253.5 Z"/></g>
<g><path style="opacity:0.55" fill="#d9988d" d="M 439.5,255.5 C 474.5,255.5 509.5,255.5 544.5,255.5C 509.849,257.493 474.849,258.16 439.5,257.5C 439.5,256.833 439.5,256.167 439.5,255.5 Z"/></g>
<g><path style="opacity:0.4" fill="#d68a7a" d="M 396.5,253.5 C 398.408,254.486 399.408,256.152 399.5,258.5C 397.75,257.341 396.75,255.674 396.5,253.5 Z"/></g>
<g><path style="opacity:0.175" fill="#d79182" d="M 308.5,257.5 C 308.281,258.675 308.614,259.675 309.5,260.5C 311.598,260.957 313.264,261.957 314.5,263.5C 312.11,263.087 309.777,262.421 307.5,261.5C 306.068,259.703 306.401,258.37 308.5,257.5 Z"/></g>
<g><path style="opacity:0.639" fill="#d07765" d="M 315.5,263.5 C 318.632,264.249 321.299,265.582 323.5,267.5C 320.006,267.468 317.339,266.135 315.5,263.5 Z"/></g>
<g><path style="opacity:0.243" fill="#db9f92" d="M 400.5,259.5 C 402.097,261.848 403.097,264.514 403.5,267.5C 401.603,265.302 400.603,262.636 400.5,259.5 Z"/></g>
<g><path style="opacity:0.027" fill="#f5eeed" d="M 405.5,268.5 C 409.585,271.746 411.752,276.079 412,281.5C 413.84,283.338 415.507,285.338 417,287.5C 417.796,292.052 418.629,296.552 419.5,301C 413.06,308.212 406.06,309.046 398.5,303.5C 402.389,304.965 406.389,305.465 410.5,305C 412.986,304.344 414.653,302.844 415.5,300.5C 416.394,297.208 416.227,293.874 415,290.5C 412.399,285.519 409.899,280.519 407.5,275.5C 406.833,273.167 406.167,270.833 405.5,268.5 Z"/></g>
<g><path style="opacity:0.188" fill="#d7988a" d="M 403.5,268.5 C 404.167,268.5 404.833,268.5 405.5,268.5C 406.167,270.833 406.833,273.167 407.5,275.5C 405.428,273.65 404.095,271.317 403.5,268.5 Z"/></g>
<g><path style="opacity:0.017" fill="#fefdfa" d="M 335.5,274.5 C 338.077,274.455 340.077,275.455 341.5,277.5C 338.911,277.539 336.911,276.539 335.5,274.5 Z"/></g>
<g><path style="opacity:0.243" fill="#d89284" d="M 347.5,278.5 C 350.925,279.091 353.925,280.425 356.5,282.5C 354.199,281.94 351.866,281.44 349.5,281C 348.244,280.583 347.577,279.75 347.5,278.5 Z"/></g>
<g><path style="opacity:0.031" fill="#fefdfc" d="M 341.5,277.5 C 343.5,277.833 345.5,278.167 347.5,278.5C 347.577,279.75 348.244,280.583 349.5,281C 351.866,281.44 354.199,281.94 356.5,282.5C 358.531,284.755 361.198,286.088 364.5,286.5C 364.5,287.167 364.5,287.833 364.5,288.5C 358.813,286.572 353.313,284.239 348,281.5C 347.667,281.833 347.333,282.167 347,282.5C 344.971,280.967 343.138,279.301 341.5,277.5 Z"/></g>
<g><path style="opacity:0.145" fill="#de9a8d" d="M 356.5,282.5 C 359.545,283.279 362.211,284.613 364.5,286.5C 361.198,286.088 358.531,284.755 356.5,282.5 Z"/></g>
<g><path style="opacity:0.569" fill="#d99386" d="M 364.5,286.5 C 367.346,286.552 369.68,287.552 371.5,289.5C 369.236,288.781 366.903,288.448 364.5,288.5C 364.5,287.833 364.5,287.167 364.5,286.5 Z"/></g>
<g><path style="opacity:0.016" fill="#f4ebe9" d="M 364.5,288.5 C 366.903,288.448 369.236,288.781 371.5,289.5C 377.507,292.289 383.507,294.956 389.5,297.5C 389.782,298.778 390.449,299.778 391.5,300.5C 390.833,300.5 390.5,300.833 390.5,301.5C 381.572,297.703 372.905,293.369 364.5,288.5 Z"/></g>
<g><path style="opacity:0.52" fill="#d48271" d="M 389.5,297.5 C 392.632,298.249 395.299,299.582 397.5,301.5C 395.5,301.167 393.5,300.833 391.5,300.5C 390.449,299.778 389.782,298.778 389.5,297.5 Z"/></g>
<g><path style="opacity:0.011" fill="#fdfdfd" d="M 391.5,300.5 C 393.5,300.833 395.5,301.167 397.5,301.5C 397.833,301.5 398.167,301.5 398.5,301.5C 398.5,302.167 398.5,302.833 398.5,303.5C 395.302,304.036 392.635,303.369 390.5,301.5C 391.167,301.5 391.5,301.167 391.5,300.5 Z"/></g>
<g><path style="opacity:0.569" fill="#d48372" d="M 415.5,300.5 C 414.653,302.844 412.986,304.344 410.5,305C 406.389,305.465 402.389,304.965 398.5,303.5C 398.5,302.833 398.5,302.167 398.5,301.5C 404.468,304.462 410.134,304.129 415.5,300.5 Z"/></g>
<g><path style="opacity:0.039" fill="#fdfdfd" d="M 313.5,314.5 C 312.833,314.5 312.167,314.5 311.5,314.5C 311.649,313.448 311.483,312.448 311,311.5C 309.167,308.834 306.667,307.168 303.5,306.5C 303.38,305.414 302.713,304.747 301.5,304.5C 298.167,303.167 294.833,303.167 291.5,304.5C 290.287,304.747 289.62,305.414 289.5,306.5C 288.833,306.833 288.167,307.167 287.5,307.5C 286.167,307.5 284.833,307.5 283.5,307.5C 283.634,309.292 283.301,310.958 282.5,312.5C 282.5,312.833 282.5,313.167 282.5,313.5C 281.25,313.577 280.417,314.244 280,315.5C 279.5,338.831 279.333,362.164 279.5,385.5C 278.71,384.391 278.21,383.058 278,381.5C 276.333,381.833 274.667,382.167 273,382.5C 267.651,381.003 262.151,380.336 256.5,380.5C 229.964,380.544 203.631,380.544 177.5,380.5C 201.491,380.06 225.657,379.393 250,378.5C 255.535,379.254 261.035,379.587 266.5,379.5C 268.776,378.787 271.109,378.287 273.5,378C 274.849,377.228 275.682,376.061 276,374.5C 275.744,356.607 275.577,338.773 275.5,321C 277.433,317.582 278.267,314.082 278,310.5C 286.809,300.927 296.976,299.26 308.5,305.5C 310.717,308.336 312.384,311.336 313.5,314.5 Z"/></g>
<g><path style="opacity:0.635" fill="#827b7b" d="M 287.5,307.5 C 286.118,309.549 284.452,311.215 282.5,312.5C 283.301,310.958 283.634,309.292 283.5,307.5C 284.833,307.5 286.167,307.5 287.5,307.5 Z"/></g>
<g><path style="opacity:0.333" fill="#888181" d="M 303.5,306.5 C 298.833,305.167 294.167,305.167 289.5,306.5C 289.62,305.414 290.287,304.747 291.5,304.5C 294.833,303.167 298.167,303.167 301.5,304.5C 302.713,304.747 303.38,305.414 303.5,306.5 Z"/></g>
<g><path style="opacity:0.604" fill="#e9e9e9" d="M 584.5,110.5 C 584.5,211.167 584.5,311.833 584.5,412.5C 582.802,417.969 580.802,423.302 578.5,428.5C 578.833,426.5 579.167,424.5 579.5,422.5C 576.813,422.664 574.146,422.497 571.5,422C 570.949,420.602 570.616,419.268 570.5,418C 572.078,415.518 573.411,412.851 574.5,410C 574.353,408.026 574.019,406.026 573.5,404C 576.619,402.595 579.952,402.095 583.5,402.5C 583.5,395.833 583.5,389.167 583.5,382.5C 579.776,383.227 577.109,381.894 575.5,378.5C 576.466,373.18 576.466,368.013 575.5,363C 576.416,362.626 577.25,362.126 578,361.5C 579.699,362.406 581.533,362.739 583.5,362.5C 583.5,355.5 583.5,348.5 583.5,341.5C 581.208,341.244 579.041,341.577 577,342.5C 576.308,341.975 575.808,341.308 575.5,340.5C 576.749,337.057 576.416,333.723 574.5,330.5C 574.743,328.045 574.743,325.545 574.5,323C 575.126,322.25 575.626,321.416 576,320.5C 578.381,321.435 580.881,321.768 583.5,321.5C 583.5,314.833 583.5,308.167 583.5,301.5C 579.894,301.789 576.394,301.456 573,300.5C 571.81,293.436 570.643,286.603 569.5,280C 570,279.5 570.5,279 571,278.5C 574.836,280.389 579.003,281.055 583.5,280.5C 583.5,273.833 583.5,267.167 583.5,260.5C 579.5,260.5 575.5,260.5 571.5,260.5C 571.782,264.588 571.115,265.088 569.5,262C 570.74,253.39 570.74,245.057 569.5,237C 569.833,236.5 570.167,236 570.5,235.5C 570.564,236.365 570.897,237.365 571.5,238.5C 575.377,239.197 579.21,239.864 583,240.5C 583.5,233.842 583.666,227.175 583.5,220.5C 580.813,220.664 578.146,220.497 575.5,220C 575.659,215.285 575.659,210.451 575.5,205.5C 576.734,201.553 579.4,199.553 583.5,199.5C 583.666,192.492 583.5,185.492 583,178.5C 578.962,180.03 578.462,179.196 581.5,176C 580.59,170.69 581.09,165.19 583,159.5C 583.258,147.583 582.758,136.249 581.5,125.5C 582.703,121.161 583.703,116.161 584.5,110.5 Z"/></g>
<g><path style="opacity:0.102" fill="#a49e9e" d="M 311.5,314.5 C 312.167,314.5 312.833,314.5 313.5,314.5C 313.507,317.038 313.841,319.538 314.5,322C 313.879,334.985 313.212,347.818 312.5,360.5C 312.817,345.089 312.483,329.755 311.5,314.5 Z"/></g>
<g><path style="opacity:0.383" fill="#968f8f" d="M 282.5,313.5 C 282.013,314.473 281.513,315.473 281,316.5C 280.5,339.831 280.333,363.164 280.5,386.5C 280.167,386.5 279.833,386.5 279.5,386.5C 279.5,386.167 279.5,385.833 279.5,385.5C 279.333,362.164 279.5,338.831 280,315.5C 280.417,314.244 281.25,313.577 282.5,313.5 Z"/></g>
<g><path style="opacity:0.976" fill="#544a4a" d="M 279.5,386.5 C 279.833,386.5 280.167,386.5 280.5,386.5C 234.98,387.187 189.313,387.853 143.5,388.5C 144.263,387.732 145.263,387.232 146.5,387C 190.832,386.5 235.165,386.333 279.5,386.5 Z"/></g>
<g><path style="opacity:0.996" fill="#584e4e" d="M 313.5,386.5 C 362.834,386.333 412.168,386.5 461.5,387C 463.32,387.2 464.653,388.034 465.5,389.5C 462.873,388.895 460.207,388.395 457.5,388C 409.792,387.172 362.126,387.338 314.5,388.5C 313.702,388.043 313.369,387.376 313.5,386.5 Z"/></g>
<g><path style="opacity:0.024" fill="#f2f1f1" d="M 313.5,314.5 C 314.117,314.611 314.617,314.944 315,315.5C 315.5,336.497 315.667,357.497 315.5,378.5C 360.081,378.777 405.081,379.277 450.5,380C 456.625,381.944 462.958,383.11 469.5,383.5C 469.756,385.792 469.423,387.959 468.5,390C 470.333,390.5 471.5,391.667 472,393.5C 472.746,402.017 474.08,410.351 476,418.5C 479.072,421.369 480.406,424.702 480,428.5C 481.011,427.663 482.178,427.33 483.5,427.5C 483.5,429.167 483.5,430.833 483.5,432.5C 485.39,432.297 486.89,432.963 488,434.5C 488.918,437.331 490.085,439.997 491.5,442.5C 491.5,443.167 491.5,443.833 491.5,444.5C 488.232,441.573 484.899,438.573 481.5,435.5C 478.262,430.357 475.595,425.024 473.5,419.5C 473.105,411.285 472.105,403.285 470.5,395.5C 469.21,393.208 467.543,391.208 465.5,389.5C 464.653,388.034 463.32,387.2 461.5,387C 412.168,386.5 362.834,386.333 313.5,386.5C 312.507,378.016 312.174,369.349 312.5,360.5C 313.212,347.818 313.879,334.985 314.5,322C 313.841,319.538 313.507,317.038 313.5,314.5 Z"/></g>
<g><path style="opacity:0.647" fill="#696060" d="M 470.5,395.5 C 472.105,403.285 473.105,411.285 473.5,419.5C 471.836,418.051 471.002,416.051 471,413.5C 470.501,407.509 470.334,401.509 470.5,395.5 Z"/></g>
<g><path style="opacity:0.013" fill="#ededed" d="M 614.5,429.5 C 614.901,433.651 613.567,436.985 610.5,439.5C 610.433,437.599 610.767,435.766 611.5,434C 612.586,431.801 613.586,430.301 614.5,429.5 Z"/></g>
<g><path style="opacity:0.36" fill="#e5e5e5" d="M 572.5,437.5 C 570.833,439.833 568.833,441.833 566.5,443.5C 561.476,443.414 556.142,443.414 550.5,443.5C 550.414,442.504 550.748,441.671 551.5,441C 554.97,440.439 558.137,438.606 561,435.5C 561.333,434.5 561.667,433.5 562,432.5C 565.374,430.101 568.04,427.101 570,423.5C 569.886,428.606 570.72,433.273 572.5,437.5 Z"/></g>
<g><path style="opacity:0.021" fill="#f0f0f0" d="M 610.5,439.5 C 610.843,441.483 610.176,442.817 608.5,443.5C 608.989,442.005 609.655,440.671 610.5,439.5 Z"/></g>
<g><path style="opacity:0.753" fill="#fafafa" d="M 566.5,443.5 C 565.524,444.815 564.524,446.148 563.5,447.5C 560.369,449.992 557.035,451.992 553.5,453.5C 552.5,453.5 551.5,453.5 550.5,453.5C 550.5,450.167 550.5,446.833 550.5,443.5C 556.142,443.414 561.476,443.414 566.5,443.5 Z"/></g>
<g><path style="opacity:0.418" fill="#e4e4e4" d="M 550.5,443.5 C 550.5,446.833 550.5,450.167 550.5,453.5C 551.5,453.5 552.5,453.5 553.5,453.5C 547.039,456.87 540.039,458.87 532.5,459.5C 531.027,457.26 530.027,454.76 529.5,452C 530.357,451.311 531.023,450.478 531.5,449.5C 537.984,447.042 544.317,445.042 550.5,443.5 Z"/></g>
<g><path style="opacity:0.009" fill="#f0efef" d="M 608.5,445.5 C 607.609,449.833 605.276,453.166 601.5,455.5C 603.107,451.725 604.94,448.058 607,444.5C 607.383,445.056 607.883,445.389 608.5,445.5 Z"/></g>
<g><path style="opacity:0.557" fill="#7d7575" d="M 507.5,455.5 C 510.736,455.518 513.403,456.518 515.5,458.5C 512.189,458.693 509.522,457.693 507.5,455.5 Z"/></g>
<g><path style="opacity:0.019" fill="#eeeded" d="M 601.5,455.5 C 600.366,458.899 599.033,462.232 597.5,465.5C 596.448,465.351 595.448,465.517 594.5,466C 591.876,468.658 589.209,471.325 586.5,474C 587.167,474.333 587.833,474.667 588.5,475C 586.134,475.44 583.801,475.94 581.5,476.5C 581.5,475.5 581.5,474.5 581.5,473.5C 582.93,473.579 584.264,473.246 585.5,472.5C 590.932,466.74 596.266,461.073 601.5,455.5 Z"/></g>
<g><path style="opacity:0.004" fill="#fefffe" d="M 148.5,458.5 C 147.833,459.167 147.833,459.167 148.5,458.5 Z"/></g>
<g><path style="opacity:0.012" fill="#f0f0f0" d="M 581.5,476.5 C 580.414,479.917 578.081,481.917 574.5,482.5C 575.641,483.425 575.641,484.259 574.5,485C 567.429,486.523 560.429,488.356 553.5,490.5C 555.184,488.798 557.184,487.298 559.5,486C 565.969,485.432 571.303,482.765 575.5,478C 577.518,477.495 579.518,476.995 581.5,476.5 Z"/></g>
<g><path style="opacity:0.036" fill="#f2f2f2" d="M 177.5,380.5 C 203.631,380.544 229.964,380.544 256.5,380.5C 262.151,380.336 267.651,381.003 273,382.5C 274.667,382.167 276.333,381.833 278,381.5C 278.21,383.058 278.71,384.391 279.5,385.5C 279.5,385.833 279.5,386.167 279.5,386.5C 235.165,386.333 190.832,386.5 146.5,387C 145.263,387.232 144.263,387.732 143.5,388.5C 139.222,389.445 136.555,392.111 135.5,396.5C 134.016,407.673 134.849,418.673 138,429.5C 140.555,436.277 143.388,442.944 146.5,449.5C 155.042,461.208 165.042,471.375 176.5,480C 178.788,480.822 181.122,481.489 183.5,482C 189.532,487.095 196.532,489.595 204.5,489.5C 316.162,491.498 428.162,492.165 540.5,491.5C 544.833,489.985 549.166,489.652 553.5,490.5C 552.048,491.302 550.382,491.802 548.5,492C 432.833,492.667 317.167,492.667 201.5,492C 189.357,488.917 178.024,484.25 167.5,478C 163.469,472.718 158.636,468.218 153,464.5C 152.51,463.207 152.343,461.873 152.5,460.5C 150.801,460.473 149.467,459.806 148.5,458.5C 147.612,455.757 146.445,453.09 145,450.5C 143.989,451.337 142.822,451.67 141.5,451.5C 141.194,443.578 138.527,436.578 133.5,430.5C 135.024,428.208 134.691,426.208 132.5,424.5C 131.357,413.352 131.357,402.352 132.5,391.5C 136.25,386.913 140.417,382.913 145,379.5C 155.818,379.503 166.652,379.837 177.5,380.5 Z"/></g>
<g><path style="opacity:0.047" fill="#655c5c" d="M 204.5,489.5 C 316.65,490.157 428.65,490.823 540.5,491.5C 428.162,492.165 316.162,491.498 204.5,489.5 Z"/></g>
</svg>
