<?xml version="1.0" encoding="UTF-8"?>
<!DOCTYPE svg PUBLIC "-//W3C//DTD SVG 1.1//EN" "http://www.w3.org/Graphics/SVG/1.1/DTD/svg11.dtd">
<svg xmlns="http://www.w3.org/2000/svg" version="1.1" width="512px" height="512px" style="shape-rendering:geometricPrecision; text-rendering:geometricPrecision; image-rendering:optimizeQuality; fill-rule:evenodd; clip-rule:evenodd" xmlns:xlink="http://www.w3.org/1999/xlink">
<g><path style="opacity:1" fill="#f9b300" d="M 399.5,367.5 C 381.164,367.333 362.83,367.5 344.5,368C 331.667,371.5 323.5,379.667 320,392.5C 319.5,410.83 319.333,429.164 319.5,447.5C 295.5,447.5 271.5,447.5 247.5,447.5C 247.5,415.5 247.5,383.5 247.5,351.5C 285.501,351.667 323.501,351.5 361.5,351C 365.624,350.018 367.624,347.352 367.5,343C 367.277,339.112 365.277,336.779 361.5,336C 323.501,335.5 285.501,335.333 247.5,335.5C 247.5,330.167 247.5,324.833 247.5,319.5C 285.501,319.667 323.501,319.5 361.5,319C 365.624,318.018 367.624,315.352 367.5,311C 367.277,307.112 365.277,304.779 361.5,304C 323.501,303.5 285.501,303.333 247.5,303.5C 247.5,298.167 247.5,292.833 247.5,287.5C 285.501,287.667 323.501,287.5 361.5,287C 365.624,286.018 367.624,283.352 367.5,279C 367.277,275.112 365.277,272.779 361.5,272C 323.501,271.5 285.501,271.333 247.5,271.5C 247.5,266.167 247.5,260.833 247.5,255.5C 285.501,255.667 323.501,255.5 361.5,255C 365.624,254.018 367.624,251.352 367.5,247C 367.277,243.112 365.277,240.779 361.5,240C 323.501,239.5 285.501,239.333 247.5,239.5C 247.667,227.162 247.5,214.829 247,202.5C 243.255,194.042 236.755,190.376 227.5,191.5C 226.833,191.5 226.167,191.5 225.5,191.5C 227.091,190.781 228.591,189.781 230,188.5C 231.29,184.27 231.79,179.936 231.5,175.5C 235.936,175.79 240.27,175.29 244.5,174C 248.379,169.631 248.379,165.298 244.5,161C 240.27,159.71 235.936,159.21 231.5,159.5C 231.867,155.033 231.367,150.7 230,146.5C 224.522,141.998 219.855,142.665 216,148.5C 215.501,152.152 215.335,155.818 215.5,159.5C 211.818,159.335 208.152,159.501 204.5,160C 198.665,163.855 197.998,168.522 202.5,174C 206.7,175.367 211.033,175.867 215.5,175.5C 215.335,178.85 215.502,182.183 216,185.5C 216.599,188.254 218.099,190.254 220.5,191.5C 202.833,191.5 185.167,191.5 167.5,191.5C 167.667,176.163 167.5,160.83 167,145.5C 163.74,136.573 157.573,130.739 148.5,128C 135.167,127.333 121.833,127.333 108.5,128C 103.432,130.983 102.265,135.149 105,140.5C 105.903,141.701 107.069,142.535 108.5,143C 121.167,143.333 133.833,143.667 146.5,144C 148.667,144.833 150.167,146.333 151,148.5C 151.499,152.152 151.665,155.818 151.5,159.5C 141.494,159.334 131.494,159.5 121.5,160C 106.951,165.714 101.284,176.214 104.5,191.5C 96.1667,191.5 87.8333,191.5 79.5,191.5C 79.3333,146.165 79.5,100.832 80,55.5C 83.1667,43 91,35.1667 103.5,32C 194.167,31.3333 284.833,31.3333 375.5,32C 388,35.1667 395.833,43 399,55.5C 399.5,159.499 399.667,263.499 399.5,367.5 Z"/></g>
<g><path style="opacity:1" fill="#dc9600" d="M 172.5,71.5 C 182.506,71.3335 192.506,71.5002 202.5,72C 210.88,74.0466 215.213,79.3799 215.5,88C 216.017,94.6245 213.683,99.9578 208.5,104C 201.167,107.667 193.833,111.333 186.5,115C 185.257,116.154 184.257,117.488 183.5,119C 192.167,119.333 200.833,119.667 209.5,120C 215.462,122.405 216.962,126.571 214,132.5C 212.829,133.893 211.329,134.727 209.5,135C 196.405,135.961 183.405,135.628 170.5,134C 164.895,121.032 167.561,110.032 178.5,101C 185.167,97.6667 191.833,94.3333 198.5,91C 199.337,89.9887 199.67,88.8221 199.5,87.5C 189.727,87.9475 180.061,87.4475 170.5,86C 166.062,80.3731 166.729,75.5398 172.5,71.5 Z"/></g>
<g><path style="opacity:1" fill="#dc9600" d="M 332.5,71.5 C 342.506,71.3335 352.506,71.5002 362.5,72C 370.88,74.0466 375.213,79.3799 375.5,88C 376.017,94.6245 373.683,99.9578 368.5,104C 361.167,107.667 353.833,111.333 346.5,115C 345.257,116.154 344.257,117.488 343.5,119C 352.167,119.333 360.833,119.667 369.5,120C 375.462,122.405 376.962,126.571 374,132.5C 372.829,133.893 371.329,134.727 369.5,135C 356.405,135.961 343.405,135.628 330.5,134C 324.463,120.939 327.129,109.939 338.5,101C 345.167,97.6667 351.833,94.3333 358.5,91C 359.337,89.9887 359.67,88.8221 359.5,87.5C 349.727,87.9475 340.061,87.4475 330.5,86C 326.062,80.3731 326.729,75.5398 332.5,71.5 Z"/></g>
<g><path style="opacity:1" fill="#dc9600" d="M 268.5,95.5 C 273.152,94.984 276.652,96.6507 279,100.5C 279.5,109.494 279.666,118.494 279.5,127.5C 310.559,126.731 326.393,141.731 327,172.5C 323.5,192 312,203.5 292.5,207C 284.5,207.667 276.5,207.667 268.5,207C 267.069,206.535 265.903,205.701 265,204.5C 263.354,169.894 263.02,135.227 264,100.5C 265.025,98.313 266.525,96.6464 268.5,95.5 Z"/></g>
<g><path style="opacity:0.996" fill="#0a5078" d="M 479.5,143.5 C 458.167,143.5 436.833,143.5 415.5,143.5C 415.333,130.829 415.5,118.162 416,105.5C 417.833,101 421,97.8333 425.5,96C 440.167,95.3333 454.833,95.3333 469.5,96C 474,97.8333 477.167,101 479,105.5C 479.5,118.162 479.667,130.829 479.5,143.5 Z"/></g>
<g><path style="opacity:1" fill="#dc9600" d="M 167.5,191.5 C 162.167,191.5 156.833,191.5 151.5,191.5C 151.5,186.167 151.5,180.833 151.5,175.5C 141.727,175.052 132.061,175.552 122.5,177C 118.128,182.592 118.794,187.425 124.5,191.5C 117.833,191.5 111.167,191.5 104.5,191.5C 101.284,176.214 106.951,165.714 121.5,160C 131.494,159.5 141.494,159.334 151.5,159.5C 151.665,155.818 151.499,152.152 151,148.5C 150.167,146.333 148.667,144.833 146.5,144C 133.833,143.667 121.167,143.333 108.5,143C 107.069,142.535 105.903,141.701 105,140.5C 102.265,135.149 103.432,130.983 108.5,128C 121.833,127.333 135.167,127.333 148.5,128C 157.573,130.739 163.74,136.573 167,145.5C 167.5,160.83 167.667,176.163 167.5,191.5 Z"/></g>
<g><path style="opacity:1" fill="#dc9600" d="M 225.5,191.5 C 223.833,191.5 222.167,191.5 220.5,191.5C 218.099,190.254 216.599,188.254 216,185.5C 215.502,182.183 215.335,178.85 215.5,175.5C 211.033,175.867 206.7,175.367 202.5,174C 197.998,168.522 198.665,163.855 204.5,160C 208.152,159.501 211.818,159.335 215.5,159.5C 215.335,155.818 215.501,152.152 216,148.5C 219.855,142.665 224.522,141.998 230,146.5C 231.367,150.7 231.867,155.033 231.5,159.5C 235.936,159.21 240.27,159.71 244.5,161C 248.379,165.298 248.379,169.631 244.5,174C 240.27,175.29 235.936,175.79 231.5,175.5C 231.79,179.936 231.29,184.27 230,188.5C 228.591,189.781 227.091,190.781 225.5,191.5 Z"/></g>
<g><path style="opacity:1" fill="#f9b300" d="M 279.5,143.5 C 297.511,141.201 308.178,148.868 311.5,166.5C 309.092,185.228 298.426,193.562 279.5,191.5C 279.5,175.5 279.5,159.5 279.5,143.5 Z"/></g>
<g><path style="opacity:1" fill="#eff0ef" d="M 415.5,143.5 C 436.833,143.5 458.167,143.5 479.5,143.5C 479.5,148.833 479.5,154.167 479.5,159.5C 458.167,159.5 436.833,159.5 415.5,159.5C 415.5,154.167 415.5,148.833 415.5,143.5 Z"/></g>
<g><path style="opacity:1" fill="#c70a4f" d="M 415.5,159.5 C 436.833,159.5 458.167,159.5 479.5,159.5C 479.5,244.833 479.5,330.167 479.5,415.5C 458.167,415.5 436.833,415.5 415.5,415.5C 415.5,330.167 415.5,244.833 415.5,159.5 Z"/></g>
<g><path style="opacity:1" fill="#f9b300" d="M 151.5,191.5 C 142.5,191.5 133.5,191.5 124.5,191.5C 118.794,187.425 118.128,182.592 122.5,177C 132.061,175.552 141.727,175.052 151.5,175.5C 151.5,180.833 151.5,186.167 151.5,191.5 Z"/></g>
<g><path style="opacity:0.999" fill="#02a0c7" d="M 79.5,191.5 C 87.8333,191.5 96.1667,191.5 104.5,191.5C 111.167,191.5 117.833,191.5 124.5,191.5C 133.5,191.5 142.5,191.5 151.5,191.5C 156.833,191.5 162.167,191.5 167.5,191.5C 185.167,191.5 202.833,191.5 220.5,191.5C 222.167,191.5 223.833,191.5 225.5,191.5C 226.167,191.5 226.833,191.5 227.5,191.5C 232.729,193.56 236.563,197.226 239,202.5C 239.5,284.166 239.667,365.833 239.5,447.5C 239.666,454.841 239.5,462.174 239,469.5C 237.167,474 234,477.167 229.5,479C 166.833,479.667 104.167,479.667 41.5,479C 37,477.167 33.8333,474 32,469.5C 31.3333,380.167 31.3333,290.833 32,201.5C 33.8333,197 37,193.833 41.5,192C 54.1623,191.5 66.8289,191.333 79.5,191.5 Z"/></g>
<g><path style="opacity:1" fill="#dc9600" d="M 227.5,191.5 C 236.755,190.376 243.255,194.042 247,202.5C 247.5,214.829 247.667,227.162 247.5,239.5C 285.501,239.333 323.501,239.5 361.5,240C 365.277,240.779 367.277,243.112 367.5,247C 367.624,251.352 365.624,254.018 361.5,255C 323.501,255.5 285.501,255.667 247.5,255.5C 247.5,260.833 247.5,266.167 247.5,271.5C 285.501,271.333 323.501,271.5 361.5,272C 365.277,272.779 367.277,275.112 367.5,279C 367.624,283.352 365.624,286.018 361.5,287C 323.501,287.5 285.501,287.667 247.5,287.5C 247.5,292.833 247.5,298.167 247.5,303.5C 285.501,303.333 323.501,303.5 361.5,304C 365.277,304.779 367.277,307.112 367.5,311C 367.624,315.352 365.624,318.018 361.5,319C 323.501,319.5 285.501,319.667 247.5,319.5C 247.5,324.833 247.5,330.167 247.5,335.5C 285.501,335.333 323.501,335.5 361.5,336C 365.277,336.779 367.277,339.112 367.5,343C 367.624,347.352 365.624,350.018 361.5,351C 323.501,351.5 285.501,351.667 247.5,351.5C 247.5,383.5 247.5,415.5 247.5,447.5C 244.833,447.5 242.167,447.5 239.5,447.5C 239.667,365.833 239.5,284.166 239,202.5C 236.563,197.226 232.729,193.56 227.5,191.5 Z"/></g>
<g><path style="opacity:1" fill="#00325a" d="M 223.5,220.5 C 222.254,218.099 220.254,216.599 217.5,216C 162.5,215.333 107.5,215.333 52.5,216C 50.313,217.025 48.6464,218.525 47.5,220.5C 47.3359,217.813 47.5026,215.146 48,212.5C 48.8333,210.333 50.3333,208.833 52.5,208C 107.833,207.333 163.167,207.333 218.5,208C 220.667,208.833 222.167,210.333 223,212.5C 223.497,215.146 223.664,217.813 223.5,220.5 Z"/></g>
<g><path style="opacity:1" fill="#095078" d="M 223.5,220.5 C 223.667,235.504 223.5,250.504 223,265.5C 222.727,267.329 221.893,268.829 220.5,270C 192.06,271.155 163.56,271.655 135,271.5C 106.749,271.659 78.5821,271.159 50.5,270C 49.1068,268.829 48.2735,267.329 48,265.5C 47.5001,250.504 47.3334,235.504 47.5,220.5C 48.6464,218.525 50.313,217.025 52.5,216C 107.5,215.333 162.5,215.333 217.5,216C 220.254,216.599 222.254,218.099 223.5,220.5 Z"/></g>
<g><path style="opacity:1" fill="#f8b303" d="M 78.5,315.5 C 77.5475,317.61 75.8808,318.777 73.5,319C 66.5,319.667 59.5,319.667 52.5,319C 50.6763,318.34 49.343,317.173 48.5,315.5C 47.0033,307.111 47.17,298.777 49,290.5C 49.9025,289.299 51.0692,288.465 52.5,288C 59.5,287.333 66.5,287.333 73.5,288C 75.3289,288.273 76.8289,289.107 78,290.5C 79.83,298.777 79.9967,307.111 78.5,315.5 Z"/></g>
<g><path style="opacity:1" fill="#f8b303" d="M 126.5,315.5 C 125.547,317.61 123.881,318.777 121.5,319C 114.5,319.667 107.5,319.667 100.5,319C 98.6763,318.34 97.343,317.173 96.5,315.5C 95.0033,307.111 95.17,298.777 97,290.5C 97.9025,289.299 99.0692,288.465 100.5,288C 107.5,287.333 114.5,287.333 121.5,288C 123.329,288.273 124.829,289.107 126,290.5C 127.83,298.777 127.997,307.111 126.5,315.5 Z"/></g>
<g><path style="opacity:1" fill="#f8b303" d="M 174.5,315.5 C 173.547,317.61 171.881,318.777 169.5,319C 162.5,319.667 155.5,319.667 148.5,319C 146.676,318.34 145.343,317.173 144.5,315.5C 143.003,307.111 143.17,298.777 145,290.5C 145.903,289.299 147.069,288.465 148.5,288C 155.5,287.333 162.5,287.333 169.5,288C 171.329,288.273 172.829,289.107 174,290.5C 175.83,298.777 175.997,307.111 174.5,315.5 Z"/></g>
<g><path style="opacity:1" fill="#f8b303" d="M 222.5,315.5 C 221.547,317.61 219.881,318.777 217.5,319C 210.5,319.667 203.5,319.667 196.5,319C 194.676,318.34 193.343,317.173 192.5,315.5C 191.003,307.111 191.17,298.777 193,290.5C 193.903,289.299 195.069,288.465 196.5,288C 203.5,287.333 210.5,287.333 217.5,288C 219.329,288.273 220.829,289.107 222,290.5C 223.83,298.777 223.997,307.111 222.5,315.5 Z"/></g>
<g><path style="opacity:1" fill="#0382a9" d="M 48.5,315.5 C 49.343,317.173 50.6763,318.34 52.5,319C 59.5,319.667 66.5,319.667 73.5,319C 75.8808,318.777 77.5475,317.61 78.5,315.5C 79.9542,319.262 79.2875,322.762 76.5,326C 67.8081,327.971 59.1414,327.971 50.5,326C 47.7125,322.762 47.0458,319.262 48.5,315.5 Z"/></g>
<g><path style="opacity:1" fill="#0382a9" d="M 96.5,315.5 C 97.343,317.173 98.6763,318.34 100.5,319C 107.5,319.667 114.5,319.667 121.5,319C 123.881,318.777 125.547,317.61 126.5,315.5C 127.954,319.262 127.288,322.762 124.5,326C 115.808,327.971 107.141,327.971 98.5,326C 95.7125,322.762 95.0458,319.262 96.5,315.5 Z"/></g>
<g><path style="opacity:1" fill="#0382a9" d="M 144.5,315.5 C 145.343,317.173 146.676,318.34 148.5,319C 155.5,319.667 162.5,319.667 169.5,319C 171.881,318.777 173.547,317.61 174.5,315.5C 175.954,319.262 175.288,322.762 172.5,326C 163.808,327.971 155.141,327.971 146.5,326C 143.712,322.762 143.046,319.262 144.5,315.5 Z"/></g>
<g><path style="opacity:1" fill="#0382a9" d="M 192.5,315.5 C 193.343,317.173 194.676,318.34 196.5,319C 203.5,319.667 210.5,319.667 217.5,319C 219.881,318.777 221.547,317.61 222.5,315.5C 223.954,319.262 223.288,322.762 220.5,326C 211.808,327.971 203.141,327.971 194.5,326C 191.712,322.762 191.046,319.262 192.5,315.5 Z"/></g>
<g><path style="opacity:1" fill="#eeefef" d="M 78.5,363.5 C 77.2511,365.136 75.5844,366.303 73.5,367C 66.5,367.667 59.5,367.667 52.5,367C 50.6498,366.31 49.3164,365.144 48.5,363.5C 47.3999,355.882 47.2332,348.215 48,340.5C 49.1667,338.667 50.6667,337.167 52.5,336C 59.5,335.333 66.5,335.333 73.5,336C 75.9393,336.774 77.7727,338.274 79,340.5C 79.7668,348.215 79.6001,355.882 78.5,363.5 Z"/></g>
<g><path style="opacity:1" fill="#eeefef" d="M 126.5,363.5 C 125.251,365.136 123.584,366.303 121.5,367C 114.5,367.667 107.5,367.667 100.5,367C 98.6498,366.31 97.3164,365.144 96.5,363.5C 95.3999,355.882 95.2332,348.215 96,340.5C 97.1667,338.667 98.6667,337.167 100.5,336C 107.5,335.333 114.5,335.333 121.5,336C 123.939,336.774 125.773,338.274 127,340.5C 127.767,348.215 127.6,355.882 126.5,363.5 Z"/></g>
<g><path style="opacity:1" fill="#eeefef" d="M 174.5,363.5 C 173.251,365.136 171.584,366.303 169.5,367C 162.5,367.667 155.5,367.667 148.5,367C 146.65,366.31 145.316,365.144 144.5,363.5C 143.4,355.882 143.233,348.215 144,340.5C 145.167,338.667 146.667,337.167 148.5,336C 155.5,335.333 162.5,335.333 169.5,336C 171.939,336.774 173.773,338.274 175,340.5C 175.767,348.215 175.6,355.882 174.5,363.5 Z"/></g>
<g><path style="opacity:1" fill="#eeefef" d="M 222.5,363.5 C 221.251,365.136 219.584,366.303 217.5,367C 210.5,367.667 203.5,367.667 196.5,367C 194.65,366.31 193.316,365.144 192.5,363.5C 191.4,355.882 191.233,348.215 192,340.5C 193.167,338.667 194.667,337.167 196.5,336C 203.5,335.333 210.5,335.333 217.5,336C 219.939,336.774 221.773,338.274 223,340.5C 223.767,348.215 223.6,355.882 222.5,363.5 Z"/></g>
<g><path style="opacity:1" fill="#0583aa" d="M 48.5,363.5 C 49.3164,365.144 50.6498,366.31 52.5,367C 59.5,367.667 66.5,367.667 73.5,367C 75.5844,366.303 77.2511,365.136 78.5,363.5C 79.9542,367.262 79.2875,370.762 76.5,374C 67.8081,375.971 59.1414,375.971 50.5,374C 47.7125,370.762 47.0458,367.262 48.5,363.5 Z"/></g>
<g><path style="opacity:1" fill="#0583aa" d="M 96.5,363.5 C 97.3164,365.144 98.6498,366.31 100.5,367C 107.5,367.667 114.5,367.667 121.5,367C 123.584,366.303 125.251,365.136 126.5,363.5C 127.954,367.262 127.288,370.762 124.5,374C 115.808,375.971 107.141,375.971 98.5,374C 95.7125,370.762 95.0458,367.262 96.5,363.5 Z"/></g>
<g><path style="opacity:1" fill="#0583aa" d="M 144.5,363.5 C 145.316,365.144 146.65,366.31 148.5,367C 155.5,367.667 162.5,367.667 169.5,367C 171.584,366.303 173.251,365.136 174.5,363.5C 175.954,367.262 175.288,370.762 172.5,374C 163.808,375.971 155.141,375.971 146.5,374C 143.712,370.762 143.046,367.262 144.5,363.5 Z"/></g>
<g><path style="opacity:1" fill="#0583aa" d="M 192.5,363.5 C 193.316,365.144 194.65,366.31 196.5,367C 203.5,367.667 210.5,367.667 217.5,367C 219.584,366.303 221.251,365.136 222.5,363.5C 223.954,367.262 223.288,370.762 220.5,374C 211.808,375.971 203.141,375.971 194.5,374C 191.712,370.762 191.046,367.262 192.5,363.5 Z"/></g>
<g><path style="opacity:1" fill="#dc9600" d="M 399.5,367.5 C 373.167,394.5 346.5,421.167 319.5,447.5C 319.333,429.164 319.5,410.83 320,392.5C 323.5,379.667 331.667,371.5 344.5,368C 362.83,367.5 381.164,367.333 399.5,367.5 Z"/></g>
<g><path style="opacity:1" fill="#eeefef" d="M 78.5,411.5 C 77.2511,413.136 75.5844,414.303 73.5,415C 66.5,415.667 59.5,415.667 52.5,415C 50.6498,414.31 49.3164,413.144 48.5,411.5C 47.3999,403.882 47.2332,396.215 48,388.5C 49.1667,386.667 50.6667,385.167 52.5,384C 59.5,383.333 66.5,383.333 73.5,384C 75.9393,384.774 77.7727,386.274 79,388.5C 79.7668,396.215 79.6001,403.882 78.5,411.5 Z"/></g>
<g><path style="opacity:1" fill="#eeefef" d="M 126.5,411.5 C 125.251,413.136 123.584,414.303 121.5,415C 114.5,415.667 107.5,415.667 100.5,415C 98.6498,414.31 97.3164,413.144 96.5,411.5C 95.3999,403.882 95.2332,396.215 96,388.5C 97.1667,386.667 98.6667,385.167 100.5,384C 107.5,383.333 114.5,383.333 121.5,384C 123.939,384.774 125.773,386.274 127,388.5C 127.767,396.215 127.6,403.882 126.5,411.5 Z"/></g>
<g><path style="opacity:1" fill="#eeefef" d="M 174.5,411.5 C 173.251,413.136 171.584,414.303 169.5,415C 162.5,415.667 155.5,415.667 148.5,415C 146.65,414.31 145.316,413.144 144.5,411.5C 143.4,403.882 143.233,396.215 144,388.5C 145.167,386.667 146.667,385.167 148.5,384C 155.5,383.333 162.5,383.333 169.5,384C 171.939,384.774 173.773,386.274 175,388.5C 175.767,396.215 175.6,403.882 174.5,411.5 Z"/></g>
<g><path style="opacity:1" fill="#c70a50" d="M 223.5,457.5 C 222.35,460.146 220.35,461.979 217.5,463C 210.5,463.667 203.5,463.667 196.5,463C 194.256,461.594 192.59,459.761 191.5,457.5C 191.333,434.498 191.5,411.498 192,388.5C 192.833,386.333 194.333,384.833 196.5,384C 203.5,383.333 210.5,383.333 217.5,384C 219.939,384.774 221.773,386.274 223,388.5C 223.5,411.498 223.667,434.498 223.5,457.5 Z"/></g>
<g><path style="opacity:1" fill="#0583aa" d="M 48.5,411.5 C 49.3164,413.144 50.6498,414.31 52.5,415C 59.5,415.667 66.5,415.667 73.5,415C 75.5844,414.303 77.2511,413.136 78.5,411.5C 79.9542,415.262 79.2875,418.762 76.5,422C 67.8081,423.971 59.1414,423.971 50.5,422C 47.7125,418.762 47.0458,415.262 48.5,411.5 Z"/></g>
<g><path style="opacity:1" fill="#0583aa" d="M 96.5,411.5 C 97.3164,413.144 98.6498,414.31 100.5,415C 107.5,415.667 114.5,415.667 121.5,415C 123.584,414.303 125.251,413.136 126.5,411.5C 127.954,415.262 127.288,418.762 124.5,422C 115.808,423.971 107.141,423.971 98.5,422C 95.7125,418.762 95.0458,415.262 96.5,411.5 Z"/></g>
<g><path style="opacity:1" fill="#0583aa" d="M 144.5,411.5 C 145.316,413.144 146.65,414.31 148.5,415C 155.5,415.667 162.5,415.667 169.5,415C 171.584,414.303 173.251,413.136 174.5,411.5C 175.954,415.262 175.288,418.762 172.5,422C 163.808,423.971 155.141,423.971 146.5,422C 143.712,418.762 143.046,415.262 144.5,411.5 Z"/></g>
<g><path style="opacity:0.995" fill="#efc79f" d="M 415.5,415.5 C 436.833,415.5 458.167,415.5 479.5,415.5C 474.675,426.484 469.341,437.151 463.5,447.5C 452.833,447.5 442.167,447.5 431.5,447.5C 425.659,437.151 420.325,426.484 415.5,415.5 Z"/></g>
<g><path style="opacity:1" fill="#eeefef" d="M 78.5,459.5 C 77.2511,461.136 75.5844,462.303 73.5,463C 66.5,463.667 59.5,463.667 52.5,463C 50.6498,462.31 49.3164,461.144 48.5,459.5C 47.3999,451.882 47.2332,444.215 48,436.5C 49.1667,434.667 50.6667,433.167 52.5,432C 59.5,431.333 66.5,431.333 73.5,432C 75.9393,432.774 77.7727,434.274 79,436.5C 79.7668,444.215 79.6001,451.882 78.5,459.5 Z"/></g>
<g><path style="opacity:1" fill="#eeefef" d="M 126.5,459.5 C 125.251,461.136 123.584,462.303 121.5,463C 114.5,463.667 107.5,463.667 100.5,463C 98.6498,462.31 97.3164,461.144 96.5,459.5C 95.3999,451.882 95.2332,444.215 96,436.5C 97.1667,434.667 98.6667,433.167 100.5,432C 107.5,431.333 114.5,431.333 121.5,432C 123.939,432.774 125.773,434.274 127,436.5C 127.767,444.215 127.6,451.882 126.5,459.5 Z"/></g>
<g><path style="opacity:1" fill="#eeefef" d="M 174.5,459.5 C 173.251,461.136 171.584,462.303 169.5,463C 162.5,463.667 155.5,463.667 148.5,463C 146.65,462.31 145.316,461.144 144.5,459.5C 143.4,451.882 143.233,444.215 144,436.5C 145.167,434.667 146.667,433.167 148.5,432C 155.5,431.333 162.5,431.333 169.5,432C 171.939,432.774 173.773,434.274 175,436.5C 175.767,444.215 175.6,451.882 174.5,459.5 Z"/></g>
<g><path style="opacity:0.954" fill="#0a4f77" d="M 431.5,447.5 C 442.167,447.5 452.833,447.5 463.5,447.5C 460.618,454.266 457.451,460.933 454,467.5C 449.667,471.5 445.333,471.5 441,467.5C 437.549,460.933 434.382,454.266 431.5,447.5 Z"/></g>
<g><path style="opacity:1" fill="#0583aa" d="M 48.5,459.5 C 49.3164,461.144 50.6498,462.31 52.5,463C 59.5,463.667 66.5,463.667 73.5,463C 75.5844,462.303 77.2511,461.136 78.5,459.5C 79.9542,463.262 79.2875,466.762 76.5,470C 67.8081,471.971 59.1414,471.971 50.5,470C 47.7125,466.762 47.0458,463.262 48.5,459.5 Z"/></g>
<g><path style="opacity:1" fill="#0583aa" d="M 96.5,459.5 C 97.3164,461.144 98.6498,462.31 100.5,463C 107.5,463.667 114.5,463.667 121.5,463C 123.584,462.303 125.251,461.136 126.5,459.5C 127.954,463.262 127.288,466.762 124.5,470C 115.808,471.971 107.141,471.971 98.5,470C 95.7125,466.762 95.0458,463.262 96.5,459.5 Z"/></g>
<g><path style="opacity:1" fill="#0583aa" d="M 144.5,459.5 C 145.316,461.144 146.65,462.31 148.5,463C 155.5,463.667 162.5,463.667 169.5,463C 171.584,462.303 173.251,461.136 174.5,459.5C 175.954,463.262 175.288,466.762 172.5,470C 163.808,471.971 155.141,471.971 146.5,470C 143.712,466.762 143.046,463.262 144.5,459.5 Z"/></g>
<g><path style="opacity:1" fill="#1080a8" d="M 191.5,457.5 C 192.59,459.761 194.256,461.594 196.5,463C 203.5,463.667 210.5,463.667 217.5,463C 220.35,461.979 222.35,460.146 223.5,457.5C 224.678,469.657 219.178,474.324 207,471.5C 195.273,473.936 190.107,469.27 191.5,457.5 Z"/></g>
</svg>
